{
.appVersion = "1352";
DisplayStrings = (
"/dblgravecomb.case/Adblgrave/Edblgrave/Idblgrave/Odblgrave/Rdblgrave/Udblgrave/Rdblgrave ABCDEFGHIJKLMNOPQRSTUVWXYZ",
"/dblgravecomb.case/hungarumlautcomb.case/Ohungarumlaut/Uhungarumlaut/space/hungarumlautcomb/ohungarumlaut/uhungarumlaut/hungarumlautcomb/ohungarumlaut.sc/uhungarumlaut.sc/hungarumlaut/ohungarumlaut",
"/dblgravecomb/dblgravecomb/adblgrave/edblgrave/idblgrave/odblgrave/rdblgrave/udblgrave/adblgrave.ss01/adblgrave.ss03/adblgrave.sc/edblgrave.sc/idblgrave.sc/odblgrave.sc/rdblgrave.sc/udblgrave.sc/rdblgrave",
"/dblgravecomb.case A/Adblgrave/Edblgrave/Idblgrave/Odblgrave/Rdblgrave/Udblgrave R/Rdblgrave",
abcdefghijklmnopqrstuvwxyz,
ABCDEFGHOIJKLMNOPQRSTUVWXYZ
);
classes = (
{
automatic = 1;

glyphs = (
{
color = 4;
glyphname = A;
lastChange = "2021-09-30 22:26:40 +0000";
layers = (
{
anchors = (
{
name = bottom;
position = "{324, -35}";
},
{
name = ogonek;
position = "{584, 10}";
},
{
name = top.case;
position = "{324, 720}";
}
);
background = {
paths = (
{
closed = 1;
nodes = (
"23 0 LINE",
"324 676 LINE",
"626 0 LINE",
"669 0 LINE",
"352 700 LINE",
"297 700 LINE",
"-19 0 LINE"
);
},
{
closed = 1;
nodes = (
"550 200 LINE",
"550 236 LINE",
"105 236 LINE",
"105 200 LINE"
);
}
);
};
guideLines = (
{
angle = 90;
position = "{324, 83}";
}
);
layerId = "620D8D18-E43F-4D11-9420-7EF908A5CAE8";
paths = (
{
closed = 1;
nodes = (
"47 0 LINE",
"323 672 LINE",
"325 672 LINE",
"602 0 LINE",
"645 0 LINE",
"352 700 LINE",
"297 700 LINE",
"5 0 LINE"
);
},
{
closed = 1;
nodes = (
"530 200 LINE",
"530 236 LINE",
"115 236 LINE",
"115 200 LINE"
);
}
);
width = 650;
},
{
anchors = (
{
name = bottom;
position = "{389, -35}";
},
{
name = ogonek;
position = "{640, 10}";
},
{
name = top.case;
position = "{389, 720}";
}
);
background = {
paths = (
{
closed = 1;
nodes = (
"244 0 LINE",
"388 473 LINE",
"392 473 LINE",
"536 0 LINE",
"770 0 LINE",
"518 700 LINE",
"269 700 LINE",
"15 0 LINE"
);
},
{
closed = 1;
nodes = (
"539 98 LINE",
"539 261 LINE",
"243 261 LINE",
"243 98 LINE"
);
}
);
};
guideLines = (
{
angle = 90;
position = "{389, 624}";
}
);
layerId = "5C950900-0D0F-4959-81DE-75F048290F1B";
paths = (
{
closed = 1;
nodes = (
"244 0 LINE",
"388 473 LINE",
"392 473 LINE",
"536 0 LINE",
"770 0 LINE",
"515 700 LINE",
"266 700 LINE",
"15 0 LINE"
);
},
{
closed = 1;
nodes = (
"539 98 LINE",
"539 261 LINE",
"243 261 LINE",
"243 98 LINE"
);
}
);
width = 785;
},
{
anchors = (
{
name = bottom;
position = "{357, -35}";
},
{
name = ogonek;
position = "{612, 10}";
},
{
name = top.case;
position = "{357, 720}";
}
);
background = {
paths = (
{
closed = 1;
nodes = (
"149 0 LINE",
"353 555 LINE",
"357 555 LINE",
"564 0 LINE",
"709 0 LINE",
"428 700 LINE",
"294 700 LINE",
"4 0 LINE"
);
},
{
closed = 1;
nodes = (
"557 141 LINE",
"557 256 LINE",
"157 256 LINE",
"157 141 LINE"
);
}
);
};
guideLines = (
{
angle = 90;
position = "{358, 646}";
}
);
layerId = "514A1583-697A-4C0A-B081-2869E94CF283";
paths = (
{
closed = 1;
nodes = (
"146 0 LINE",
"356 560 LINE",
"359 560 LINE",
"564 0 LINE",
"708 0 LINE",
"434 700 LINE",
"282 700 LINE",
"10 0 LINE"
);
},
{
closed = 1;
nodes = (
"535 139 LINE",
"535 254 LINE",
"179 254 LINE",
"179 139 LINE"
);
}
);
width = 718;
},
{
anchors = (
{
name = bottom;
position = "{390, -35}";
},
{
name = ogonek;
position = "{658, 10}";
},
{
name = top.case;
position = "{390, 720}";
}
);
associatedMasterId = "5C950900-0D0F-4959-81DE-75F048290F1B";
background = {
paths = (
{
closed = 1;
nodes = (
"253 -22 LINE",
"461 646 LINE",
"248 713 LINE",
"40 45 LINE"
);
},
{
closed = 1;
nodes = (
"547 713 LINE",
"334 646 LINE",
"542 -22 LINE",
"755 45 LINE"
);
}
);
};
guideLines = (
{
angle = 90;
position = "{390, 624}";
}
);
layerId = "2AEDD731-7297-45D9-8D56-7E1DAB8699E9";
name = "Dec 10 18, 08:56";
paths = (
{
closed = 1;
nodes = (
"244 0 LINE",
"388 473 LINE",
"392 473 LINE",
"536 0 LINE",
"770 0 LINE",
"518 700 LINE",
"269 700 LINE",
"15 0 LINE"
);
},
{
closed = 1;
nodes = (
"539 98 LINE",
"539 261 LINE",
"243 261 LINE",
"243 98 LINE"
);
}
);
width = 785;
},
{
anchors = (
{
name = bottom;
position = "{410, -35}";
},
{
name = ogonek;
position = "{678, 10}";
},
{
name = top.case;
position = "{410, 720}";
}
);
associatedMasterId = "5C950900-0D0F-4959-81DE-75F048290F1B";
background = {
paths = (
{
closed = 1;
nodes = (
"21 0 LINE",
"225 0 LINE",
"275 125 LINE",
"545 125 LINE",
"596 0 LINE",
"804 0 LINE",
"506 705 LINE",
"319 705 LINE"
);
},
{
closed = 1;
nodes = (
"332 276 LINE",
"411 475 LINE",
"489 276 LINE"
);
}
);
};
guideLines = (
{
angle = 90;
position = "{410, 624}";
}
);
layerId = "B04B5D5B-6545-4356-A1D3-121C57C8E934";
name = "Dec 10 18, 09:03";
paths = (
{
closed = 1;
nodes = (
"244 0 LINE",
"410 473 LINE",
"576 0 LINE",
"810 0 LINE",
"518 700 LINE",
"309 700 LINE",
"15 0 LINE"
);
},
{
closed = 1;
nodes = (
"559 98 LINE",
"559 281 LINE",
"263 281 LINE",
"263 98 LINE"
);
}
);
width = 825;
},
{
anchors = (
{
name = bottom;
position = "{389, -35}";
},
{
name = ogonek;
position = "{663, 10}";
},
{
name = top.case;
position = "{389, 720}";
}
);
associatedMasterId = "514A1583-697A-4C0A-B081-2869E94CF283";
background = {
paths = (
{
closed = 1;
nodes = (
"163 0 LINE",
"387 555 LINE",
"391 555 LINE",
"618 0 LINE",
"763 0 LINE",
"462 700 LINE",
"328 700 LINE",
"18 0 LINE"
);
},
{
closed = 1;
nodes = (
"591 141 LINE",
"591 261 LINE",
"191 261 LINE",
"191 141 LINE"
);
}
);
};
guideLines = (
{
angle = 90;
position = "{389, 646}";
}
);
layerId = "A11BCA9E-E538-458E-AB07-570FF5C905CF";
name = "Dec 11 18, 09:55";
paths = (
{
closed = 1;
nodes = (
"163 0 LINE",
"387 555 LINE",
"391 555 LINE",
"618 0 LINE",
"763 0 LINE",
"462 700 LINE",
"328 700 LINE",
"18 0 LINE"
);
},
{
closed = 1;
nodes = (
"591 141 LINE",
"591 261 LINE",
"191 261 LINE",
"191 141 LINE"
);
}
);
width = 781;
}
);
leftKerningGroup = A;
rightKerningGroup = A;
unicode = 0041;
},
{
glyphname = Ahookabove;
lastChange = "2021-09-30 22:26:40 +0000";
layers = (
{
background = {
paths = (
{
closed = 1;
nodes = (
"341 705 LINE",
"290 717 LINE",
"300 738 OFFCURVE",
"316 756 OFFCURVE",
"342 763 CURVE SMOOTH",
"356 767 LINE SMOOTH",
"403 780 OFFCURVE",
"421 803 OFFCURVE",
"423 841 CURVE SMOOTH",
"425 887 OFFCURVE",
"384 919 OFFCURVE",
"316 924 CURVE SMOOTH",
"287 926 OFFCURVE",
"256 922 OFFCURVE",
"228 917 CURVE SMOOTH",
"207 913 LINE",
"214 923 LINE",
"224 882 LINE",
"201 886 LINE",
"224 890 LINE SMOOTH",
"255 895 OFFCURVE",
"282 897 OFFCURVE",
"314 894 CURVE SMOOTH",
"362 890 OFFCURVE",
"391 867 OFFCURVE",
"389 838 CURVE SMOOTH",
"387 811 OFFCURVE",
"380 800 OFFCURVE",
"341 788 CURVE SMOOTH",
"328 784 LINE SMOOTH",
"287 771 OFFCURVE",
"266 740 OFFCURVE",
"272 697 CURVE",
"232 751 LINE"
);
}
);
};
components = (
{
name = A;
},
{
name = hookabovecomb.case;
transform = "{1, 0, 0, 1, 324, 0}";
}
);
layerId = "620D8D18-E43F-4D11-9420-7EF908A5CAE8";
width = 650;
},
{
components = (
{
name = A;
},
{
name = hookabovecomb.case;
transform = "{1, 0, 0, 1, 367, 0}";
}
);
layerId = "514A1583-697A-4C0A-B081-2869E94CF283";
width = 718;
},
{
components = (
{
name = A;
},
{
name = hookabovecomb.case;
transform = "{1, 0, 0, 1, 409, 0}";
}
);
layerId = "5C950900-0D0F-4959-81DE-75F048290F1B";
width = 785;
}
);
unicode = 1EA2;
},
{
color = 3;
glyphname = AE;
lastChange = "2021-09-30 23:32:25 +0000";
layers = (
{
anchors = (
{
name = top.case;
position = "{668, 720}";
}
);
background = {
components = (
{
name = I;
transform = "{0.86978, -0.49344, 0.49344, 0.86978, -36, 107}";
}
);
};
guideLines = (
{
angle = 90;
position = "{955, 96}";
}
);
layerId = "620D8D18-E43F-4D11-9420-7EF908A5CAE8";
paths = (
{
closed = 1;
nodes = (
"70 0 LINE",
"444 664 LINE",
"506 664 LINE",
"506 700 LINE",
"421 700 LINE",
"25 0 LINE"
);
},
{
closed = 1;
nodes = (
"507 320 LINE",
"507 356 LINE",
"240 356 LINE",
"240 320 LINE"
);
},
{
closed = 1;
nodes = (
"955 0 LINE",
"955 36 LINE",
"519 36 LINE",
"519 320 LINE",
"908 320 LINE",
"908 356 LINE",
"519 356 LINE",
"519 664 LINE",
"948 664 LINE",
"948 700 LINE",
"480 700 LINE",
"480 0 LINE"
);
}
);
width = 1010;
},
{
anchors = (
{
name = top.case;
position = "{688, 720}";
}
);
background = {
components = (
{
name = E;
transform = "{1, 0, 0, 1, 413, 0}";
}
);
paths = (
{
closed = 1;
nodes = (
"165 0 LINE",
"464 576 LINE",
"591 576 LINE",
"591 700 LINE",
"388 700 LINE",
"18 0 LINE"
);
},
{
closed = 1;
nodes = (
"597 261 LINE",
"597 381 LINE",
"241 381 LINE",
"241 261 LINE"
);
}
);
};
layerId = "514A1583-697A-4C0A-B081-2869E94CF283";
paths = (
{
closed = 1;
nodes = (
"165 0 LINE",
"464 576 LINE",
"591 576 LINE",
"591 700 LINE",
"388 700 LINE",
"18 0 LINE"
);
},
{
closed = 1;
nodes = (
"597 264 LINE",
"597 379 LINE",
"241 379 LINE",
"241 264 LINE"
);
},
{
closed = 1;
nodes = (
"1003 0 LINE",
"1003 115 LINE",
"627 115 LINE",
"627 264 LINE",
"956 264 LINE",
"956 379 LINE",
"627 379 LINE",
"627 585 LINE",
"996 585 LINE",
"996 700 LINE",
"496 700 LINE",
"496 0 LINE"
);
}
);
width = 1043;
},
{
anchors = (
{
name = top.case;
position = "{727, 720}";
}
);
background = {
components = (
{
name = E;
transform = "{1, 0, 0, 1, 465, -18}";
}
);
};
layerId = "5C950900-0D0F-4959-81DE-75F048290F1B";
paths = (
{
closed = 1;
nodes = (
"264 0 LINE",
"493 525 LINE",
"671 525 LINE",
"659 700 LINE",
"358 700 LINE",
"15 0 LINE"
);
},
{
closed = 1;
nodes = (
"569 220 LINE",
"569 383 LINE",
"273 383 LINE",
"273 220 LINE"
);
},
{
closed = 1;
nodes = (
"1083 0 LINE",
"1083 192 LINE",
"743 192 LINE",
"743 254 LINE",
"1036 254 LINE",
"1036 419 LINE",
"743 419 LINE",
"743 510 LINE",
"1076 510 LINE",
"1076 700 LINE",
"520 700 LINE",
"520 0 LINE"
);
}
);
width = 1108;
}
);
leftKerningGroup = AE;
rightKerningGroup = E;
rightMetricsKey = E;
unicode = 00C6;
},
{
color = 4;
glyphname = B;
lastChange = "2021-09-30 22:26:40 +0000";
layers = (
{
background = {
paths = (
{
closed = 1;
nodes = (
"383 0 LINE SMOOTH",
"532 0 OFFCURVE",
"615 83 OFFCURVE",
"615 209 CURVE SMOOTH",
"615 285 OFFCURVE",
"567 343 OFFCURVE",
"503 362 CURVE",
"503 363 LINE",
"570 393 OFFCURVE",
"587 453 OFFCURVE",
"587 515 CURVE SMOOTH",
"587 622 OFFCURVE",
"515 700 OFFCURVE",
"372 700 CURVE SMOOTH",
"43 700 LINE",
"43 0 LINE"
);
},
{
closed = 1;
nodes = (
"174 300 LINE",
"378 300 LINE SMOOTH",
"440 300 OFFCURVE",
"477 270 OFFCURVE",
"477 212 CURVE SMOOTH",
"477 145 OFFCURVE",
"442 115 OFFCURVE",
"372 115 CURVE SMOOTH",
"174 115 LINE"
);
},
{
closed = 1;
nodes = (
"174 585 LINE",
"364 585 LINE SMOOTH",
"432 585 OFFCURVE",
"462 555 OFFCURVE",
"462 501 CURVE SMOOTH",
"462 444 OFFCURVE",
"432 415 OFFCURVE",
"372 415 CURVE SMOOTH",
"174 415 LINE"
);
}
);
};
layerId = "620D8D18-E43F-4D11-9420-7EF908A5CAE8";
paths = (
{
closed = 1;
nodes = (
"392 0 LINE SMOOTH",
"532 0 OFFCURVE",
"614 74 OFFCURVE",
"614 197 CURVE SMOOTH",
"614 290 OFFCURVE",
"556 350 OFFCURVE",
"475 366 CURVE",
"475 367 LINE",
"554 390 OFFCURVE",
"587 451 OFFCURVE",
"587 526 CURVE SMOOTH",
"587 630 OFFCURVE",
"505 700 OFFCURVE",
"383 700 CURVE SMOOTH",
"105 700 LINE",
"105 0 LINE"
);
},
{
closed = 1;
nodes = (
"144 346 LINE",
"396 346 LINE SMOOTH",
"505 346 OFFCURVE",
"573 288 OFFCURVE",
"573 200 CURVE SMOOTH",
"573 92 OFFCURVE",
"514 36 OFFCURVE",
"392 36 CURVE SMOOTH",
"144 36 LINE"
);
},
{
closed = 1;
nodes = (
"144 664 LINE",
"383 664 LINE SMOOTH",
"496 664 OFFCURVE",
"546 608 OFFCURVE",
"546 523 CURVE SMOOTH",
"546 436 OFFCURVE",
"498 382 OFFCURVE",
"398 382 CURVE SMOOTH",
"144 382 LINE"
);
}
);
width = 669;
},
{
background = {
paths = (
{
closed = 1;
nodes = (
"468 0 LINE SMOOTH",
"627 0 OFFCURVE",
"710 92 OFFCURVE",
"710 221 CURVE SMOOTH",
"710 280 OFFCURVE",
"678 336 OFFCURVE",
"625 361 CURVE",
"625 362 LINE",
"673 400 OFFCURVE",
"692 454 OFFCURVE",
"692 504 CURVE SMOOTH",
"692 616 OFFCURVE",
"615 700 OFFCURVE",
"468 700 CURVE SMOOTH",
"55 700 LINE",
"55 0 LINE"
);
},
{
closed = 1;
nodes = (
"278 291 LINE",
"418 291 LINE SMOOTH",
"463 291 OFFCURVE",
"482 273 OFFCURVE",
"482 232 CURVE SMOOTH",
"482 188 OFFCURVE",
"453 176 OFFCURVE",
"401 176 CURVE SMOOTH",
"278 176 LINE"
);
},
{
closed = 1;
nodes = (
"278 535 LINE",
"397 535 LINE SMOOTH",
"452 535 OFFCURVE",
"474 517 OFFCURVE",
"474 479 CURVE SMOOTH",
"474 440 OFFCURVE",
"450 423 OFFCURVE",
"411 423 CURVE SMOOTH",
"278 423 LINE"
);
}
);
};
guideLines = (
{
position = "{278, 176}";
},
{
position = "{278, 291}";
}
);
layerId = "5C950900-0D0F-4959-81DE-75F048290F1B";
paths = (
{
closed = 1;
nodes = (
"468 0 LINE SMOOTH",
"627 0 OFFCURVE",
"710 92 OFFCURVE",
"710 221 CURVE SMOOTH",
"710 279 OFFCURVE",
"675 335 OFFCURVE",
"619 360 CURVE",
"619 362 LINE",
"664 400 OFFCURVE",
"682 454 OFFCURVE",
"682 504 CURVE SMOOTH",
"682 616 OFFCURVE",
"605 700 OFFCURVE",
"458 700 CURVE SMOOTH",
"55 700 LINE",
"55 0 LINE"
);
},
{
closed = 1;
nodes = (
"278 291 LINE",
"418 291 LINE SMOOTH",
"463 291 OFFCURVE",
"482 273 OFFCURVE",
"482 232 CURVE SMOOTH",
"482 188 OFFCURVE",
"453 176 OFFCURVE",
"401 176 CURVE SMOOTH",
"278 176 LINE"
);
},
{
closed = 1;
nodes = (
"278 535 LINE",
"397 535 LINE SMOOTH",
"452 535 OFFCURVE",
"474 517 OFFCURVE",
"474 479 CURVE SMOOTH",
"474 440 OFFCURVE",
"450 423 OFFCURVE",
"411 423 CURVE SMOOTH",
"278 423 LINE"
);
}
);
width = 735;
},
{
background = {
paths = (
{
closed = 1;
nodes = (
"413 0 LINE SMOOTH",
"572 0 OFFCURVE",
"655 92 OFFCURVE",
"655 221 CURVE SMOOTH",
"655 279 OFFCURVE",
"620 335 OFFCURVE",
"564 360 CURVE",
"564 362 LINE",
"609 400 OFFCURVE",
"627 454 OFFCURVE",
"627 504 CURVE SMOOTH",
"627 616 OFFCURVE",
"550 700 OFFCURVE",
"403 700 CURVE SMOOTH",
"0 700 LINE",
"0 0 LINE"
);
},
{
closed = 1;
nodes = (
"223 291 LINE",
"363 291 LINE SMOOTH",
"408 291 OFFCURVE",
"427 273 OFFCURVE",
"427 232 CURVE SMOOTH",
"427 188 OFFCURVE",
"398 176 OFFCURVE",
"346 176 CURVE SMOOTH",
"223 176 LINE"
);
},
{
closed = 1;
nodes = (
"223 535 LINE",
"342 535 LINE SMOOTH",
"397 535 OFFCURVE",
"419 517 OFFCURVE",
"419 479 CURVE SMOOTH",
"419 440 OFFCURVE",
"395 423 OFFCURVE",
"356 423 CURVE SMOOTH",
"223 423 LINE"
);
}
);
};
guideLines = (
{
position = "{214, 585}";
},
{
position = "{214, 115}";
},
{
position = "{214, 300}";
},
{
position = "{214, 415}";
}
);
layerId = "514A1583-697A-4C0A-B081-2869E94CF283";
paths = (
{
closed = 1;
nodes = (
"423 0 LINE SMOOTH",
"572 0 OFFCURVE",
"655 83 OFFCURVE",
"655 209 CURVE SMOOTH",
"655 285 OFFCURVE",
"607 343 OFFCURVE",
"543 362 CURVE",
"543 363 LINE",
"610 393 OFFCURVE",
"627 453 OFFCURVE",
"627 515 CURVE SMOOTH",
"627 622 OFFCURVE",
"555 700 OFFCURVE",
"412 700 CURVE SMOOTH",
"83 700 LINE",
"83 0 LINE"
);
},
{
closed = 1;
nodes = (
"214 300 LINE",
"422 300 LINE SMOOTH",
"484 300 OFFCURVE",
"521 270 OFFCURVE",
"521 212 CURVE SMOOTH",
"521 145 OFFCURVE",
"486 115 OFFCURVE",
"416 115 CURVE SMOOTH",
"214 115 LINE"
);
},
{
closed = 1;
nodes = (
"214 585 LINE",
"404 585 LINE SMOOTH",
"472 585 OFFCURVE",
"502 555 OFFCURVE",
"502 501 CURVE SMOOTH",
"502 444 OFFCURVE",
"472 415 OFFCURVE",
"412 415 CURVE SMOOTH",
"214 415 LINE"
);
}
);
width = 700;
},
{
associatedMasterId = "5C950900-0D0F-4959-81DE-75F048290F1B";
background = {
paths = (
{
closed = 1;
nodes = (
"468 0 LINE SMOOTH",
"627 0 OFFCURVE",
"710 92 OFFCURVE",
"710 221 CURVE SMOOTH",
"710 280 OFFCURVE",
"678 336 OFFCURVE",
"625 361 CURVE",
"625 362 LINE",
"673 400 OFFCURVE",
"692 454 OFFCURVE",
"692 504 CURVE SMOOTH",
"692 616 OFFCURVE",
"615 700 OFFCURVE",
"468 700 CURVE SMOOTH",
"55 700 LINE",
"55 0 LINE"
);
},
{
closed = 1;
nodes = (
"278 285 LINE",
"432 285 LINE SMOOTH",
"465 285 OFFCURVE",
"482 275 OFFCURVE",
"482 235 CURVE SMOOTH",
"482 197 OFFCURVE",
"464 187 OFFCURVE",
"432 187 CURVE SMOOTH",
"278 187 LINE"
);
},
{
closed = 1;
nodes = (
"278 524 LINE",
"425 524 LINE SMOOTH",
"457 524 OFFCURVE",
"474 514 OFFCURVE",
"474 476 CURVE SMOOTH",
"474 439 OFFCURVE",
"456 429 OFFCURVE",
"425 429 CURVE SMOOTH",
"278 429 LINE"
);
}
);
};
layerId = "F07FACC6-3F1E-468F-828B-374D214A166F";
name = "Dec 7 18, 17:12";
paths = (
{
closed = 1;
nodes = (
"468 0 LINE SMOOTH",
"627 0 OFFCURVE",
"710 92 OFFCURVE",
"710 221 CURVE SMOOTH",
"710 280 OFFCURVE",
"666 368 OFFCURVE",
"582 368 CURVE",
"582 369 LINE",
"630 407 OFFCURVE",
"652 454 OFFCURVE",
"652 504 CURVE SMOOTH",
"652 616 OFFCURVE",
"575 700 OFFCURVE",
"428 700 CURVE SMOOTH",
"55 700 LINE",
"55 0 LINE"
);
},
{
closed = 1;
nodes = (
"278 285 LINE",
"432 285 LINE SMOOTH",
"465 285 OFFCURVE",
"482 275 OFFCURVE",
"482 235 CURVE SMOOTH",
"482 197 OFFCURVE",
"464 187 OFFCURVE",
"432 187 CURVE SMOOTH",
"278 187 LINE"
);
},
{
closed = 1;
nodes = (
"278 524 LINE",
"385 524 LINE SMOOTH",
"417 524 OFFCURVE",
"434 514 OFFCURVE",
"434 476 CURVE SMOOTH",
"434 439 OFFCURVE",
"416 429 OFFCURVE",
"385 429 CURVE SMOOTH",
"278 429 LINE"
);
}
);
width = 735;
},
{
associatedMasterId = "5C950900-0D0F-4959-81DE-75F048290F1B";
background = {
paths = (
{
closed = 1;
nodes = (
"468 0 LINE SMOOTH",
"627 0 OFFCURVE",
"710 92 OFFCURVE",
"710 221 CURVE SMOOTH",
"710 280 OFFCURVE",
"678 336 OFFCURVE",
"625 361 CURVE",
"625 362 LINE",
"673 400 OFFCURVE",
"692 454 OFFCURVE",
"692 504 CURVE SMOOTH",
"692 616 OFFCURVE",
"615 700 OFFCURVE",
"468 700 CURVE SMOOTH",
"55 700 LINE",
"55 0 LINE"
);
},
{
closed = 1;
nodes = (
"278 285 LINE",
"432 285 LINE SMOOTH",
"465 285 OFFCURVE",
"482 275 OFFCURVE",
"482 235 CURVE SMOOTH",
"482 197 OFFCURVE",
"464 187 OFFCURVE",
"432 187 CURVE SMOOTH",
"278 187 LINE"
);
},
{
closed = 1;
nodes = (
"278 524 LINE",
"425 524 LINE SMOOTH",
"456 524 OFFCURVE",
"474 511 OFFCURVE",
"474 477 CURVE SMOOTH",
"474 440 OFFCURVE",
"456 429 OFFCURVE",
"425 429 CURVE SMOOTH",
"278 429 LINE"
);
}
);
};
layerId = "38B5EB85-1C05-4399-AC77-7CF939E8E5E4";
name = "Dec 9 18, 12:56";
paths = (
{
closed = 1;
nodes = (
"468 0 LINE SMOOTH",
"620 0 OFFCURVE",
"710 84 OFFCURVE",
"710 214 CURVE SMOOTH",
"710 269 OFFCURVE",
"684 323 OFFCURVE",
"625 361 CURVE",
"625 362 LINE",
"671 407 OFFCURVE",
"691 459 OFFCURVE",
"691 509 CURVE SMOOTH",
"691 623 OFFCURVE",
"605 700 OFFCURVE",
"468 700 CURVE SMOOTH",
"55 700 LINE",
"55 0 LINE"
);
},
{
closed = 1;
nodes = (
"278 285 LINE",
"432 285 LINE SMOOTH",
"465 285 OFFCURVE",
"482 275 OFFCURVE",
"482 235 CURVE SMOOTH",
"482 197 OFFCURVE",
"464 187 OFFCURVE",
"432 187 CURVE SMOOTH",
"278 187 LINE"
);
},
{
closed = 1;
nodes = (
"278 524 LINE",
"425 524 LINE SMOOTH",
"456 524 OFFCURVE",
"474 511 OFFCURVE",
"474 477 CURVE SMOOTH",
"474 440 OFFCURVE",
"456 429 OFFCURVE",
"425 429 CURVE SMOOTH",
"278 429 LINE"
);
}
);
width = 735;
},
{
associatedMasterId = "5C950900-0D0F-4959-81DE-75F048290F1B";
background = {
paths = (
{
closed = 1;
nodes = (
"468 0 LINE SMOOTH",
"627 0 OFFCURVE",
"710 92 OFFCURVE",
"710 221 CURVE SMOOTH",
"710 280 OFFCURVE",
"678 336 OFFCURVE",
"625 361 CURVE",
"625 362 LINE",
"673 400 OFFCURVE",
"692 454 OFFCURVE",
"692 504 CURVE SMOOTH",
"692 616 OFFCURVE",
"615 700 OFFCURVE",
"468 700 CURVE SMOOTH",
"55 700 LINE",
"55 0 LINE"
);
},
{
closed = 1;
nodes = (
"278 285 LINE",
"432 285 LINE SMOOTH",
"465 285 OFFCURVE",
"482 275 OFFCURVE",
"482 235 CURVE SMOOTH",
"482 197 OFFCURVE",
"464 187 OFFCURVE",
"432 187 CURVE SMOOTH",
"278 187 LINE"
);
},
{
closed = 1;
nodes = (
"278 524 LINE",
"425 524 LINE SMOOTH",
"456 524 OFFCURVE",
"474 511 OFFCURVE",
"474 477 CURVE SMOOTH",
"474 440 OFFCURVE",
"456 429 OFFCURVE",
"425 429 CURVE SMOOTH",
"278 429 LINE"
);
}
);
};
layerId = "49BF9C82-37AE-4B85-A9AA-A9CBC973ADCF";
name = "Dec 9 18, 12:58";
paths = (
{
closed = 1;
nodes = (
"448 0 LINE SMOOTH",
"600 0 OFFCURVE",
"690 84 OFFCURVE",
"690 214 CURVE SMOOTH",
"690 269 OFFCURVE",
"664 323 OFFCURVE",
"605 361 CURVE",
"605 362 LINE",
"651 407 OFFCURVE",
"671 459 OFFCURVE",
"671 509 CURVE SMOOTH",
"671 623 OFFCURVE",
"585 700 OFFCURVE",
"448 700 CURVE SMOOTH",
"55 700 LINE",
"55 0 LINE"
);
},
{
closed = 1;
nodes = (
"278 285 LINE",
"412 285 LINE SMOOTH",
"445 285 OFFCURVE",
"462 275 OFFCURVE",
"462 235 CURVE SMOOTH",
"462 197 OFFCURVE",
"444 187 OFFCURVE",
"412 187 CURVE SMOOTH",
"278 187 LINE"
);
},
{
closed = 1;
nodes = (
"278 524 LINE",
"405 524 LINE SMOOTH",
"436 524 OFFCURVE",
"454 511 OFFCURVE",
"454 477 CURVE SMOOTH",
"454 440 OFFCURVE",
"436 429 OFFCURVE",
"405 429 CURVE SMOOTH",
"278 429 LINE"
);
}
);
width = 715;
}
);
leftMetricsKey = H;
rightKerningGroup = B;
unicode = 0042;
},
{
color = 4;
glyphname = C;
lastChange = "2021-09-30 22:26:40 +0000";
layers = (
{
anchors = (
{
name = bottom;
position = "{393, -35}";
},
{
name = top.case;
position = "{418, 720}";
}
);
background = {
paths = (
{
closed = 0;
nodes = (
"709 86 LINE",
"613 43 LINE SMOOTH",
"542 12 OFFCURVE",
"473 -6 OFFCURVE",
"409 -6 CURVE SMOOTH"
);
}
);
};
guideLines = (
{
angle = 90;
position = "{587, 236}";
}
);
layerId = "620D8D18-E43F-4D11-9420-7EF908A5CAE8";
paths = (
{
closed = 1;
nodes = (
"475 -6 OFFCURVE",
"545 13 OFFCURVE",
"614 43 CURVE SMOOTH",
"661 64 LINE",
"648 91 LINE",
"599 71 LINE SMOOTH",
"534 45 OFFCURVE",
"470 30 OFFCURVE",
"411 30 CURVE SMOOTH",
"235 30 OFFCURVE",
"106 146 OFFCURVE",
"106 351 CURVE SMOOTH",
"106 554 OFFCURVE",
"243 674 OFFCURVE",
"416 674 CURVE SMOOTH",
"474 674 OFFCURVE",
"529 662 OFFCURVE",
"596 640 CURVE SMOOTH",
"628 630 LINE",
"638 658 LINE",
"607 671 LINE SMOOTH",
"551 694 OFFCURVE",
"487 710 OFFCURVE",
"414 710 CURVE SMOOTH",
"225 710 OFFCURVE",
"65 577 OFFCURVE",
"65 350 CURVE SMOOTH",
"65 123 OFFCURVE",
"219 -6 OFFCURVE",
"409 -6 CURVE SMOOTH"
);
}
);
width = 705;
},
{
anchors = (
{
name = bottom;
position = "{361, -35}";
},
{
name = top.case;
position = "{405, 720}";
}
);
background = {
paths = (
{
closed = 1;
nodes = (
"459 -9 OFFCURVE",
"537 7 OFFCURVE",
"620 39 CURVE SMOOTH",
"686 64 LINE",
"643 1 LINE",
"590 276 LINE",
"634 213 LINE",
"560 205 LINE SMOOTH",
"503 200 OFFCURVE",
"455 195 OFFCURVE",
"415 195 CURVE SMOOTH",
"311 195 OFFCURVE",
"263 231 OFFCURVE",
"263 352 CURVE SMOOTH",
"263 467 OFFCURVE",
"317 507 OFFCURVE",
"421 507 CURVE SMOOTH",
"459 507 OFFCURVE",
"503 503 OFFCURVE",
"554 496 CURVE SMOOTH",
"628 486 LINE",
"575 429 LINE",
"634 707 LINE",
"697 637 LINE",
"610 670 LINE SMOOTH",
"539 697 OFFCURVE",
"469 710 OFFCURVE",
"404 710 CURVE SMOOTH",
"194 710 OFFCURVE",
"35 586 OFFCURVE",
"35 351 CURVE SMOOTH",
"35 107 OFFCURVE",
"177 -9 OFFCURVE",
"388 -9 CURVE SMOOTH"
);
}
);
};
guideLines = (
{
angle = 90;
position = "{619, 362}";
},
{
angle = 90;
position = "{587, 380}";
},
{
angle = 90;
position = "{433, 342}";
}
);
layerId = "5C950900-0D0F-4959-81DE-75F048290F1B";
paths = (
{
closed = 1;
nodes = (
"474 -9 OFFCURVE",
"555 7 OFFCURVE",
"623 32 CURVE SMOOTH",
"636 37 LINE",
"603 210 LINE",
"560 205 LINE SMOOTH",
"503 200 OFFCURVE",
"455 195 OFFCURVE",
"415 195 CURVE SMOOTH",
"311 195 OFFCURVE",
"263 231 OFFCURVE",
"263 352 CURVE SMOOTH",
"263 467 OFFCURVE",
"317 507 OFFCURVE",
"421 507 CURVE SMOOTH",
"469 507 OFFCURVE",
"513 503 OFFCURVE",
"564 497 CURVE SMOOTH",
"589 494 LINE",
"625 668 LINE",
"619 670 LINE SMOOTH",
"555 694 OFFCURVE",
"481 710 OFFCURVE",
"410 710 CURVE SMOOTH",
"197 710 OFFCURVE",
"35 586 OFFCURVE",
"35 351 CURVE SMOOTH",
"35 107 OFFCURVE",
"182 -9 OFFCURVE",
"401 -9 CURVE SMOOTH"
);
}
);
width = 652;
},
{
associatedMasterId = "5C950900-0D0F-4959-81DE-75F048290F1B";
background = {
paths = (
{
closed = 1;
nodes = (
"484 -10 OFFCURVE",
"574 21 OFFCURVE",
"668 75 CURVE",
"632 1 LINE",
"578 276 LINE",
"642 231 LINE",
"557 213 OFFCURVE",
"492 205 OFFCURVE",
"433 205 CURVE SMOOTH",
"305 205 OFFCURVE",
"263 235 OFFCURVE",
"263 354 CURVE SMOOTH",
"263 459 OFFCURVE",
"311 501 OFFCURVE",
"433 501 CURVE SMOOTH",
"496 501 OFFCURVE",
"554 492 OFFCURVE",
"636 473 CURVE",
"574 429 LINE",
"625 707 LINE",
"663 638 LINE",
"571 688 OFFCURVE",
"477 709 OFFCURVE",
"393 709 CURVE SMOOTH",
"190 709 OFFCURVE",
"35 576 OFFCURVE",
"35 351 CURVE SMOOTH",
"35 107 OFFCURVE",
"195 -10 OFFCURVE",
"386 -10 CURVE SMOOTH"
);
}
);
};
layerId = "6285A972-DFB4-4FE1-81D2-2CF20050DF9C";
name = "Mar 11 18, 18:06";
paths = (
{
closed = 1;
nodes = (
"484 -10 OFFCURVE",
"574 21 OFFCURVE",
"668 75 CURVE",
"652 1 LINE",
"598 276 LINE",
"642 231 LINE",
"557 213 OFFCURVE",
"492 205 OFFCURVE",
"433 205 CURVE SMOOTH",
"305 205 OFFCURVE",
"263 235 OFFCURVE",
"263 354 CURVE SMOOTH",
"263 459 OFFCURVE",
"311 501 OFFCURVE",
"433 501 CURVE SMOOTH",
"496 501 OFFCURVE",
"554 492 OFFCURVE",
"636 473 CURVE",
"594 429 LINE",
"645 707 LINE",
"663 638 LINE",
"571 688 OFFCURVE",
"477 709 OFFCURVE",
"393 709 CURVE SMOOTH",
"190 709 OFFCURVE",
"35 576 OFFCURVE",
"35 351 CURVE SMOOTH",
"35 107 OFFCURVE",
"195 -10 OFFCURVE",
"386 -10 CURVE SMOOTH"
);
}
);
width = 665;
},
{
associatedMasterId = "5C950900-0D0F-4959-81DE-75F048290F1B";
background = {
paths = (
{
closed = 1;
nodes = (
"484 -10 OFFCURVE",
"574 21 OFFCURVE",
"668 75 CURVE",
"652 1 LINE",
"598 276 LINE",
"642 231 LINE",
"557 213 OFFCURVE",
"492 205 OFFCURVE",
"433 205 CURVE SMOOTH",
"305 205 OFFCURVE",
"263 235 OFFCURVE",
"263 354 CURVE SMOOTH",
"263 459 OFFCURVE",
"311 501 OFFCURVE",
"433 501 CURVE SMOOTH",
"496 501 OFFCURVE",
"554 492 OFFCURVE",
"636 473 CURVE",
"581 429 LINE",
"632 707 LINE",
"663 638 LINE",
"571 688 OFFCURVE",
"477 709 OFFCURVE",
"393 709 CURVE SMOOTH",
"190 709 OFFCURVE",
"35 576 OFFCURVE",
"35 351 CURVE SMOOTH",
"35 107 OFFCURVE",
"195 -10 OFFCURVE",
"386 -10 CURVE SMOOTH"
);
}
);
};
guideLines = (
{
angle = 90;
position = "{639, 351}";
},
{
angle = 90;
position = "{610, 361}";
}
);
layerId = "EB6E93E2-2B5B-46BD-BBDC-0098E29ACC2B";
name = "Mar 12 18, 17:47";
paths = (
{
closed = 1;
nodes = (
"321 -106 OFFCURVE",
"668 75 CURVE",
"628 1 LINE",
"628 276 LINE",
"692 231 LINE",
"586 213 OFFCURVE",
"506 205 OFFCURVE",
"433 205 CURVE SMOOTH",
"305 205 OFFCURVE",
"263 235 OFFCURVE",
"263 354 CURVE SMOOTH",
"263 458 OFFCURVE",
"314 501 OFFCURVE",
"361 501 CURVE SMOOTH",
"433 501 OFFCURVE",
"594 397 OFFCURVE",
"672 367 CURVE",
"512 334 LINE",
"715 633 LINE",
"771 483 LINE",
"651 569 OFFCURVE",
"519 708 OFFCURVE",
"340 708 CURVE SMOOTH",
"202 708 OFFCURVE",
"35 587 OFFCURVE",
"35 351 CURVE SMOOTH",
"35 12 OFFCURVE"
);
}
);
width = 665;
},
{
associatedMasterId = "5C950900-0D0F-4959-81DE-75F048290F1B";
background = {
paths = (
{
closed = 1;
nodes = (
"191 -5 OFFCURVE",
"435 -5 CURVE SMOOTH",
"535 -5 OFFCURVE",
"653 32 OFFCURVE",
"778 106 CURVE",
"641 -22 LINE",
"641 292 LINE",
"771 251 LINE",
"649 219 OFFCURVE",
"540 197 OFFCURVE",
"459 197 CURVE SMOOTH",
"325 197 OFFCURVE",
"263 227 OFFCURVE",
"263 355 CURVE SMOOTH",
"263 462 OFFCURVE",
"318 503 OFFCURVE",
"392 503 CURVE SMOOTH",
"503 503 OFFCURVE",
"651 415 OFFCURVE",
"721 372 CURVE",
"504 330 LINE",
"712 638 LINE",
"778 480 LINE",
"681 574 OFFCURVE",
"572 709 OFFCURVE",
"377 709 CURVE SMOOTH",
"217 709 OFFCURVE",
"35 594 OFFCURVE",
"35 340 CURVE SMOOTH",
"35 88 OFFCURVE"
);
}
);
};
guideLines = (
{
angle = 90;
position = "{619, 362}";
},
{
angle = 90;
position = "{587, 380}";
}
);
layerId = "EFACE00A-C00A-4DD3-9E64-F7D17A972130";
name = "Mar 31 18, 23:28";
paths = (
{
closed = 1;
nodes = (
"35 88 OFFCURVE",
"191 -5 OFFCURVE",
"414 -5 CURVE SMOOTH",
"531 -5 OFFCURVE",
"678 41 OFFCURVE",
"778 131 CURVE",
"641 -22 LINE",
"641 292 LINE",
"771 235 LINE",
"649 213 OFFCURVE",
"540 197 OFFCURVE",
"459 197 CURVE SMOOTH",
"325 197 OFFCURVE",
"263 227 OFFCURVE",
"263 355 CURVE SMOOTH",
"263 462 OFFCURVE",
"318 503 OFFCURVE",
"392 503 CURVE SMOOTH",
"503 503 OFFCURVE",
"651 415 OFFCURVE",
"721 372 CURVE",
"504 330 LINE",
"712 638 LINE",
"764 480 LINE",
"678 574 OFFCURVE",
"583 709 OFFCURVE",
"401 709 CURVE SMOOTH",
"232 709 OFFCURVE",
"35 598 OFFCURVE",
"35 340 CURVE SMOOTH"
);
}
);
width = 685;
},
{
associatedMasterId = "5C950900-0D0F-4959-81DE-75F048290F1B";
background = {
paths = (
{
closed = 1;
nodes = (
"188 -5 OFFCURVE",
"406 -5 CURVE SMOOTH",
"499 -5 OFFCURVE",
"608 21 OFFCURVE",
"724 72 CURVE",
"641 -22 LINE",
"641 292 LINE",
"771 251 LINE",
"649 219 OFFCURVE",
"540 197 OFFCURVE",
"459 197 CURVE SMOOTH",
"325 197 OFFCURVE",
"263 227 OFFCURVE",
"263 355 CURVE SMOOTH",
"263 462 OFFCURVE",
"318 503 OFFCURVE",
"392 503 CURVE SMOOTH",
"503 503 OFFCURVE",
"651 415 OFFCURVE",
"721 372 CURVE",
"504 330 LINE",
"712 638 LINE",
"788 480 LINE",
"689 574 OFFCURVE",
"577 709 OFFCURVE",
"377 709 CURVE SMOOTH",
"217 709 OFFCURVE",
"35 594 OFFCURVE",
"35 340 CURVE SMOOTH",
"35 96 OFFCURVE"
);
}
);
};
guideLines = (
{
angle = 90;
position = "{619, 362}";
},
{
angle = 90;
position = "{587, 380}";
},
{
angle = 90;
position = "{433, 342}";
}
);
layerId = "DB4D3AC3-6F44-4189-8FD3-377A68E70E21";
name = "Mar 31 18, 23:37";
paths = (
{
closed = 1;
nodes = (
"191 -5 OFFCURVE",
"435 -5 CURVE SMOOTH",
"535 -5 OFFCURVE",
"653 32 OFFCURVE",
"778 106 CURVE",
"641 -22 LINE",
"641 292 LINE",
"771 251 LINE",
"649 219 OFFCURVE",
"540 197 OFFCURVE",
"459 197 CURVE SMOOTH",
"325 197 OFFCURVE",
"263 227 OFFCURVE",
"263 355 CURVE SMOOTH",
"263 462 OFFCURVE",
"318 503 OFFCURVE",
"392 503 CURVE SMOOTH",
"503 503 OFFCURVE",
"651 415 OFFCURVE",
"721 372 CURVE",
"504 330 LINE",
"712 638 LINE",
"778 480 LINE",
"681 574 OFFCURVE",
"572 709 OFFCURVE",
"377 709 CURVE SMOOTH",
"217 709 OFFCURVE",
"35 594 OFFCURVE",
"35 340 CURVE SMOOTH",
"35 88 OFFCURVE"
);
}
);
width = 685;
},
{
anchors = (
{
name = bottom;
position = "{372, -35}";
},
{
name = top.case;
position = "{419, 720}";
}
);
guideLines = (
{
position = "{192, 583}";
},
{
position = "{192, 117}";
}
);
layerId = "514A1583-697A-4C0A-B081-2869E94CF283";
paths = (
{
closed = 1;
nodes = (
"475 -8 OFFCURVE",
"551 7 OFFCURVE",
"619 37 CURVE SMOOTH",
"650 50 LINE",
"625 150 LINE",
"580 138 LINE SMOOTH",
"519 123 OFFCURVE",
"463 113 OFFCURVE",
"413 113 CURVE SMOOTH",
"273 113 OFFCURVE",
"184 189 OFFCURVE",
"184 352 CURVE SMOOTH",
"184 511 OFFCURVE",
"280 589 OFFCURVE",
"419 589 CURVE SMOOTH",
"472 589 OFFCURVE",
"520 578 OFFCURVE",
"580 567 CURVE SMOOTH",
"607 562 LINE",
"632 663 LINE",
"613 671 LINE SMOOTH",
"553 694 OFFCURVE",
"484 710 OFFCURVE",
"412 710 CURVE SMOOTH",
"211 710 OFFCURVE",
"50 582 OFFCURVE",
"50 351 CURVE SMOOTH",
"50 115 OFFCURVE",
"201 -8 OFFCURVE",
"405 -8 CURVE SMOOTH"
);
}
);
width = 680;
},
{
anchors = (
{
name = bottom;
position = "{397, -35}";
},
{
name = top.case;
position = "{441, 720}";
}
);
associatedMasterId = "620D8D18-E43F-4D11-9420-7EF908A5CAE8";
background = {
paths = (
{
closed = 1;
nodes = (
"505 663 OFFCURVE",
"562 653 OFFCURVE",
"614 636 CURVE SMOOTH",
"690 612 LINE",
"648 606 LINE",
"679 683 LINE",
"687 652 LINE",
"633 674 LINE SMOOTH",
"573 699 OFFCURVE",
"506 710 OFFCURVE",
"443 710 CURVE SMOOTH",
"245 710 OFFCURVE",
"80 579 OFFCURVE",
"80 352 CURVE SMOOTH",
"80 127 OFFCURVE",
"238 -6 OFFCURVE",
"442 -6 CURVE SMOOTH",
"505 -6 OFFCURVE",
"572 5 OFFCURVE",
"631 30 CURVE SMOOTH",
"706 61 LINE",
"687 21 LINE",
"655 98 LINE",
"689 91 LINE",
"614 67 LINE SMOOTH",
"563 51 OFFCURVE",
"506 41 OFFCURVE",
"453 41 CURVE SMOOTH",
"269 41 OFFCURVE",
"134 157 OFFCURVE",
"134 352 CURVE SMOOTH",
"134 549 OFFCURVE",
"265 663 OFFCURVE",
"450 663 CURVE SMOOTH"
);
}
);
};
guideLines = (
{
angle = 90;
position = "{607, 236}";
}
);
layerId = "CD2D8B90-944A-47C3-94FF-0ABB14A3E604";
name = "Jun 15 18, 09:49";
paths = (
{
closed = 1;
nodes = (
"502 -10 OFFCURVE",
"575 3 OFFCURVE",
"645 37 CURVE SMOOTH",
"721 74 LINE",
"705 33 LINE",
"668 110 LINE",
"720 104 LINE",
"629 68 LINE SMOOTH",
"562 42 OFFCURVE",
"496 27 OFFCURVE",
"436 27 CURVE SMOOTH",
"255 27 OFFCURVE",
"121 146 OFFCURVE",
"121 351 CURVE SMOOTH",
"121 554 OFFCURVE",
"263 674 OFFCURVE",
"441 674 CURVE SMOOTH",
"500 674 OFFCURVE",
"557 660 OFFCURVE",
"623 635 CURVE SMOOTH",
"669 617 LINE",
"640 589 LINE",
"676 666 LINE",
"689 641 LINE",
"637 666 LINE SMOOTH",
"580 693 OFFCURVE",
"514 710 OFFCURVE",
"439 710 CURVE SMOOTH",
"244 710 OFFCURVE",
"80 577 OFFCURVE",
"80 350 CURVE SMOOTH",
"80 123 OFFCURVE",
"238 -10 OFFCURVE",
"434 -10 CURVE SMOOTH"
);
}
);
width = 741;
},
{
anchors = (
{
name = bottom;
position = "{397, -35}";
},
{
name = top.case;
position = "{441, 720}";
}
);
associatedMasterId = "620D8D18-E43F-4D11-9420-7EF908A5CAE8";
background = {
paths = (
{
closed = 1;
nodes = (
"505 663 OFFCURVE",
"562 653 OFFCURVE",
"614 636 CURVE SMOOTH",
"690 612 LINE",
"648 606 LINE",
"679 683 LINE",
"687 652 LINE",
"633 674 LINE SMOOTH",
"573 699 OFFCURVE",
"506 710 OFFCURVE",
"443 710 CURVE SMOOTH",
"245 710 OFFCURVE",
"80 579 OFFCURVE",
"80 352 CURVE SMOOTH",
"80 127 OFFCURVE",
"238 -6 OFFCURVE",
"442 -6 CURVE SMOOTH",
"505 -6 OFFCURVE",
"572 5 OFFCURVE",
"631 30 CURVE SMOOTH",
"706 61 LINE",
"687 21 LINE",
"655 98 LINE",
"689 91 LINE",
"614 67 LINE SMOOTH",
"563 51 OFFCURVE",
"506 41 OFFCURVE",
"453 41 CURVE SMOOTH",
"269 41 OFFCURVE",
"134 157 OFFCURVE",
"134 352 CURVE SMOOTH",
"134 549 OFFCURVE",
"265 663 OFFCURVE",
"450 663 CURVE SMOOTH"
);
}
);
};
guideLines = (
{
angle = 90;
position = "{607, 236}";
}
);
layerId = "B4E58CF1-C0E9-473D-A0F8-0AD1D92C7DD2";
name = "Jun 15 18, 09:50";
paths = (
{
closed = 1;
nodes = (
"502 -6 OFFCURVE",
"575 7 OFFCURVE",
"645 41 CURVE SMOOTH",
"721 78 LINE",
"705 37 LINE",
"668 114 LINE",
"720 107 LINE",
"629 71 LINE SMOOTH",
"562 45 OFFCURVE",
"496 30 OFFCURVE",
"436 30 CURVE SMOOTH",
"255 30 OFFCURVE",
"121 146 OFFCURVE",
"121 351 CURVE SMOOTH",
"121 554 OFFCURVE",
"263 674 OFFCURVE",
"441 674 CURVE SMOOTH",
"500 674 OFFCURVE",
"557 662 OFFCURVE",
"626 640 CURVE SMOOTH",
"669 627 LINE",
"643 589 LINE",
"673 668 LINE",
"689 650 LINE",
"637 671 LINE SMOOTH",
"580 694 OFFCURVE",
"514 710 OFFCURVE",
"439 710 CURVE SMOOTH",
"244 710 OFFCURVE",
"80 577 OFFCURVE",
"80 350 CURVE SMOOTH",
"80 123 OFFCURVE",
"238 -6 OFFCURVE",
"434 -6 CURVE SMOOTH"
);
}
);
width = 741;
},
{
anchors = (
{
name = bottom;
position = "{373, -35}";
},
{
name = top.case;
position = "{416, 720}";
}
);
associatedMasterId = "514A1583-697A-4C0A-B081-2869E94CF283";
guideLines = (
{
position = "{192, 583}";
},
{
position = "{192, 117}";
}
);
layerId = "09D3C086-328C-42CA-9F9F-31E132AE9EA8";
name = "Dec 11 18, 10:06";
paths = (
{
closed = 1;
nodes = (
"465 -8 OFFCURVE",
"538 9 OFFCURVE",
"608 38 CURVE SMOOTH",
"678 67 LINE",
"662 20 LINE",
"602 195 LINE",
"649 166 LINE",
"572 144 LINE SMOOTH",
"513 127 OFFCURVE",
"460 119 OFFCURVE",
"414 119 CURVE SMOOTH",
"278 119 OFFCURVE",
"193 194 OFFCURVE",
"193 352 CURVE SMOOTH",
"193 506 OFFCURVE",
"285 583 OFFCURVE",
"418 583 CURVE SMOOTH",
"462 583 OFFCURVE",
"510 575 OFFCURVE",
"562 563 CURVE SMOOTH",
"622 549 LINE",
"581 509 LINE",
"638 686 LINE",
"673 648 LINE",
"601 673 LINE SMOOTH",
"535 696 OFFCURVE",
"470 710 OFFCURVE",
"408 710 CURVE SMOOTH",
"213 710 OFFCURVE",
"58 583 OFFCURVE",
"58 352 CURVE SMOOTH",
"58 116 OFFCURVE",
"202 -8 OFFCURVE",
"397 -8 CURVE SMOOTH"
);
}
);
width = 674;
}
);
leftKerningGroup = O;
leftMetricsKey = O;
rightKerningGroup = C;
unicode = 0043;
},
{
color = 4;
glyphname = D;
lastChange = "2021-09-30 22:26:40 +0000";
layers = (
{
anchors = (
{
name = top.case;
position = "{341, 720}";
}
);
background = {
paths = (
{
closed = 1;
nodes = (
"569 -10 OFFCURVE",
"711 140 OFFCURVE",
"711 350 CURVE SMOOTH",
"711 560 OFFCURVE",
"569 710 OFFCURVE",
"368 710 CURVE SMOOTH",
"168 710 OFFCURVE",
"26 560 OFFCURVE",
"26 350 CURVE SMOOTH",
"26 140 OFFCURVE",
"168 -10 OFFCURVE",
"368 -10 CURVE SMOOTH"
);
},
{
closed = 1;
nodes = (
"193 26 OFFCURVE",
"67 163 OFFCURVE",
"67 350 CURVE SMOOTH",
"67 537 OFFCURVE",
"193 674 OFFCURVE",
"368 674 CURVE SMOOTH",
"545 674 OFFCURVE",
"670 537 OFFCURVE",
"670 350 CURVE SMOOTH",
"670 163 OFFCURVE",
"545 26 OFFCURVE",
"368 26 CURVE SMOOTH"
);
}
);
};
layerId = "620D8D18-E43F-4D11-9420-7EF908A5CAE8";
paths = (
{
closed = 1;
nodes = (
"333 0 LINE SMOOTH",
"553 0 OFFCURVE",
"692 135 OFFCURVE",
"692 349 CURVE SMOOTH",
"692 563 OFFCURVE",
"556 700 OFFCURVE",
"343 700 CURVE SMOOTH",
"105 700 LINE",
"105 0 LINE"
);
},
{
closed = 1;
nodes = (
"144 664 LINE",
"340 664 LINE SMOOTH",
"533 664 OFFCURVE",
"651 545 OFFCURVE",
"651 349 CURVE SMOOTH",
"651 158 OFFCURVE",
"530 36 OFFCURVE",
"340 36 CURVE SMOOTH",
"144 36 LINE"
);
}
);
width = 757;
},
{
anchors = (
{
name = top.case;
position = "{343, 720}";
}
);
background = {
paths = (
{
closed = 1;
nodes = (
"331 0 LINE SMOOTH",
"575 0 OFFCURVE",
"727 124 OFFCURVE",
"727 349 CURVE SMOOTH",
"727 589 OFFCURVE",
"570 700 OFFCURVE",
"338 700 CURVE SMOOTH",
"55 700 LINE",
"55 0 LINE"
);
},
{
closed = 1;
nodes = (
"278 499 LINE",
"331 499 LINE SMOOTH",
"457 499 OFFCURVE",
"499 469 OFFCURVE",
"499 349 CURVE SMOOTH",
"499 244 OFFCURVE",
"452 201 OFFCURVE",
"331 201 CURVE SMOOTH",
"278 201 LINE"
);
}
);
};
guideLines = (
{
position = "{597, 349}";
},
{
position = "{278, 505}";
}
);
layerId = "5C950900-0D0F-4959-81DE-75F048290F1B";
paths = (
{
closed = 1;
nodes = (
"331 0 LINE SMOOTH",
"575 0 OFFCURVE",
"727 124 OFFCURVE",
"727 349 CURVE SMOOTH",
"727 589 OFFCURVE",
"570 700 OFFCURVE",
"338 700 CURVE SMOOTH",
"55 700 LINE",
"55 0 LINE"
);
},
{
closed = 1;
nodes = (
"278 505 LINE",
"331 505 LINE SMOOTH",
"457 505 OFFCURVE",
"499 474 OFFCURVE",
"499 349 CURVE SMOOTH",
"499 240 OFFCURVE",
"452 195 OFFCURVE",
"331 195 CURVE SMOOTH",
"278 195 LINE"
);
}
);
width = 762;
},
{
anchors = (
{
name = top.case;
position = "{345, 720}";
}
);
background = {
paths = (
{
closed = 1;
nodes = (
"335 0 LINE SMOOTH",
"567 0 OFFCURVE",
"713 130 OFFCURVE",
"713 349 CURVE SMOOTH",
"713 576 OFFCURVE",
"566 700 OFFCURVE",
"344 700 CURVE SMOOTH",
"83 700 LINE",
"83 0 LINE"
);
},
{
closed = 1;
nodes = (
"214 582 LINE",
"339 582 LINE SMOOTH",
"498 582 OFFCURVE",
"578 507 OFFCURVE",
"578 349 CURVE SMOOTH",
"578 201 OFFCURVE",
"494 119 OFFCURVE",
"339 119 CURVE SMOOTH",
"214 119 LINE"
);
}
);
};
guideLines = (
{
position = "{187, 115}";
},
{
position = "{177, 585}";
}
);
layerId = "514A1583-697A-4C0A-B081-2869E94CF283";
paths = (
{
closed = 1;
nodes = (
"335 0 LINE SMOOTH",
"567 0 OFFCURVE",
"713 130 OFFCURVE",
"713 349 CURVE SMOOTH",
"713 576 OFFCURVE",
"566 700 OFFCURVE",
"344 700 CURVE SMOOTH",
"83 700 LINE",
"83 0 LINE"
);
},
{
closed = 1;
nodes = (
"214 585 LINE",
"340 585 LINE SMOOTH",
"499 585 OFFCURVE",
"579 509 OFFCURVE",
"579 349 CURVE SMOOTH",
"579 199 OFFCURVE",
"495 115 OFFCURVE",
"340 115 CURVE SMOOTH",
"214 115 LINE"
);
}
);
width = 763;
}
);
leftMetricsKey = H;
rightKerningGroup = O;
rightMetricsKey = O;
unicode = 0044;
},
{
color = 3;
glyphname = Eth;
lastChange = "2021-09-30 22:26:40 +0000";
layers = (
{
components = (
{
name = D;
transform = "{1, 0, 0, 1, 60, 0}";
}
);
layerId = "620D8D18-E43F-4D11-9420-7EF908A5CAE8";
paths = (
{
closed = 1;
nodes = (
"437 340 LINE",
"437 376 LINE",
"20 376 LINE",
"20 340 LINE"
);
}
);
width = 817;
},
{
background = {
components = (
{
name = Hbar;
transform = "{1, 0, 0, 1, 0, -216}";
}
);
};
components = (
{
alignment = -1;
name = D;
transform = "{1, 0, 0, 1, 40, 0}";
}
);
layerId = "514A1583-697A-4C0A-B081-2869E94CF283";
paths = (
{
closed = 1;
nodes = (
"433 311 LINE",
"433 400 LINE",
"15 400 LINE",
"15 311 LINE"
);
}
);
width = 803;
},
{
components = (
{
name = D;
transform = "{1, 0, 0, 1, 25, 0}";
}
);
layerId = "5C950900-0D0F-4959-81DE-75F048290F1B";
paths = (
{
closed = 1;
nodes = (
"413 289 LINE",
"413 406 LINE",
"5 406 LINE",
"5 289 LINE"
);
}
);
width = 787;
}
);
leftKerningGroup = Eth;
rightKerningGroup = O;
rightMetricsKey = D;
unicode = 00D0;
},
{
color = 4;
glyphname = E;
lastChange = "2021-09-30 22:26:40 +0000";
layers = (
{
anchors = (
{
name = bottom;
position = "{353, -35}";
},
{
name = ogonek;
position = "{525, 10}";
},
{
name = top.case;
position = "{363, 720}";
}
);
background = {
paths = (
{
closed = 1;
nodes = (
"605 0 LINE",
"605 199 LINE",
"250 199 LINE",
"250 265 LINE",
"558 265 LINE",
"558 437 LINE",
"250 437 LINE",
"250 503 LINE",
"598 503 LINE",
"598 700 LINE",
"27 700 LINE",
"27 0 LINE"
);
}
);
};
layerId = "620D8D18-E43F-4D11-9420-7EF908A5CAE8";
paths = (
{
closed = 1;
nodes = (
"600 0 LINE",
"600 36 LINE",
"144 36 LINE",
"144 340 LINE",
"553 340 LINE",
"553 376 LINE",
"144 376 LINE",
"144 664 LINE",
"593 664 LINE",
"593 700 LINE",
"105 700 LINE",
"105 0 LINE"
);
}
);
width = 655;
},
{
anchors = (
{
name = bottom;
position = "{352, -35}";
},
{
name = ogonek;
position = "{506, 10}";
},
{
name = top.case;
position = "{343, 709}";
}
);
layerId = "5C950900-0D0F-4959-81DE-75F048290F1B";
paths = (
{
closed = 1;
nodes = (
"633 0 LINE",
"633 192 LINE",
"278 192 LINE",
"278 272 LINE",
"586 272 LINE",
"586 437 LINE",
"278 437 LINE",
"278 510 LINE",
"626 510 LINE",
"626 700 LINE",
"55 700 LINE",
"55 0 LINE"
);
}
);
width = 658;
},
{
associatedMasterId = "5C950900-0D0F-4959-81DE-75F048290F1B";
layerId = "C029100F-53A5-40B7-B8CD-78D1425008EC";
name = "Mar 18 18, 12:11";
paths = (
{
closed = 1;
nodes = (
"633 0 LINE",
"633 189 LINE",
"278 189 LINE",
"278 261 LINE",
"586 261 LINE",
"586 442 LINE",
"278 442 LINE",
"278 513 LINE",
"626 513 LINE",
"626 700 LINE",
"55 700 LINE",
"55 0 LINE"
);
}
);
width = 658;
},
{
associatedMasterId = "5C950900-0D0F-4959-81DE-75F048290F1B";
layerId = "76A27239-EDF3-4DD9-9FF4-71574D8B93DB";
name = "Mar 18 18, 12:11";
paths = (
{
closed = 1;
nodes = (
"633 0 LINE",
"633 199 LINE",
"278 199 LINE",
"278 265 LINE",
"586 265 LINE",
"586 437 LINE",
"278 437 LINE",
"278 503 LINE",
"626 503 LINE",
"626 700 LINE",
"55 700 LINE",
"55 0 LINE"
);
}
);
width = 658;
},
{
associatedMasterId = "5C950900-0D0F-4959-81DE-75F048290F1B";
layerId = "965C205E-13F4-4381-ABAD-E2BC2A5A996B";
name = "Mar 18 18, 12:17";
paths = (
{
closed = 1;
nodes = (
"633 0 LINE",
"633 199 LINE",
"278 199 LINE",
"278 285 LINE",
"586 285 LINE",
"586 417 LINE",
"278 417 LINE",
"278 503 LINE",
"626 503 LINE",
"626 700 LINE",
"55 700 LINE",
"55 0 LINE"
);
}
);
width = 658;
},
{
anchors = (
{
name = bottom;
position = "{353, -35}";
},
{
name = ogonek;
position = "{518, 10}";
},
{
name = top.case;
position = "{346, 715}";
}
);
background = {
paths = (
{
closed = 1;
nodes = (
"617 0 LINE",
"617 114 LINE",
"211 114 LINE",
"211 306 LINE",
"570 306 LINE",
"570 407 LINE",
"211 407 LINE",
"211 587 LINE",
"610 587 LINE",
"610 700 LINE",
"80 700 LINE",
"80 0 LINE"
);
}
);
};
layerId = "514A1583-697A-4C0A-B081-2869E94CF283";
paths = (
{
closed = 1;
nodes = (
"615 0 LINE",
"615 115 LINE",
"214 115 LINE",
"214 301 LINE",
"568 301 LINE",
"568 416 LINE",
"214 416 LINE",
"214 585 LINE",
"608 585 LINE",
"608 700 LINE",
"83 700 LINE",
"83 0 LINE"
);
}
);
width = 655;
}
);
leftMetricsKey = H;
rightKerningGroup = E;
unicode = 0045;
},
{
color = 4;
glyphname = F;
lastChange = "2021-09-30 22:26:40 +0000";
layers = (
{
layerId = "620D8D18-E43F-4D11-9420-7EF908A5CAE8";
paths = (
{
closed = 1;
nodes = (
"144 0 LINE",
"144 340 LINE",
"533 340 LINE",
"533 376 LINE",
"144 376 LINE",
"144 664 LINE",
"573 664 LINE",
"573 700 LINE",
"105 700 LINE",
"105 0 LINE"
);
}
);
width = 608;
},
{
layerId = "5C950900-0D0F-4959-81DE-75F048290F1B";
paths = (
{
closed = 1;
nodes = (
"278 0 LINE",
"278 237 LINE",
"574 237 LINE",
"574 402 LINE",
"278 402 LINE",
"278 505 LINE",
"614 505 LINE",
"614 700 LINE",
"55 700 LINE",
"55 0 LINE"
);
}
);
width = 629;
},
{
associatedMasterId = "5C950900-0D0F-4959-81DE-75F048290F1B";
layerId = "514ECB3F-6398-496B-84EA-B37A7EE2764D";
name = "Mar 30 18, 08:49";
paths = (
{
closed = 1;
nodes = (
"278 0 LINE",
"278 232 LINE",
"574 232 LINE",
"574 422 LINE",
"278 422 LINE",
"278 505 LINE",
"370 505 LINE SMOOTH",
"449 505 OFFCURVE",
"614 500 OFFCURVE",
"614 659 CURVE SMOOTH",
"614 700 LINE",
"55 700 LINE",
"55 0 LINE"
);
}
);
width = 629;
},
{
background = {
paths = (
{
closed = 1;
nodes = (
"211 0 LINE",
"211 289 LINE",
"554 289 LINE",
"554 389 LINE",
"211 389 LINE",
"211 585 LINE",
"594 585 LINE",
"594 700 LINE",
"80 700 LINE",
"80 0 LINE"
);
}
);
};
layerId = "514A1583-697A-4C0A-B081-2869E94CF283";
paths = (
{
closed = 1;
nodes = (
"214 0 LINE",
"214 290 LINE",
"551 290 LINE",
"551 405 LINE",
"214 405 LINE",
"214 585 LINE",
"591 585 LINE",
"591 700 LINE",
"83 700 LINE",
"83 0 LINE"
);
}
);
width = 619;
}
);
leftMetricsKey = H;
unicode = 0046;
},
{
color = 4;
glyphname = G;
lastChange = "2021-09-30 22:26:40 +0000";
layers = (
{
anchors = (
{
name = bottom;
position = "{466, -35}";
},
{
name = top.case;
position = "{453, 720}";
}
);
background = {
paths = (
{
closed = 1;
nodes = (
"567 -10 OFFCURVE",
"644 8 OFFCURVE",
"720 38 CURVE",
"720 343 LINE",
"415 343 LINE",
"415 307 LINE",
"681 307 LINE",
"681 31 LINE",
"690 62 LINE",
"627 40 OFFCURVE",
"552 26 OFFCURVE",
"492 26 CURVE SMOOTH",
"254 26 OFFCURVE",
"111 148 OFFCURVE",
"111 351 CURVE SMOOTH",
"111 559 OFFCURVE",
"264 674 OFFCURVE",
"458 674 CURVE SMOOTH",
"511 674 OFFCURVE",
"567 666 OFFCURVE",
"624 648 CURVE SMOOTH",
"677 631 LINE",
"654 619 LINE",
"675 689 LINE",
"684 663 LINE",
"642 678 LINE SMOOTH",
"581 700 OFFCURVE",
"518 710 OFFCURVE",
"458 710 CURVE SMOOTH",
"245 710 OFFCURVE",
"70 583 OFFCURVE",
"70 352 CURVE SMOOTH",
"70 119 OFFCURVE",
"228 -10 OFFCURVE",
"495 -10 CURVE SMOOTH"
);
}
);
};
guideLines = (
{
angle = 90;
position = "{673, 137}";
}
);
layerId = "620D8D18-E43F-4D11-9420-7EF908A5CAE8";
paths = (
{
closed = 1;
nodes = (
"562 -10 OFFCURVE",
"639 8 OFFCURVE",
"715 38 CURVE",
"715 343 LINE",
"410 343 LINE",
"410 307 LINE",
"676 307 LINE",
"676 59 LINE",
"615 39 OFFCURVE",
"544 26 OFFCURVE",
"487 26 CURVE SMOOTH",
"249 26 OFFCURVE",
"106 148 OFFCURVE",
"106 351 CURVE SMOOTH",
"106 559 OFFCURVE",
"259 674 OFFCURVE",
"453 674 CURVE SMOOTH",
"506 674 OFFCURVE",
"562 666 OFFCURVE",
"619 648 CURVE SMOOTH",
"654 637 LINE",
"664 669 LINE",
"632 680 LINE SMOOTH",
"576 700 OFFCURVE",
"513 710 OFFCURVE",
"453 710 CURVE SMOOTH",
"240 710 OFFCURVE",
"65 583 OFFCURVE",
"65 352 CURVE SMOOTH",
"65 119 OFFCURVE",
"223 -10 OFFCURVE",
"490 -10 CURVE SMOOTH"
);
}
);
width = 800;
},
{
anchors = (
{
name = bottom;
position = "{415, -35}";
},
{
name = top.case;
position = "{416, 720}";
}
);
background = {
paths = (
{
closed = 1;
nodes = (
"526 -9 OFFCURVE",
"642 25 OFFCURVE",
"709 69 CURVE",
"709 404 LINE",
"371 404 LINE",
"371 255 LINE",
"524 255 LINE",
"524 154 LINE",
"547 198 LINE",
"502 187 OFFCURVE",
"464 184 OFFCURVE",
"424 184 CURVE SMOOTH",
"318 184 OFFCURVE",
"263 226 OFFCURVE",
"263 348 CURVE SMOOTH",
"263 467 OFFCURVE",
"324 505 OFFCURVE",
"434 505 CURVE SMOOTH",
"476 505 OFFCURVE",
"525 500 OFFCURVE",
"581 491 CURVE SMOOTH",
"672 477 LINE",
"610 429 LINE",
"667 707 LINE",
"737 624 LINE",
"625 669 LINE SMOOTH",
"560 695 OFFCURVE",
"493 709 OFFCURVE",
"426 709 CURVE SMOOTH",
"206 709 OFFCURVE",
"35 586 OFFCURVE",
"35 350 CURVE SMOOTH",
"35 133 OFFCURVE",
"175 -9 OFFCURVE",
"415 -9 CURVE SMOOTH"
);
}
);
};
guideLines = (
{
position = "{434, 514}";
}
);
layerId = "5C950900-0D0F-4959-81DE-75F048290F1B";
paths = (
{
closed = 1;
nodes = (
"526 -9 OFFCURVE",
"642 25 OFFCURVE",
"709 69 CURVE",
"709 404 LINE",
"371 404 LINE",
"371 255 LINE",
"524 255 LINE",
"524 193 LINE",
"489 186 OFFCURVE",
"457 184 OFFCURVE",
"424 184 CURVE SMOOTH",
"318 184 OFFCURVE",
"263 226 OFFCURVE",
"263 348 CURVE SMOOTH",
"263 474 OFFCURVE",
"324 514 OFFCURVE",
"434 514 CURVE SMOOTH",
"476 514 OFFCURVE",
"525 509 OFFCURVE",
"581 499 CURVE SMOOTH",
"623 492 LINE",
"657 656 LINE",
"625 669 LINE SMOOTH",
"560 695 OFFCURVE",
"493 709 OFFCURVE",
"426 709 CURVE SMOOTH",
"206 709 OFFCURVE",
"35 586 OFFCURVE",
"35 350 CURVE SMOOTH",
"35 133 OFFCURVE",
"175 -9 OFFCURVE",
"415 -9 CURVE SMOOTH"
);
}
);
width = 739;
},
{
anchors = (
{
name = bottom;
position = "{441, -35}";
},
{
name = top.case;
position = "{441, 720}";
}
);
background = {
paths = (
{
closed = 1;
nodes = (
"550 -10 OFFCURVE",
"642 17 OFFCURVE",
"712 54 CURVE",
"712 392 LINE",
"402 392 LINE",
"402 283 LINE",
"589 283 LINE",
"589 93 LINE",
"620 140 LINE",
"568 125 OFFCURVE",
"514 116 OFFCURVE",
"466 116 CURVE SMOOTH",
"303 116 OFFCURVE",
"209 195 OFFCURVE",
"209 352 CURVE SMOOTH",
"209 510 OFFCURVE",
"311 584 OFFCURVE",
"455 584 CURVE SMOOTH",
"501 584 OFFCURVE",
"550 577 OFFCURVE",
"605 564 CURVE SMOOTH",
"673 548 LINE",
"624 523 LINE",
"673 695 LINE",
"708 644 LINE",
"634 674 LINE SMOOTH",
"573 699 OFFCURVE",
"511 710 OFFCURVE",
"449 710 CURVE SMOOTH",
"242 710 OFFCURVE",
"75 586 OFFCURVE",
"75 351 CURVE SMOOTH",
"75 128 OFFCURVE",
"217 -10 OFFCURVE",
"462 -10 CURVE SMOOTH"
);
}
);
};
guideLines = (
{
position = "{299, 584}";
},
{
position = "{291, 116}";
}
);
layerId = "514A1583-697A-4C0A-B081-2869E94CF283";
paths = (
{
closed = 1;
nodes = (
"544 -10 OFFCURVE",
"641 17 OFFCURVE",
"712 54 CURVE",
"712 396 LINE",
"391 396 LINE",
"391 281 LINE",
"581 281 LINE",
"581 121 LINE",
"538 110 OFFCURVE",
"495 105 OFFCURVE",
"456 105 CURVE SMOOTH",
"284 105 OFFCURVE",
"184 187 OFFCURVE",
"184 350 CURVE SMOOTH",
"184 513 OFFCURVE",
"292 589 OFFCURVE",
"444 589 CURVE SMOOTH",
"491 589 OFFCURVE",
"544 581 OFFCURVE",
"600 569 CURVE SMOOTH",
"638 561 LINE",
"661 662 LINE",
"629 675 LINE SMOOTH",
"568 698 OFFCURVE",
"503 710 OFFCURVE",
"440 710 CURVE SMOOTH",
"223 710 OFFCURVE",
"50 585 OFFCURVE",
"50 351 CURVE SMOOTH",
"50 126 OFFCURVE",
"199 -10 OFFCURVE",
"453 -10 CURVE SMOOTH"
);
}
);
width = 770;
}
);
leftKerningGroup = O;
leftMetricsKey = O;
rightKerningGroup = G;
unicode = 0047;
},
{
color = 4;
glyphname = H;
lastChange = "2021-09-30 22:26:40 +0000";
layers = (
{
anchors = (
{
name = top.case;
position = "{380, 720}";
}
);
layerId = "620D8D18-E43F-4D11-9420-7EF908A5CAE8";
paths = (
{
closed = 1;
nodes = (
"144 0 LINE",
"144 346 LINE",
"616 346 LINE",
"616 0 LINE",
"655 0 LINE",
"655 700 LINE",
"616 700 LINE",
"616 382 LINE",
"144 382 LINE",
"144 700 LINE",
"105 700 LINE",
"105 0 LINE"
);
}
);
width = 760;
},
{
anchors = (
{
name = top.case;
position = "{395, 720}";
}
);
background = {
paths = (
{
closed = 1;
nodes = (
"598 -9 OFFCURVE",
"736 106 OFFCURVE",
"736 286 CURVE SMOOTH",
"736 700 LINE",
"520 700 LINE",
"520 316 LINE SMOOTH",
"520 224 OFFCURVE",
"478 199 OFFCURVE",
"401 199 CURVE SMOOTH",
"322 199 OFFCURVE",
"279 224 OFFCURVE",
"279 316 CURVE SMOOTH",
"279 700 LINE",
"55 700 LINE",
"55 286 LINE SMOOTH",
"55 106 OFFCURVE",
"181 -9 OFFCURVE",
"394 -9 CURVE SMOOTH"
);
}
);
};
layerId = "5C950900-0D0F-4959-81DE-75F048290F1B";
paths = (
{
closed = 1;
nodes = (
"278 0 LINE",
"278 258 LINE",
"513 258 LINE",
"513 0 LINE",
"736 0 LINE",
"736 700 LINE",
"513 700 LINE",
"513 453 LINE",
"278 453 LINE",
"278 700 LINE",
"55 700 LINE",
"55 0 LINE"
);
}
);
width = 791;
},
{
anchors = (
{
name = top.case;
position = "{390, 720}";
}
);
background = {
paths = (
{
closed = 1;
nodes = (
"211 0 LINE",
"211 302 LINE",
"565 302 LINE",
"565 0 LINE",
"696 0 LINE",
"696 700 LINE",
"565 700 LINE",
"565 418 LINE",
"211 418 LINE",
"211 700 LINE",
"80 700 LINE",
"80 0 LINE"
);
}
);
};
layerId = "514A1583-697A-4C0A-B081-2869E94CF283";
paths = (
{
closed = 1;
nodes = (
"214 0 LINE",
"214 303 LINE",
"567 303 LINE",
"567 0 LINE",
"698 0 LINE",
"698 700 LINE",
"567 700 LINE",
"567 418 LINE",
"214 418 LINE",
"214 700 LINE",
"83 700 LINE",
"83 0 LINE"
);
}
);
width = 781;
}
);
unicode = 0048;
},
{
color = 3;
glyphname = Hbar;
lastChange = "2021-09-30 22:26:40 +0000";
layers = (
{
components = (
{
name = H;
transform = "{1, 0, 0, 1, 25, 0}";
}
);
layerId = "620D8D18-E43F-4D11-9420-7EF908A5CAE8";
paths = (
{
closed = 1;
nodes = (
"805 520 LINE",
"805 552 LINE",
"5 552 LINE",
"5 520 LINE"
);
}
);
width = 810;
},
{
components = (
{
alignment = -1;
name = H;
transform = "{1, 0, 0, 1, 14, 0}";
}
);
layerId = "514A1583-697A-4C0A-B081-2869E94CF283";
paths = (
{
closed = 1;
nodes = (
"800 529 LINE",
"800 617 LINE",
"8 617 LINE",
"8 529 LINE"
);
}
);
width = 808;
},
{
components = (
{
name = H;
transform = "{1, 0, 0, 1, 17, 0}";
}
);
layerId = "5C950900-0D0F-4959-81DE-75F048290F1B";
paths = (
{
closed = 1;
nodes = (
"820 527 LINE",
"820 635 LINE",
"5 635 LINE",
"5 527 LINE"
);
}
);
width = 825;
}
);
unicode = 0126;
},
{
color = 4;
glyphname = I;
lastChange = "2021-09-30 23:32:25 +0000";
layers = (
{
anchors = (
{
name = bottom;
position = "{125, -35}";
},
{
name = ogonek;
position = "{84, 10}";
},
{
name = top.case;
position = "{125, 720}";
}
);
layerId = "620D8D18-E43F-4D11-9420-7EF908A5CAE8";
paths = (
{
closed = 1;
nodes = (
"144 0 LINE",
"144 700 LINE",
"105 700 LINE",
"105 0 LINE"
);
}
);
width = 249;
},
{
anchors = (
{
name = bottom;
position = "{166, -35}";
},
{
name = ogonek;
position = "{149, 10}";
},
{
name = top.case;
position = "{167, 720}";
}
);
layerId = "5C950900-0D0F-4959-81DE-75F048290F1B";
paths = (
{
closed = 1;
nodes = (
"278 0 LINE",
"278 700 LINE",
"55 700 LINE",
"55 0 LINE"
);
}
);
width = 333;
},
{
anchors = (
{
name = bottom;
position = "{149, -35}";
},
{
name = ogonek;
position = "{119, 10}";
},
{
name = top.case;
position = "{149, 720}";
}
);
layerId = "514A1583-697A-4C0A-B081-2869E94CF283";
paths = (
{
closed = 1;
nodes = (
"214 0 LINE",
"214 700 LINE",
"83 700 LINE",
"83 0 LINE"
);
}
);
width = 297;
}
);
leftMetricsKey = H;
rightMetricsKey = H;
unicode = 0049;
},
{
glyphname = Ihookabove;
lastChange = "2021-09-30 23:32:26 +0000";
layers = (
{
components = (
{
name = I;
},
{
name = hookabovecomb.case;
transform = "{1, 0, 0, 1, 125, 0}";
}
);
layerId = "620D8D18-E43F-4D11-9420-7EF908A5CAE8";
width = 249;
},
{
components = (
{
name = I;
},
{
name = hookabovecomb.case;
transform = "{1, 0, 0, 1, 159, 0}";
}
);
layerId = "514A1583-697A-4C0A-B081-2869E94CF283";
width = 297;
},
{
background = {
paths = (
{
closed = 1;
nodes = (
"71 748 LINE",
"245 695 LINE",
"182 683 LINE",
"195 720 OFFCURVE",
"203 734 OFFCURVE",
"222 743 CURVE SMOOTH",
"257 759 LINE SMOOTH",
"310 783 OFFCURVE",
"347 816 OFFCURVE",
"347 877 CURVE SMOOTH",
"347 941 OFFCURVE",
"288 992 OFFCURVE",
"172 992 CURVE SMOOTH",
"133 992 OFFCURVE",
"87 987 OFFCURVE",
"50 975 CURVE SMOOTH",
"-12 955 LINE",
"24 986 LINE",
"63 846 LINE",
"26 875 LINE",
"96 883 LINE SMOOTH",
"121 886 OFFCURVE",
"142 886 OFFCURVE",
"158 886 CURVE SMOOTH",
"204 886 OFFCURVE",
"213 880 OFFCURVE",
"213 869 CURVE SMOOTH",
"213 862 OFFCURVE",
"208 857 OFFCURVE",
"195 850 CURVE SMOOTH",
"153 828 LINE SMOOTH",
"111 806 OFFCURVE",
"93 761 OFFCURVE",
"103 722 CURVE"
);
}
);
};
components = (
{
name = I;
},
{
name = hookabovecomb.case;
transform = "{1, 0, 0, 1, 187, 0}";
}
);
layerId = "5C950900-0D0F-4959-81DE-75F048290F1B";
width = 333;
}
);
unicode = 1EC8;
},
{
color = 4;
glyphname = J;
lastChange = "2021-09-30 22:26:40 +0000";
layers = (
{
anchors = (
{
name = top.case;
position = "{394, 720}";
}
);
background = {
paths = (
{
closed = 1;
nodes = (
"343 -10 OFFCURVE",
"418 49 OFFCURVE",
"418 198 CURVE SMOOTH",
"418 700 LINE",
"379 700 LINE",
"379 196 LINE SMOOTH",
"379 70 OFFCURVE",
"315 26 OFFCURVE",
"199 26 CURVE SMOOTH",
"144 26 OFFCURVE",
"111 31 OFFCURVE",
"76 38 CURVE SMOOTH",
"29 48 LINE",
"54 63 LINE",
"37 0 LINE",
"25 19 LINE",
"60 10 LINE SMOOTH",
"123 -6 OFFCURVE",
"162 -10 OFFCURVE",
"202 -10 CURVE SMOOTH"
);
}
);
};
layerId = "620D8D18-E43F-4D11-9420-7EF908A5CAE8";
paths = (
{
closed = 1;
nodes = (
"338 -10 OFFCURVE",
"413 49 OFFCURVE",
"413 198 CURVE SMOOTH",
"413 700 LINE",
"374 700 LINE",
"374 196 LINE SMOOTH",
"374 70 OFFCURVE",
"310 26 OFFCURVE",
"194 26 CURVE SMOOTH",
"139 26 OFFCURVE",
"106 31 OFFCURVE",
"71 38 CURVE SMOOTH",
"44 44 LINE",
"36 14 LINE",
"65 7 LINE SMOOTH",
"117 -5 OFFCURVE",
"157 -10 OFFCURVE",
"197 -10 CURVE SMOOTH"
);
}
);
width = 503;
},
{
anchors = (
{
name = top.case;
position = "{420, 720}";
}
);
background = {
paths = (
{
closed = 1;
nodes = (
"427 -9 OFFCURVE",
"533 87 OFFCURVE",
"533 264 CURVE SMOOTH",
"533 700 LINE",
"310 700 LINE",
"310 265 LINE SMOOTH",
"310 223 OFFCURVE",
"281 196 OFFCURVE",
"232 196 CURVE SMOOTH",
"204 196 OFFCURVE",
"176 196 OFFCURVE",
"141 201 CURVE SMOOTH",
"53 213 LINE",
"98 279 LINE",
"33 -14 LINE",
"0 48 LINE",
"80 22 LINE SMOOTH",
"143 1 OFFCURVE",
"196 -9 OFFCURVE",
"248 -9 CURVE SMOOTH"
);
}
);
};
layerId = "5C950900-0D0F-4959-81DE-75F048290F1B";
paths = (
{
closed = 1;
nodes = (
"422 -9 OFFCURVE",
"533 87 OFFCURVE",
"533 264 CURVE SMOOTH",
"533 700 LINE",
"310 700 LINE",
"310 265 LINE SMOOTH",
"310 223 OFFCURVE",
"279 196 OFFCURVE",
"226 196 CURVE SMOOTH",
"196 196 OFFCURVE",
"165 196 OFFCURVE",
"128 201 CURVE SMOOTH",
"64 209 LINE",
"20 35 LINE",
"60 22 LINE SMOOTH",
"126 1 OFFCURVE",
"181 -9 OFFCURVE",
"236 -9 CURVE SMOOTH"
);
}
);
width = 573;
},
{
anchors = (
{
name = top.case;
position = "{412, 720}";
}
);
background = {
paths = (
{
closed = 1;
nodes = (
"380 -10 OFFCURVE",
"473 68 OFFCURVE",
"473 231 CURVE SMOOTH",
"473 700 LINE",
"342 700 LINE",
"342 231 LINE SMOOTH",
"342 147 OFFCURVE",
"295 111 OFFCURVE",
"210 111 CURVE SMOOTH",
"168 111 OFFCURVE",
"136 114 OFFCURVE",
"100 120 CURVE SMOOTH",
"29 131 LINE",
"65 171 LINE",
"22 0 LINE",
"-2 33 LINE",
"63 15 LINE SMOOTH",
"122 -2 OFFCURVE",
"169 -10 OFFCURVE",
"217 -10 CURVE SMOOTH"
);
}
);
};
layerId = "514A1583-697A-4C0A-B081-2869E94CF283";
paths = (
{
closed = 1;
nodes = (
"383 -10 OFFCURVE",
"476 68 OFFCURVE",
"476 231 CURVE SMOOTH",
"476 700 LINE",
"345 700 LINE",
"345 231 LINE SMOOTH",
"345 147 OFFCURVE",
"297 111 OFFCURVE",
"213 111 CURVE SMOOTH",
"170 111 OFFCURVE",
"138 114 OFFCURVE",
"91 119 CURVE SMOOTH",
"55 123 LINE",
"30 25 LINE",
"67 14 LINE SMOOTH",
"125 -3 OFFCURVE",
"172 -10 OFFCURVE",
"219 -10 CURVE SMOOTH"
);
}
);
width = 539;
}
);
leftKerningGroup = J;
rightKerningGroup = U;
rightMetricsKey = U;
unicode = 004A;
},
{
glyphname = K;
lastChange = "2021-09-30 22:26:40 +0000";
layers = (
{
anchors = (
{
name = bottom;
position = "{360, -35}";
}
);
background = {
paths = (
{
closed = 1;
nodes = (
"613 0 LINE",
"389 372 LINE",
"596 700 LINE",
"355 700 LINE",
"202 460 LINE",
"92 460 LINE",
"49 256 LINE",
"202 256 LINE",
"354 0 LINE"
);
},
{
closed = 1;
nodes = (
"163 0 LINE",
"163 700 LINE",
"-60 700 LINE",
"-60 0 LINE"
);
}
);
};
layerId = "620D8D18-E43F-4D11-9420-7EF908A5CAE8";
paths = (
{
closed = 1;
nodes = (
"597 0 LINE",
"277 341 LINE",
"580 700 LINE",
"532 700 LINE",
"244 355 LINE",
"133 355 LINE",
"133 319 LINE",
"244 319 LINE",
"548 0 LINE"
);
},
{
closed = 1;
nodes = (
"144 0 LINE",
"144 700 LINE",
"105 700 LINE",
"105 0 LINE"
);
}
);
width = 612;
},
{
anchors = (
{
name = bottom;
position = "{375, -35}";
}
);
background = {
paths = (
{
closed = 1;
nodes = (
"728 0 LINE",
"504 372 LINE",
"711 700 LINE",
"470 700 LINE",
"309 437 LINE",
"203 437 LINE",
"203 272 LINE",
"309 272 LINE",
"469 0 LINE"
);
},
{
closed = 1;
nodes = (
"278 0 LINE",
"278 700 LINE",
"55 700 LINE",
"55 0 LINE"
);
}
);
};
layerId = "5C950900-0D0F-4959-81DE-75F048290F1B";
paths = (
{
closed = 1;
nodes = (
"728 0 LINE",
"499 365 LINE",
"711 700 LINE",
"482 700 LINE",
"319 437 LINE",
"203 437 LINE",
"203 272 LINE",
"315 272 LINE",
"472 0 LINE"
);
},
{
closed = 1;
nodes = (
"278 0 LINE",
"278 700 LINE",
"55 700 LINE",
"55 0 LINE"
);
}
);
width = 738;
},
{
anchors = (
{
name = bottom;
position = "{370, -35}";
}
);
background = {
paths = (
{
closed = 1;
nodes = (
"663 0 LINE",
"388 353 LINE",
"646 700 LINE",
"507 700 LINE",
"282 396 LINE",
"168 396 LINE",
"168 296 LINE",
"280 296 LINE",
"510 0 LINE"
);
},
{
closed = 1;
nodes = (
"211 0 LINE",
"211 700 LINE",
"80 700 LINE",
"80 0 LINE"
);
}
);
};
layerId = "514A1583-697A-4C0A-B081-2869E94CF283";
paths = (
{
closed = 1;
nodes = (
"665 0 LINE",
"393 357 LINE",
"648 700 LINE",
"490 700 LINE",
"275 406 LINE",
"173 406 LINE",
"151 291 LINE",
"283 291 LINE",
"498 0 LINE"
);
},
{
closed = 1;
nodes = (
"214 0 LINE",
"214 700 LINE",
"83 700 LINE",
"83 0 LINE"
);
}
);
width = 683;
},
{
anchors = (
{
name = bottom;
position = "{375, -35}";
}
);
associatedMasterId = "5C950900-0D0F-4959-81DE-75F048290F1B";
background = {
paths = (
{
closed = 1;
nodes = (
"278 700 LINE",
"55 700 LINE",
"55 0 LINE",
"278 0 LINE"
);
},
{
closed = 1;
nodes = (
"207 439 LINE",
"164 266 LINE",
"317 266 LINE",
"479 0 LINE",
"738 0 LINE",
"514 367 LINE",
"721 700 LINE",
"480 700 LINE",
"317 439 LINE"
);
}
);
};
guideLines = (
{
angle = 90;
position = "{317, 358}";
}
);
layerId = "AEEF3FB4-A4C1-4D10-9E66-673114164009";
name = "Apr 25 18, 15:59";
paths = (
{
closed = 1;
nodes = (
"278 700 LINE",
"55 700 LINE",
"55 0 LINE",
"278 0 LINE"
);
},
{
closed = 1;
nodes = (
"207 460 LINE",
"164 256 LINE",
"327 256 LINE",
"479 0 LINE",
"738 0 LINE",
"514 372 LINE",
"721 700 LINE",
"480 700 LINE",
"327 460 LINE"
);
}
);
width = 748;
},
{
anchors = (
{
name = bottom;
position = "{375, -35}";
}
);
associatedMasterId = "5C950900-0D0F-4959-81DE-75F048290F1B";
background = {
paths = (
{
closed = 1;
nodes = (
"469 0 LINE",
"728 0 LINE",
"474 397 LINE",
"711 700 LINE",
"470 700 LINE",
"278 457 LINE",
"278 700 LINE",
"55 700 LINE",
"55 0 LINE",
"278 0 LINE",
"278 173 LINE",
"320 226 LINE"
);
}
);
};
layerId = "F7930633-DA96-426E-BD48-376A075FDD4D";
name = "May 9 18, 08:26";
paths = (
{
closed = 1;
nodes = (
"469 0 LINE",
"728 0 LINE",
"474 397 LINE",
"711 700 LINE",
"470 700 LINE",
"278 457 LINE",
"278 700 LINE",
"55 700 LINE",
"55 0 LINE",
"278 0 LINE",
"278 173 LINE",
"320 226 LINE"
);
}
);
width = 748;
},
{
anchors = (
{
name = bottom;
position = "{365, -35}";
}
);
associatedMasterId = "620D8D18-E43F-4D11-9420-7EF908A5CAE8";
background = {
paths = (
{
closed = 1;
nodes = (
"598 0 LINE",
"642 0 LINE",
"355 395 LINE",
"600 700 LINE",
"554 700 LINE",
"149 195 LINE",
"149 700 LINE",
"110 700 LINE",
"110 0 LINE",
"149 0 LINE",
"149 139 LINE",
"331 363 LINE"
);
}
);
};
layerId = "64D8A96F-C693-4579-B842-092C0A862AAF";
name = "May 9 18, 22:07";
paths = (
{
closed = 1;
nodes = (
"598 0 LINE",
"642 0 LINE",
"355 395 LINE",
"600 700 LINE",
"554 700 LINE",
"149 195 LINE",
"149 700 LINE",
"110 700 LINE",
"110 0 LINE",
"149 0 LINE",
"149 139 LINE",
"331 363 LINE"
);
}
);
width = 662;
}
);
leftMetricsKey = H;
rightKerningGroup = K;
unicode = 004B;
},
{
color = 4;
glyphname = L;
lastChange = "2021-09-30 22:26:40 +0000";
layers = (
{
anchors = (
{
name = bottom;
position = "{350, -35}";
},
{
name = caron;
position = "{389, 413}";
},
{
name = top.case;
position = "{125, 720}";
}
);
layerId = "620D8D18-E43F-4D11-9420-7EF908A5CAE8";
paths = (
{
closed = 1;
nodes = (
"570 0 LINE",
"570 36 LINE",
"144 36 LINE",
"144 700 LINE",
"105 700 LINE",
"105 0 LINE"
);
}
);
width = 600;
},
{
anchors = (
{
name = bottom;
position = "{345, -35}";
},
{
name = caron;
position = "{514, 413}";
},
{
name = top.case;
position = "{167, 720}";
}
);
layerId = "5C950900-0D0F-4959-81DE-75F048290F1B";
paths = (
{
closed = 1;
nodes = (
"599 0 LINE",
"599 195 LINE",
"278 195 LINE",
"278 700 LINE",
"55 700 LINE",
"55 0 LINE"
);
}
);
width = 614;
},
{
anchors = (
{
name = bottom;
position = "{350, -35}";
},
{
name = caron;
position = "{434, 413}";
},
{
name = top.case;
position = "{149, 720}";
}
);
background = {
paths = (
{
closed = 1;
nodes = (
"585 0 LINE",
"585 121 LINE",
"211 121 LINE",
"211 700 LINE",
"80 700 LINE",
"80 0 LINE"
);
}
);
};
layerId = "514A1583-697A-4C0A-B081-2869E94CF283";
paths = (
{
closed = 1;
nodes = (
"583 0 LINE",
"583 115 LINE",
"214 115 LINE",
"214 700 LINE",
"83 700 LINE",
"83 0 LINE"
);
}
);
width = 607;
},
{
anchors = (
{
name = bottom;
position = "{350, -35}";
},
{
name = caron;
position = "{434, 413}";
},
{
name = top.case;
position = "{149, 720}";
}
);
associatedMasterId = "514A1583-697A-4C0A-B081-2869E94CF283";
background = {
paths = (
{
closed = 1;
nodes = (
"568 0 LINE",
"568 124 LINE",
"209 124 LINE",
"209 700 LINE",
"83 700 LINE",
"83 0 LINE"
);
}
);
};
layerId = "4C632D53-325F-4F81-934A-303ED98B6874";
name = "Jun 28 18, 08:47";
paths = (
{
closed = 1;
nodes = (
"548 0 LINE",
"568 124 LINE",
"214 124 LINE",
"214 700 LINE",
"83 700 LINE",
"83 0 LINE"
);
}
);
width = 592;
}
);
leftMetricsKey = H;
rightKerningGroup = L;
unicode = 004C;
},
{
color = 3;
glyphname = Lslash;
lastChange = "2021-09-30 22:26:40 +0000";
layers = (
{
background = {
paths = (
{
closed = 1;
nodes = (
"431 358 LINE",
"418 393 LINE",
"181 311 LINE",
"181 270 LINE"
);
},
{
closed = 1;
nodes = (
"181 274 LINE",
"181 315 LINE",
"30 262 LINE",
"43 226 LINE"
);
}
);
};
components = (
{
name = L;
transform = "{1, 0, 0, 1, 60, 0}";
}
);
layerId = "620D8D18-E43F-4D11-9420-7EF908A5CAE8";
paths = (
{
closed = 1;
nodes = (
"430 362 LINE",
"418 393 LINE",
"181 311 LINE",
"180 274 LINE"
);
},
{
closed = 1;
nodes = (
"180 278 LINE",
"181 315 LINE",
"30 262 LINE",
"42 230 LINE"
);
}
);
width = 660;
},
{
background = {
paths = (
{
closed = 1;
nodes = (
"487 388 LINE",
"456 459 LINE",
"18 281 LINE",
"49 209 LINE"
);
}
);
};
components = (
{
alignment = -1;
name = L;
transform = "{1, 0, 0, 1, 59, 0}";
}
);
layerId = "514A1583-697A-4C0A-B081-2869E94CF283";
paths = (
{
closed = 1;
nodes = (
"487 388 LINE",
"452 468 LINE",
"217 373 LINE",
"217 278 LINE"
);
},
{
closed = 1;
nodes = (
"217 288 LINE",
"217 383 LINE",
"14 300 LINE",
"49 219 LINE"
);
}
);
width = 666;
},
{
background = {
paths = (
{
closed = 1;
nodes = (
"549 417 LINE",
"500 524 LINE",
"279 424 LINE",
"279 295 LINE"
);
},
{
closed = 1;
nodes = (
"279 310 LINE",
"279 439 LINE",
"11 319 LINE",
"60 211 LINE"
);
}
);
};
components = (
{
name = L;
transform = "{1, 0, 0, 1, 64, 0}";
}
);
layerId = "5C950900-0D0F-4959-81DE-75F048290F1B";
paths = (
{
closed = 1;
nodes = (
"549 418 LINE",
"500 525 LINE",
"279 424 LINE",
"279 295 LINE"
);
},
{
closed = 1;
nodes = (
"279 310 LINE",
"279 439 LINE",
"-2 313 LINE",
"47 205 LINE"
);
}
);
width = 678;
}
);
rightKerningGroup = L;
rightMetricsKey = L;
unicode = 0141;
},
{
glyphname = M;
lastChange = "2021-09-30 22:26:40 +0000";
layers = (
{
background = {
paths = (
{
closed = 1;
nodes = (
"273 0 LINE",
"273 340 LINE",
"386 154 LINE",
"534 154 LINE",
"647 340 LINE",
"647 0 LINE",
"865 0 LINE",
"865 700 LINE",
"655 700 LINE",
"461 380 LINE",
"459 380 LINE",
"265 700 LINE",
"55 700 LINE",
"55 0 LINE"
);
},
{
closed = 1;
nodes = (
"819 672 LINE",
"787 695 LINE",
"381 125 LINE",
"412 103 LINE"
);
}
);
};
guideLines = (
{
angle = 270;
position = "{458, 237}";
},
{
position = "{64, 633}";
}
);
layerId = "620D8D18-E43F-4D11-9420-7EF908A5CAE8";
paths = (
{
closed = 1;
nodes = (
"144 0 LINE",
"144 628 LINE",
"452 198 LINE",
"475 198 LINE",
"789 634 LINE",
"789 0 LINE",
"828 0 LINE",
"828 700 LINE",
"796 700 LINE",
"465 247 LINE",
"463 247 LINE",
"139 700 LINE",
"105 700 LINE",
"105 0 LINE"
);
}
);
width = 933;
},
{
annotations = (
{
position = "{-412, 601}";
text = "PROBAR UN DISEO DONDE LA ZONA MEDIA NO CAIGA TANTO, CREO QUE PODRA REFORZAR LA HORIZONTALIDAD DEL DISEO";
type = Text;
width = 203;
}
);
background = {
paths = (
{
closed = 1;
nodes = (
"273 0 LINE",
"273 320 LINE",
"416 104 LINE",
"504 104 LINE",
"647 320 LINE",
"647 0 LINE",
"865 0 LINE",
"865 700 LINE",
"685 700 LINE",
"461 360 LINE",
"459 360 LINE",
"235 700 LINE",
"55 700 LINE",
"55 0 LINE"
);
}
);
};
layerId = "5C950900-0D0F-4959-81DE-75F048290F1B";
paths = (
{
closed = 1;
nodes = (
"273 0 LINE",
"273 340 LINE",
"386 154 LINE",
"534 154 LINE",
"647 340 LINE",
"647 0 LINE",
"865 0 LINE",
"865 700 LINE",
"655 700 LINE",
"461 380 LINE",
"459 380 LINE",
"265 700 LINE",
"55 700 LINE",
"55 0 LINE"
);
}
);
width = 920;
},
{
associatedMasterId = "5C950900-0D0F-4959-81DE-75F048290F1B";
background = {
paths = (
{
closed = 1;
nodes = (
"637 700 LINE",
"446 407 LINE",
"255 700 LINE",
"55 700 LINE",
"55 0 LINE",
"273 0 LINE",
"273 312 LINE",
"446 74 LINE",
"609 299 LINE",
"609 0 LINE",
"832 0 LINE",
"832 700 LINE"
);
}
);
};
layerId = "C88BBCDE-C6A5-48E6-B255-6F18B77F9807";
name = "Mar 13 18, 15:56";
paths = (
{
closed = 1;
nodes = (
"637 700 LINE",
"456 407 LINE",
"430 407 LINE",
"255 700 LINE",
"55 700 LINE",
"55 0 LINE",
"273 0 LINE",
"273 312 LINE",
"401 74 LINE",
"486 74 LINE",
"609 299 LINE",
"609 0 LINE",
"832 0 LINE",
"832 700 LINE"
);
}
);
width = 887;
},
{
associatedMasterId = "5C950900-0D0F-4959-81DE-75F048290F1B";
background = {
paths = (
{
closed = 0;
nodes = (
"725 424 LINE",
"500 104 LINE",
"427 104 LINE",
"201 424 LINE"
);
}
);
};
layerId = "20771765-E429-463C-9F77-64160788F33E";
name = "Mar 18 18, 11:17";
paths = (
{
closed = 1;
nodes = (
"273 0 LINE",
"273 320 LINE",
"426 104 LINE",
"499 104 LINE",
"647 314 LINE",
"647 0 LINE",
"870 0 LINE",
"870 700 LINE",
"695 700 LINE",
"470 380 LINE",
"461 380 LINE",
"235 700 LINE",
"55 700 LINE",
"55 0 LINE"
);
}
);
width = 925;
},
{
associatedMasterId = "5C950900-0D0F-4959-81DE-75F048290F1B";
layerId = "BDE8A0B3-8C9C-497B-B76F-62A6BA8DFA7F";
name = "Mar 18 18, 11:22";
paths = (
{
closed = 1;
nodes = (
"273 0 LINE",
"273 312 LINE",
"446 74 LINE",
"609 299 LINE",
"609 0 LINE",
"832 0 LINE",
"832 700 LINE",
"637 700 LINE",
"446 407 LINE",
"255 700 LINE",
"55 700 LINE",
"55 0 LINE"
);
}
);
width = 887;
},
{
background = {
paths = (
{
closed = 1;
nodes = (
"211 0 LINE",
"211 472 LINE",
"412 176 LINE",
"511 176 LINE",
"715 472 LINE",
"715 0 LINE",
"843 0 LINE",
"843 700 LINE",
"719 700 LINE",
"463 322 LINE",
"461 322 LINE",
"212 700 LINE",
"83 700 LINE",
"83 0 LINE"
);
}
);
};
guideLines = (
{
angle = 90;
position = "{465, 265}";
},
{
angle = 90;
position = "{813, 333}";
}
);
layerId = "514A1583-697A-4C0A-B081-2869E94CF283";
paths = (
{
closed = 1;
nodes = (
"211 0 LINE",
"211 472 LINE",
"412 176 LINE",
"511 176 LINE",
"715 472 LINE",
"715 0 LINE",
"846 0 LINE",
"846 700 LINE",
"719 700 LINE",
"463 322 LINE",
"461 322 LINE",
"212 700 LINE",
"83 700 LINE",
"83 0 LINE"
);
}
);
width = 929;
},
{
annotations = (
{
position = "{-412, 601}";
text = "PROBAR UN DISEO DONDE LA ZONA MEDIA NO CAIGA TANTO, CREO QUE PODRA REFORZAR LA HORIZONTALIDAD DEL DISEO";
type = Text;
width = 203;
}
);
associatedMasterId = "5C950900-0D0F-4959-81DE-75F048290F1B";
background = {
paths = (
{
closed = 1;
nodes = (
"273 0 LINE",
"273 363 LINE",
"446 187 LINE",
"453 187 LINE",
"627 363 LINE",
"627 0 LINE",
"850 0 LINE",
"850 700 LINE",
"665 700 LINE",
"451 479 LINE",
"449 479 LINE",
"235 700 LINE",
"55 700 LINE",
"55 0 LINE"
);
}
);
};
guideLines = (
{
angle = 90;
position = "{450, 288}";
}
);
layerId = "839D38FA-97E0-4800-BA6A-7DE6FFCC5556";
name = "May 3 18, 11:24";
paths = (
{
closed = 1;
nodes = (
"273 0 LINE",
"273 363 LINE",
"446 187 LINE",
"453 187 LINE",
"627 363 LINE",
"627 0 LINE",
"850 0 LINE",
"850 700 LINE",
"665 700 LINE",
"451 479 LINE",
"449 479 LINE",
"235 700 LINE",
"55 700 LINE",
"55 0 LINE"
);
}
);
width = 905;
},
{
annotations = (
{
position = "{-412, 601}";
text = "PROBAR UN DISEO DONDE LA ZONA MEDIA NO CAIGA TANTO, CREO QUE PODRA REFORZAR LA HORIZONTALIDAD DEL DISEO";
type = Text;
width = 203;
}
);
associatedMasterId = "5C950900-0D0F-4959-81DE-75F048290F1B";
background = {
paths = (
{
closed = 1;
nodes = (
"273 0 LINE",
"273 320 LINE",
"416 104 LINE",
"504 104 LINE",
"647 320 LINE",
"647 0 LINE",
"865 0 LINE",
"865 700 LINE",
"685 700 LINE",
"461 360 LINE",
"459 360 LINE",
"235 700 LINE",
"55 700 LINE",
"55 0 LINE"
);
}
);
};
layerId = "3244E4CF-33B6-48CE-8C65-3298DB57153D";
name = "May 4 18, 16:12";
paths = (
{
closed = 1;
nodes = (
"273 0 LINE",
"273 320 LINE",
"416 104 LINE",
"504 104 LINE",
"647 320 LINE",
"647 0 LINE",
"865 0 LINE",
"865 700 LINE",
"685 700 LINE",
"461 360 LINE",
"459 360 LINE",
"235 700 LINE",
"55 700 LINE",
"55 0 LINE"
);
}
);
width = 920;
},
{
associatedMasterId = "620D8D18-E43F-4D11-9420-7EF908A5CAE8";
background = {
paths = (
{
closed = 1;
nodes = (
"821 647 LINE",
"789 667 LINE",
"413 76 LINE",
"446 55 LINE"
);
}
);
};
layerId = "9CA34BE4-C75C-4617-860E-2D3DC067B2A0";
name = "May 4 18, 16:12";
paths = (
{
closed = 1;
nodes = (
"149 0 LINE",
"149 623 LINE",
"470 118 LINE",
"486 118 LINE",
"806 625 LINE",
"806 0 LINE",
"845 0 LINE",
"845 700 LINE",
"813 700 LINE",
"481 177 LINE",
"476 177 LINE",
"142 700 LINE",
"110 700 LINE",
"110 0 LINE"
);
}
);
width = 955;
},
{
annotations = (
{
position = "{-412, 601}";
text = "PROBAR UN DISEO DONDE LA ZONA MEDIA NO CAIGA TANTO, CREO QUE PODRA REFORZAR LA HORIZONTALIDAD DEL DISEO";
type = Text;
width = 203;
}
);
associatedMasterId = "5C950900-0D0F-4959-81DE-75F048290F1B";
background = {
paths = (
{
closed = 0;
nodes = (
"649 320 LINE",
"536 104 LINE"
);
},
{
closed = 0;
nodes = (
"461 330 LINE",
"463 330 LINE",
"657 700 LINE"
);
}
);
};
guideLines = (
{
angle = 90;
position = "{273, 400}";
},
{
angle = 90;
position = "{647, 400}";
}
);
layerId = "7D2C3767-8437-458D-BD2F-C02907BCC6D6";
name = "May 8 18, 18:55";
paths = (
{
closed = 1;
nodes = (
"273 0 LINE",
"273 320 LINE",
"386 94 LINE",
"534 94 LINE",
"647 320 LINE",
"647 0 LINE",
"865 0 LINE",
"865 700 LINE",
"655 700 LINE",
"461 320 LINE",
"459 320 LINE",
"265 700 LINE",
"55 700 LINE",
"55 0 LINE"
);
}
);
width = 920;
},
{
annotations = (
{
position = "{-412, 601}";
text = "PROBAR UN DISEO DONDE LA ZONA MEDIA NO CAIGA TANTO, CREO QUE PODRA REFORZAR LA HORIZONTALIDAD DEL DISEO";
type = Text;
width = 203;
}
);
associatedMasterId = "5C950900-0D0F-4959-81DE-75F048290F1B";
background = {
paths = (
{
closed = 0;
nodes = (
"655 351 LINE",
"461 31 LINE",
"459 31 LINE",
"265 351 LINE"
);
}
);
};
guideLines = (
{
angle = 90;
position = "{273, 400}";
},
{
angle = 90;
position = "{647, 400}";
}
);
layerId = "5E3C03ED-AB5F-4032-A2F2-4222D70BA10F";
name = "May 8 18, 18:57";
paths = (
{
closed = 1;
nodes = (
"273 0 LINE",
"273 340 LINE",
"386 154 LINE",
"534 154 LINE",
"647 340 LINE",
"647 0 LINE",
"865 0 LINE",
"865 700 LINE",
"655 700 LINE",
"461 380 LINE",
"459 380 LINE",
"265 700 LINE",
"55 700 LINE",
"55 0 LINE"
);
}
);
width = 920;
},
{
annotations = (
{
position = "{-412, 601}";
text = "PROBAR UN DISEO DONDE LA ZONA MEDIA NO CAIGA TANTO, CREO QUE PODRA REFORZAR LA HORIZONTALIDAD DEL DISEO";
type = Text;
width = 203;
}
);
associatedMasterId = "5C950900-0D0F-4959-81DE-75F048290F1B";
background = {
paths = (
{
closed = 1;
nodes = (
"273 0 LINE",
"273 320 LINE",
"416 104 LINE",
"504 104 LINE",
"647 320 LINE",
"647 0 LINE",
"865 0 LINE",
"865 700 LINE",
"685 700 LINE",
"461 360 LINE",
"459 360 LINE",
"235 700 LINE",
"55 700 LINE",
"55 0 LINE"
);
}
);
};
layerId = "298A95B0-51E6-4D73-BBC8-BEBAD3B36F26";
name = "May 9 18, 00:46";
paths = (
{
closed = 1;
nodes = (
"273 0 LINE",
"273 363 LINE",
"446 187 LINE",
"453 187 LINE",
"627 363 LINE",
"627 0 LINE",
"850 0 LINE",
"850 700 LINE",
"665 700 LINE",
"451 479 LINE",
"449 479 LINE",
"235 700 LINE",
"55 700 LINE",
"55 0 LINE"
);
}
);
width = 905;
}
);
leftMetricsKey = H;
rightMetricsKey = H;
unicode = 004D;
},
{
glyphname = N;
lastChange = "2021-09-30 23:32:25 +0000";
layers = (
{
anchors = (
{
name = bottom;
position = "{390, -35}";
},
{
name = top.case;
position = "{398, 720}";
}
);
layerId = "620D8D18-E43F-4D11-9420-7EF908A5CAE8";
paths = (
{
closed = 1;
nodes = (
"144 0 LINE",
"144 635 LINE",
"146 635 LINE",
"657 0 LINE",
"692 0 LINE",
"692 700 LINE",
"653 700 LINE",
"653 69 LINE",
"651 69 LINE",
"142 700 LINE",
"105 700 LINE",
"105 0 LINE"
);
}
);
width = 797;
},
{
anchors = (
{
name = bottom;
position = "{404, -35}";
},
{
name = top.case;
position = "{387, 720}";
}
);
layerId = "5C950900-0D0F-4959-81DE-75F048290F1B";
paths = (
{
closed = 1;
nodes = (
"276 0 LINE",
"276 337 LINE",
"278 337 LINE",
"542 0 LINE",
"735 0 LINE",
"735 700 LINE",
"514 700 LINE",
"514 371 LINE",
"512 371 LINE",
"254 700 LINE",
"55 700 LINE",
"55 0 LINE"
);
}
);
width = 790;
},
{
anchors = (
{
name = bottom;
position = "{415, -35}";
},
{
name = top.case;
position = "{398, 720}";
}
);
background = {
paths = (
{
closed = 1;
nodes = (
"210 0 LINE",
"210 487 LINE",
"212 487 LINE",
"601 0 LINE",
"714 0 LINE",
"714 700 LINE",
"584 700 LINE",
"584 219 LINE",
"582 219 LINE",
"197 700 LINE",
"80 700 LINE",
"80 0 LINE"
);
}
);
};
layerId = "514A1583-697A-4C0A-B081-2869E94CF283";
paths = (
{
closed = 1;
nodes = (
"213 0 LINE",
"213 472 LINE",
"215 472 LINE",
"615 0 LINE",
"715 0 LINE",
"715 700 LINE",
"585 700 LINE",
"585 248 LINE",
"583 248 LINE",
"197 700 LINE",
"83 700 LINE",
"83 0 LINE"
);
}
);
width = 798;
}
);
leftMetricsKey = H;
rightMetricsKey = H;
unicode = 004E;
},
{
color = 3;
glyphname = Eng;
lastChange = "2021-09-30 22:26:40 +0000";
layers = (
{
background = {
paths = (
{
closed = 1;
nodes = (
"144 0 LINE",
"144 637 LINE",
"146 637 LINE",
"659 0 LINE",
"692 0 LINE",
"692 700 LINE",
"653 700 LINE",
"653 67 LINE",
"651 67 LINE",
"140 700 LINE",
"105 700 LINE",
"105 0 LINE"
);
},
{
closed = 1;
nodes = (
"496 -192 LINE",
"536 -202 LINE SMOOTH",
"554 -206 OFFCURVE",
"572 -209 OFFCURVE",
"586 -209 CURVE SMOOTH",
"663 -209 OFFCURVE",
"692 -182 OFFCURVE",
"692 -117 CURVE SMOOTH",
"692 35 LINE",
"653 35 LINE",
"653 -119 LINE SMOOTH",
"653 -158 OFFCURVE",
"632 -175 OFFCURVE",
"591 -175 CURVE SMOOTH",
"576 -175 OFFCURVE",
"558 -173 OFFCURVE",
"538 -171 CURVE SMOOTH",
"512 -168 LINE",
"520 -154 LINE",
"513 -211 LINE"
);
}
);
};
guideLines = (
{
angle = 90;
position = "{653, 51}";
}
);
layerId = "620D8D18-E43F-4D11-9420-7EF908A5CAE8";
paths = (
{
closed = 1;
nodes = (
"144 0 LINE",
"144 637 LINE",
"146 637 LINE",
"653 8 LINE",
"653 -108 LINE SMOOTH",
"653 -160 OFFCURVE",
"631 -175 OFFCURVE",
"574 -175 CURVE SMOOTH",
"555 -175 OFFCURVE",
"532 -173 OFFCURVE",
"507 -171 CURVE SMOOTH",
"482 -169 LINE",
"479 -197 LINE",
"504 -202 LINE SMOOTH",
"526 -206 OFFCURVE",
"548 -209 OFFCURVE",
"576 -209 CURVE SMOOTH",
"657 -209 OFFCURVE",
"692 -182 OFFCURVE",
"692 -108 CURVE SMOOTH",
"692 700 LINE",
"653 700 LINE",
"653 67 LINE",
"651 67 LINE",
"140 700 LINE",
"105 700 LINE",
"105 0 LINE"
);
}
);
width = 797;
},
{
background = {
paths = (
{
closed = 0;
nodes = (
"585 10 LINE",
"229 452 LINE"
);
},
{
closed = 1;
nodes = (
"144 0 LINE",
"144 637 LINE",
"146 637 LINE",
"659 0 LINE",
"692 0 LINE",
"692 700 LINE",
"653 700 LINE",
"653 67 LINE",
"651 67 LINE",
"140 700 LINE",
"105 700 LINE",
"105 0 LINE"
);
},
{
closed = 1;
nodes = (
"456 -192 LINE",
"504 -202 LINE SMOOTH",
"526 -206 OFFCURVE",
"548 -209 OFFCURVE",
"576 -209 CURVE SMOOTH",
"657 -209 OFFCURVE",
"692 -182 OFFCURVE",
"692 -108 CURVE SMOOTH",
"692 35 LINE",
"653 35 LINE",
"653 -108 LINE SMOOTH",
"653 -160 OFFCURVE",
"631 -175 OFFCURVE",
"574 -175 CURVE SMOOTH",
"555 -175 OFFCURVE",
"532 -173 OFFCURVE",
"507 -171 CURVE SMOOTH",
"474 -168 LINE",
"484 -154 LINE",
"477 -211 LINE"
);
}
);
};
layerId = "514A1583-697A-4C0A-B081-2869E94CF283";
paths = (
{
closed = 1;
nodes = (
"213 0 LINE",
"213 469 LINE",
"215 469 LINE",
"559 42 LINE",
"559 -45 LINE SMOOTH",
"559 -79 OFFCURVE",
"539 -93 OFFCURVE",
"498 -93 CURVE SMOOTH",
"485 -93 OFFCURVE",
"467 -92 OFFCURVE",
"454 -91 CURVE SMOOTH",
"439 -89 LINE",
"421 -189 LINE",
"443 -195 LINE SMOOTH",
"473 -203 OFFCURVE",
"503 -209 OFFCURVE",
"527 -209 CURVE SMOOTH",
"633 -209 OFFCURVE",
"685 -161 OFFCURVE",
"685 -68 CURVE SMOOTH",
"685 700 LINE",
"555 700 LINE",
"555 258 LINE",
"553 258 LINE",
"197 700 LINE",
"83 700 LINE",
"83 0 LINE"
);
}
);
width = 768;
},
{
background = {
paths = (
{
closed = 1;
nodes = (
"144 0 LINE",
"144 637 LINE",
"146 637 LINE",
"659 0 LINE",
"692 0 LINE",
"692 700 LINE",
"653 700 LINE",
"653 67 LINE",
"651 67 LINE",
"140 700 LINE",
"105 700 LINE",
"105 0 LINE"
);
},
{
closed = 1;
nodes = (
"456 -192 LINE",
"504 -202 LINE SMOOTH",
"526 -206 OFFCURVE",
"548 -209 OFFCURVE",
"576 -209 CURVE SMOOTH",
"657 -209 OFFCURVE",
"692 -182 OFFCURVE",
"692 -108 CURVE SMOOTH",
"692 35 LINE",
"653 35 LINE",
"653 -108 LINE SMOOTH",
"653 -160 OFFCURVE",
"631 -175 OFFCURVE",
"574 -175 CURVE SMOOTH",
"555 -175 OFFCURVE",
"532 -173 OFFCURVE",
"507 -171 CURVE SMOOTH",
"474 -168 LINE",
"484 -154 LINE",
"477 -211 LINE"
);
}
);
};
layerId = "5C950900-0D0F-4959-81DE-75F048290F1B";
paths = (
{
closed = 1;
nodes = (
"276 0 LINE",
"276 337 LINE",
"278 337 LINE",
"525 23 LINE",
"525 -1 LINE SMOOTH",
"525 -30 OFFCURVE",
"505 -39 OFFCURVE",
"474 -39 CURVE SMOOTH",
"456 -39 OFFCURVE",
"440 -38 OFFCURVE",
"427 -36 CURVE SMOOTH",
"413 -34 LINE",
"386 -186 LINE",
"411 -192 LINE SMOOTH",
"452 -202 OFFCURVE",
"493 -209 OFFCURVE",
"538 -209 CURVE SMOOTH",
"651 -209 OFFCURVE",
"720 -143 OFFCURVE",
"720 -24 CURVE SMOOTH",
"720 700 LINE",
"499 700 LINE",
"499 391 LINE",
"497 391 LINE",
"254 700 LINE",
"55 700 LINE",
"55 0 LINE"
);
}
);
width = 775;
}
);
leftMetricsKey = N;
rightMetricsKey = N;
unicode = 014A;
},
{
color = 3;
glyphname = Nhookleft;
lastChange = "2021-09-30 23:32:25 +0000";
layers = (
{
background = {
paths = (
{
closed = 1;
nodes = (
"-51 -192 LINE",
"-12 -202 LINE SMOOTH",
"7 -206 OFFCURVE",
"25 -209 OFFCURVE",
"39 -209 CURVE SMOOTH",
"116 -209 OFFCURVE",
"145 -182 OFFCURVE",
"145 -117 CURVE SMOOTH",
"145 35 LINE",
"106 35 LINE",
"106 -119 LINE SMOOTH",
"106 -158 OFFCURVE",
"85 -175 OFFCURVE",
"44 -175 CURVE SMOOTH",
"29 -175 OFFCURVE",
"10 -173 OFFCURVE",
"-9 -171 CURVE SMOOTH",
"-35 -168 LINE",
"-27 -154 LINE",
"-34 -211 LINE"
);
}
);
};
layerId = "620D8D18-E43F-4D11-9420-7EF908A5CAE8";
paths = (
{
closed = 1;
nodes = (
"114 -209 OFFCURVE",
"145 -182 OFFCURVE",
"145 -117 CURVE SMOOTH",
"145 637 LINE",
"147 637 LINE",
"660 0 LINE",
"693 0 LINE",
"693 700 LINE",
"654 700 LINE",
"654 67 LINE",
"652 67 LINE",
"141 700 LINE",
"106 700 LINE",
"106 -116 LINE SMOOTH",
"106 -158 OFFCURVE",
"88 -175 OFFCURVE",
"42 -175 CURVE SMOOTH",
"27 -175 OFFCURVE",
"8 -173 OFFCURVE",
"-13 -171 CURVE SMOOTH",
"-34 -168 LINE",
"-37 -197 LINE",
"-14 -202 LINE SMOOTH",
"4 -207 OFFCURVE",
"23 -209 OFFCURVE",
"37 -209 CURVE SMOOTH"
);
}
);
width = 798;
},
{
layerId = "514A1583-697A-4C0A-B081-2869E94CF283";
paths = (
{
closed = 1;
nodes = (
"166 -209 OFFCURVE",
"214 -161 OFFCURVE",
"214 -68 CURVE SMOOTH",
"214 472 LINE",
"216 472 LINE",
"586 0 LINE",
"686 0 LINE",
"686 700 LINE",
"556 700 LINE",
"556 248 LINE",
"553 248 LINE",
"197 700 LINE",
"84 700 LINE",
"84 -45 LINE SMOOTH",
"84 -79 OFFCURVE",
"68 -93 OFFCURVE",
"35 -93 CURVE SMOOTH",
"24 -93 OFFCURVE",
"8 -92 OFFCURVE",
"0 -91 CURVE SMOOTH",
"-13 -89 LINE",
"-30 -189 LINE",
"-10 -195 LINE SMOOTH",
"19 -203 OFFCURVE",
"47 -209 OFFCURVE",
"69 -209 CURVE SMOOTH"
);
}
);
width = 769;
},
{
layerId = "5C950900-0D0F-4959-81DE-75F048290F1B";
paths = (
{
closed = 1;
nodes = (
"230 -209 OFFCURVE",
"304 -143 OFFCURVE",
"304 -24 CURVE SMOOTH",
"304 337 LINE",
"306 337 LINE",
"555 0 LINE",
"748 0 LINE",
"748 700 LINE",
"527 700 LINE",
"527 371 LINE",
"525 371 LINE",
"282 700 LINE",
"83 700 LINE",
"83 -1 LINE SMOOTH",
"83 -30 OFFCURVE",
"63 -39 OFFCURVE",
"32 -39 CURVE SMOOTH",
"14 -39 OFFCURVE",
"-2 -38 OFFCURVE",
"-15 -36 CURVE SMOOTH",
"-29 -34 LINE",
"-55 -185 LINE",
"-26 -192 LINE SMOOTH",
"18 -202 OFFCURVE",
"61 -209 OFFCURVE",
"110 -209 CURVE SMOOTH"
);
}
);
width = 803;
}
);
leftKerningGroup = j;
leftMetricsKey = "=j+15";
rightMetricsKey = N;
unicode = 019D;
},
{
color = 4;
glyphname = O;
lastChange = "2021-09-30 22:26:40 +0000";
layers = (
{
anchors = (
{
name = bottom;
position = "{407, -35}";
},
{
name = ogonek;
position = "{442, 10}";
},
{
name = top.case;
position = "{406, 720}";
}
);
background = {
paths = (
{
closed = 1;
nodes = (
"614 -9 OFFCURVE",
"764 130 OFFCURVE",
"764 349 CURVE SMOOTH",
"764 568 OFFCURVE",
"627 709 OFFCURVE",
"397 709 CURVE SMOOTH",
"174 709 OFFCURVE",
"25 569 OFFCURVE",
"25 351 CURVE SMOOTH",
"25 132 OFFCURVE",
"161 -9 OFFCURVE",
"393 -9 CURVE SMOOTH"
);
},
{
closed = 1;
nodes = (
"302 196 OFFCURVE",
"252 228 OFFCURVE",
"252 349 CURVE SMOOTH",
"252 472 OFFCURVE",
"306 504 OFFCURVE",
"395 504 CURVE SMOOTH",
"487 504 OFFCURVE",
"536 472 OFFCURVE",
"536 349 CURVE SMOOTH",
"536 228 OFFCURVE",
"485 196 OFFCURVE",
"395 196 CURVE SMOOTH"
);
}
);
};
layerId = "620D8D18-E43F-4D11-9420-7EF908A5CAE8";
paths = (
{
closed = 1;
nodes = (
"608 -10 OFFCURVE",
"750 140 OFFCURVE",
"750 350 CURVE SMOOTH",
"750 560 OFFCURVE",
"608 710 OFFCURVE",
"407 710 CURVE SMOOTH",
"207 710 OFFCURVE",
"65 560 OFFCURVE",
"65 350 CURVE SMOOTH",
"65 140 OFFCURVE",
"207 -10 OFFCURVE",
"407 -10 CURVE SMOOTH"
);
},
{
closed = 1;
nodes = (
"232 26 OFFCURVE",
"106 163 OFFCURVE",
"106 350 CURVE SMOOTH",
"106 537 OFFCURVE",
"232 674 OFFCURVE",
"407 674 CURVE SMOOTH",
"584 674 OFFCURVE",
"709 537 OFFCURVE",
"709 350 CURVE SMOOTH",
"709 163 OFFCURVE",
"584 26 OFFCURVE",
"407 26 CURVE SMOOTH"
);
}
);
width = 815;
},
{
anchors = (
{
name = bottom;
position = "{405, -35}";
},
{
name = ogonek;
position = "{475, 10}";
},
{
name = top.case;
position = "{404, 720}";
}
);
background = {
paths = (
{
closed = 1;
nodes = (
"620 -10 OFFCURVE",
"774 140 OFFCURVE",
"774 350 CURVE SMOOTH",
"774 560 OFFCURVE",
"620 709 OFFCURVE",
"404 709 CURVE SMOOTH",
"189 709 OFFCURVE",
"35 560 OFFCURVE",
"35 350 CURVE SMOOTH",
"35 140 OFFCURVE",
"189 -10 OFFCURVE",
"404 -10 CURVE SMOOTH"
);
},
{
closed = 1;
nodes = (
"319 194 OFFCURVE",
"262 258 OFFCURVE",
"262 350 CURVE SMOOTH",
"262 442 OFFCURVE",
"319 505 OFFCURVE",
"404 505 CURVE SMOOTH",
"489 505 OFFCURVE",
"547 442 OFFCURVE",
"547 350 CURVE SMOOTH",
"547 258 OFFCURVE",
"489 194 OFFCURVE",
"404 194 CURVE SMOOTH"
);
}
);
};
guideLines = (
{
angle = 90;
position = "{405, 369}";
}
);
layerId = "5C950900-0D0F-4959-81DE-75F048290F1B";
paths = (
{
closed = 1;
nodes = (
"628 -9 OFFCURVE",
"775 131 OFFCURVE",
"775 349 CURVE SMOOTH",
"775 568 OFFCURVE",
"637 709 OFFCURVE",
"405 709 CURVE SMOOTH",
"182 709 OFFCURVE",
"35 569 OFFCURVE",
"35 351 CURVE SMOOTH",
"35 132 OFFCURVE",
"173 -9 OFFCURVE",
"405 -9 CURVE SMOOTH"
);
},
{
closed = 1;
nodes = (
"312 196 OFFCURVE",
"263 228 OFFCURVE",
"263 349 CURVE SMOOTH",
"263 472 OFFCURVE",
"316 504 OFFCURVE",
"405 504 CURVE SMOOTH",
"498 504 OFFCURVE",
"547 472 OFFCURVE",
"547 351 CURVE SMOOTH",
"547 228 OFFCURVE",
"494 196 OFFCURVE",
"405 196 CURVE SMOOTH"
);
}
);
width = 810;
},
{
anchors = (
{
name = bottom;
position = "{406, -35}";
},
{
name = ogonek;
position = "{459, 10}";
},
{
name = top.case;
position = "{405, 720}";
}
);
background = {
anchors = (
{
name = bottom;
position = "{414, -35}";
},
{
name = ogonek;
position = "{466, 10}";
},
{
name = top.case;
position = "{401, 720}";
}
);
paths = (
{
closed = 1;
nodes = (
"602 -10 OFFCURVE",
"743 135 OFFCURVE",
"743 350 CURVE SMOOTH",
"743 564 OFFCURVE",
"608 710 OFFCURVE",
"401 710 CURVE SMOOTH",
"197 710 OFFCURVE",
"58 565 OFFCURVE",
"58 351 CURVE SMOOTH",
"58 136 OFFCURVE",
"192 -10 OFFCURVE",
"399 -10 CURVE SMOOTH"
);
},
{
closed = 1;
nodes = (
"274 116 OFFCURVE",
"193 199 OFFCURVE",
"193 350 CURVE SMOOTH",
"193 502 OFFCURVE",
"276 584 OFFCURVE",
"400 584 CURVE SMOOTH",
"526 584 OFFCURVE",
"608 502 OFFCURVE",
"608 350 CURVE SMOOTH",
"608 199 OFFCURVE",
"525 116 OFFCURVE",
"400 116 CURVE SMOOTH"
);
}
);
};
layerId = "514A1583-697A-4C0A-B081-2869E94CF283";
paths = (
{
closed = 1;
nodes = (
"618 -10 OFFCURVE",
"763 136 OFFCURVE",
"763 350 CURVE SMOOTH",
"763 564 OFFCURVE",
"623 710 OFFCURVE",
"406 710 CURVE SMOOTH",
"195 710 OFFCURVE",
"50 565 OFFCURVE",
"50 351 CURVE SMOOTH",
"50 136 OFFCURVE",
"190 -10 OFFCURVE",
"406 -10 CURVE SMOOTH"
);
},
{
closed = 1;
nodes = (
"272 111 OFFCURVE",
"184 196 OFFCURVE",
"184 350 CURVE SMOOTH",
"184 505 OFFCURVE",
"274 589 OFFCURVE",
"406 589 CURVE SMOOTH",
"541 589 OFFCURVE",
"629 505 OFFCURVE",
"629 351 CURVE SMOOTH",
"629 196 OFFCURVE",
"539 111 OFFCURVE",
"406 111 CURVE SMOOTH"
);
}
);
width = 813;
}
);
leftKerningGroup = O;
rightKerningGroup = O;
unicode = 004F;
},
{
glyphname = Ohorn;
lastChange = "2021-09-30 22:26:40 +0000";
layers = (
{
anchors = (
{
name = bottom;
position = "{407, -35}";
},
{
name = ogonek;
position = "{442, 10}";
},
{
name = top.case;
position = "{406, 720}";
}
);
background = {
paths = (
{
closed = 1;
nodes = (
"742 635 OFFCURVE",
"805 660 OFFCURVE",
"805 771 CURVE SMOOTH",
"805 806 OFFCURVE",
"792 844 OFFCURVE",
"769 883 CURVE",
"835 865 LINE",
"710 839 LINE",
"756 878 LINE",
"763 836 OFFCURVE",
"769 798 OFFCURVE",
"769 770 CURVE SMOOTH",
"769 695 OFFCURVE",
"733 680 OFFCURVE",
"683 680 CURVE SMOOTH",
"630 680 OFFCURVE",
"555 710 OFFCURVE",
"509 710 CURVE",
"639 654 LINE"
);
}
);
};
components = (
{
name = O;
}
);
layerId = "620D8D18-E43F-4D11-9420-7EF908A5CAE8";
paths = (
{
closed = 1;
nodes = (
"764 649 OFFCURVE",
"805 686 OFFCURVE",
"805 771 CURVE SMOOTH",
"805 798 OFFCURVE",
"798 826 OFFCURVE",
"784 855 CURVE",
"761 850 LINE",
"766 819 OFFCURVE",
"769 791 OFFCURVE",
"769 770 CURVE SMOOTH",
"769 695 OFFCURVE",
"721 680 OFFCURVE",
"655 680 CURVE SMOOTH",
"584 680 OFFCURVE",
"485 710 OFFCURVE",
"423 710 CURVE",
"584 660 LINE",
"620 653 OFFCURVE",
"651 649 OFFCURVE",
"678 649 CURVE SMOOTH"
);
}
);
width = 815;
},
{
anchors = (
{
name = bottom;
position = "{406, -35}";
},
{
name = ogonek;
position = "{459, 10}";
},
{
name = top.case;
position = "{405, 720}";
}
);
background = {
paths = (
{
closed = 1;
nodes = (
"796 589 OFFCURVE",
"861 622 OFFCURVE",
"861 736 CURVE SMOOTH",
"861 794 OFFCURVE",
"830 864 OFFCURVE",
"802 927 CURVE",
"882 893 LINE",
"679 850 LINE",
"723 887 LINE",
"731 843 OFFCURVE",
"737 803 OFFCURVE",
"737 773 CURVE SMOOTH",
"737 695 OFFCURVE",
"701 683 OFFCURVE",
"664 683 CURVE SMOOTH",
"616 683 OFFCURVE",
"556 711 OFFCURVE",
"500 711 CURVE",
"652 600 LINE",
"669 593 OFFCURVE",
"693 589 OFFCURVE",
"715 589 CURVE SMOOTH"
);
}
);
};
components = (
{
alignment = -1;
name = O;
}
);
layerId = "514A1583-697A-4C0A-B081-2869E94CF283";
paths = (
{
closed = 1;
nodes = (
"805 588 OFFCURVE",
"858 634 OFFCURVE",
"860 736 CURVE SMOOTH",
"861 780 OFFCURVE",
"846 831 OFFCURVE",
"821 879 CURVE",
"729 860 LINE",
"734 826 OFFCURVE",
"737 796 OFFCURVE",
"737 772 CURVE SMOOTH",
"737 694 OFFCURVE",
"703 683 OFFCURVE",
"652 683 CURVE SMOOTH",
"590 683 OFFCURVE",
"503 710 OFFCURVE",
"423 710 CURVE",
"634 601 LINE",
"659 593 OFFCURVE",
"688 588 OFFCURVE",
"716 588 CURVE SMOOTH"
);
}
);
width = 833;
},
{
anchors = (
{
name = bottom;
position = "{405, -35}";
},
{
name = ogonek;
position = "{475, 10}";
},
{
name = top.case;
position = "{404, 720}";
}
);
background = {
paths = (
{
closed = 1;
nodes = (
"846 557 OFFCURVE",
"914 629 OFFCURVE",
"914 751 CURVE SMOOTH",
"914 824 OFFCURVE",
"879 896 OFFCURVE",
"827 969 CURVE",
"946 918 LINE",
"665 859 LINE",
"740 893 LINE",
"749 848 OFFCURVE",
"760 806 OFFCURVE",
"760 774 CURVE SMOOTH",
"760 693 OFFCURVE",
"718 685 OFFCURVE",
"685 685 CURVE SMOOTH",
"682 685 OFFCURVE",
"679 686 OFFCURVE",
"677 686 CURVE",
"645 561 LINE",
"666 559 OFFCURVE",
"685 557 OFFCURVE",
"703 557 CURVE SMOOTH"
);
}
);
};
components = (
{
name = O;
}
);
layerId = "5C950900-0D0F-4959-81DE-75F048290F1B";
paths = (
{
closed = 1;
nodes = (
"845 566 OFFCURVE",
"915 615 OFFCURVE",
"915 742 CURVE SMOOTH",
"915 795 OFFCURVE",
"898 848 OFFCURVE",
"870 902 CURVE",
"745 875 LINE",
"753 837 OFFCURVE",
"761 802 OFFCURVE",
"761 774 CURVE SMOOTH",
"761 693 OFFCURVE",
"706 684 OFFCURVE",
"663 684 CURVE SMOOTH",
"600 684 OFFCURVE",
"533 709 OFFCURVE",
"422 709 CURVE",
"683 579 LINE SMOOTH",
"697 572 OFFCURVE",
"725 566 OFFCURVE",
"753 566 CURVE SMOOTH"
);
}
);
width = 850;
}
);
leftMetricsKey = O;
unicode = 01A0;
},
{
glyphname = Oslash;
lastChange = "2021-09-30 22:26:40 +0000";
layers = (
{
background = {
paths = (
{
closed = 1;
nodes = (
"109 -10 LINE",
"764 684 LINE",
"735 710 LINE",
"80 16 LINE"
);
}
);
};
components = (
{
name = O;
}
);
guideLines = (
{
angle = 90;
position = "{750, 614}";
},
{
angle = 90;
position = "{70, 614}";
}
);
layerId = "620D8D18-E43F-4D11-9420-7EF908A5CAE8";
paths = (
{
closed = 1;
nodes = (
"750 687 LINE",
"724 710 LINE",
"66 13 LINE",
"92 -10 LINE"
);
}
);
width = 815;
},
{
background = {
paths = (
{
closed = 1;
nodes = (
"743 631 LINE",
"658 710 LINE",
"59 72 LINE",
"143 -8 LINE"
);
}
);
};
components = (
{
name = O;
}
);
guideLines = (
{
angle = 90;
position = "{59, 634}";
},
{
angle = 90;
position = "{743, 621}";
}
);
layerId = "514A1583-697A-4C0A-B081-2869E94CF283";
paths = (
{
closed = 1;
nodes = (
"743 646 LINE",
"674 710 LINE",
"59 56 LINE",
"128 -8 LINE"
);
}
);
width = 813;
},
{
background = {
paths = (
{
closed = 1;
nodes = (
"775 613 LINE",
"679 709 LINE",
"35 88 LINE",
"132 -9 LINE"
);
}
);
};
components = (
{
name = O;
}
);
guideLines = (
{
angle = 90;
position = "{775, 631}";
},
{
angle = 90;
position = "{35, 655}";
}
);
layerId = "5C950900-0D0F-4959-81DE-75F048290F1B";
paths = (
{
closed = 1;
nodes = (
"775 628 LINE",
"695 709 LINE",
"35 72 LINE",
"116 -9 LINE"
);
}
);
width = 810;
}
);
leftKerningGroup = O;
leftMetricsKey = O;
rightKerningGroup = O;
rightMetricsKey = O;
unicode = 00D8;
},
{
color = 3;
glyphname = OE;
lastChange = "2021-09-30 22:26:40 +0000";
layers = (
{
layerId = "620D8D18-E43F-4D11-9420-7EF908A5CAE8";
paths = (
{
closed = 1;
nodes = (
"602 -10 OFFCURVE",
"739 140 OFFCURVE",
"739 350 CURVE SMOOTH",
"739 560 OFFCURVE",
"602 710 OFFCURVE",
"407 710 CURVE SMOOTH",
"207 710 OFFCURVE",
"65 560 OFFCURVE",
"65 350 CURVE SMOOTH",
"65 140 OFFCURVE",
"207 -10 OFFCURVE",
"407 -10 CURVE SMOOTH"
);
},
{
closed = 1;
nodes = (
"232 26 OFFCURVE",
"106 163 OFFCURVE",
"106 350 CURVE SMOOTH",
"106 537 OFFCURVE",
"232 674 OFFCURVE",
"407 674 CURVE SMOOTH",
"584 674 OFFCURVE",
"709 537 OFFCURVE",
"709 350 CURVE SMOOTH",
"709 163 OFFCURVE",
"584 26 OFFCURVE",
"407 26 CURVE SMOOTH"
);
},
{
closed = 1;
nodes = (
"1184 0 LINE",
"1184 36 LINE",
"748 36 LINE",
"748 340 LINE",
"1137 340 LINE",
"1137 376 LINE",
"748 376 LINE",
"748 664 LINE",
"1177 664 LINE",
"1177 700 LINE",
"709 700 LINE",
"709 0 LINE"
);
}
);
width = 1239;
},
{
background = {
components = (
{
name = O;
transform = "{1, 0, 0, 1, -54, 0}";
},
{
name = E;
transform = "{1, 0, 0, 1, 501, 0}";
}
);
};
layerId = "514A1583-697A-4C0A-B081-2869E94CF283";
paths = (
{
closed = 1;
nodes = (
"587 -10 OFFCURVE",
"705 136 OFFCURVE",
"705 350 CURVE SMOOTH",
"705 564 OFFCURVE",
"591 710 OFFCURVE",
"390 710 CURVE SMOOTH",
"188 710 OFFCURVE",
"50 565 OFFCURVE",
"50 351 CURVE SMOOTH",
"50 136 OFFCURVE",
"184 -10 OFFCURVE",
"390 -10 CURVE SMOOTH"
);
},
{
closed = 1;
nodes = (
"266 111 OFFCURVE",
"184 196 OFFCURVE",
"184 350 CURVE SMOOTH",
"184 505 OFFCURVE",
"268 589 OFFCURVE",
"392 589 CURVE SMOOTH",
"518 589 OFFCURVE",
"600 505 OFFCURVE",
"600 351 CURVE SMOOTH",
"600 196 OFFCURVE",
"516 111 OFFCURVE",
"392 111 CURVE SMOOTH"
);
},
{
closed = 1;
nodes = (
"1101 0 LINE",
"1101 115 LINE",
"715 115 LINE",
"715 301 LINE",
"1054 301 LINE",
"1054 416 LINE",
"715 416 LINE",
"715 585 LINE",
"1094 585 LINE",
"1094 700 LINE",
"600 700 LINE",
"600 0 LINE"
);
}
);
width = 1141;
},
{
background = {
components = (
{
name = E;
transform = "{1, 0, 0, 1, 493, 0}";
}
);
};
layerId = "5C950900-0D0F-4959-81DE-75F048290F1B";
paths = (
{
closed = 1;
nodes = (
"572 -9 OFFCURVE",
"670 131 OFFCURVE",
"670 349 CURVE SMOOTH",
"670 568 OFFCURVE",
"579 709 OFFCURVE",
"372 709 CURVE SMOOTH",
"169 709 OFFCURVE",
"35 569 OFFCURVE",
"35 351 CURVE SMOOTH",
"35 132 OFFCURVE",
"161 -9 OFFCURVE",
"372 -9 CURVE SMOOTH"
);
},
{
closed = 1;
nodes = (
"312 196 OFFCURVE",
"262 228 OFFCURVE",
"262 349 CURVE SMOOTH",
"262 472 OFFCURVE",
"316 504 OFFCURVE",
"405 504 CURVE SMOOTH",
"498 504 OFFCURVE",
"548 472 OFFCURVE",
"548 351 CURVE SMOOTH",
"548 228 OFFCURVE",
"494 196 OFFCURVE",
"405 196 CURVE SMOOTH"
);
},
{
closed = 1;
nodes = (
"1126 0 LINE",
"1126 192 LINE",
"771 192 LINE",
"771 272 LINE",
"1079 272 LINE",
"1079 437 LINE",
"771 437 LINE",
"771 510 LINE",
"1119 510 LINE",
"1119 700 LINE",
"578 700 LINE",
"578 0 LINE"
);
}
);
width = 1151;
}
);
leftKerningGroup = O;
leftMetricsKey = O;
rightKerningGroup = E;
rightMetricsKey = E;
unicode = 0152;
},
{
glyphname = P;
lastChange = "2021-09-30 22:26:40 +0000";
layers = (
{
background = {
paths = (
{
closed = 1;
nodes = (
"150 0 LINE",
"150 262 LINE",
"372 262 LINE SMOOTH",
"526 262 OFFCURVE",
"617 348 OFFCURVE",
"617 488 CURVE SMOOTH",
"617 628 OFFCURVE",
"526 700 OFFCURVE",
"372 700 CURVE SMOOTH",
"110 700 LINE",
"110 0 LINE"
);
},
{
closed = 1;
nodes = (
"150 664 LINE",
"372 664 LINE SMOOTH",
"501 664 OFFCURVE",
"576 610 OFFCURVE",
"576 487 CURVE SMOOTH",
"576 367 OFFCURVE",
"501 298 OFFCURVE",
"372 298 CURVE SMOOTH",
"150 298 LINE"
);
}
);
};
layerId = "620D8D18-E43F-4D11-9420-7EF908A5CAE8";
paths = (
{
closed = 1;
nodes = (
"144 0 LINE",
"144 262 LINE",
"367 262 LINE SMOOTH",
"521 262 OFFCURVE",
"612 348 OFFCURVE",
"612 488 CURVE SMOOTH",
"612 628 OFFCURVE",
"521 700 OFFCURVE",
"367 700 CURVE SMOOTH",
"105 700 LINE",
"105 0 LINE"
);
},
{
closed = 1;
nodes = (
"144 664 LINE",
"367 664 LINE SMOOTH",
"496 664 OFFCURVE",
"571 610 OFFCURVE",
"571 487 CURVE SMOOTH",
"571 367 OFFCURVE",
"496 298 OFFCURVE",
"367 298 CURVE SMOOTH",
"144 298 LINE"
);
}
);
width = 652;
},
{
background = {
paths = (
{
closed = 1;
nodes = (
"468 0 LINE SMOOTH",
"627 0 OFFCURVE",
"710 92 OFFCURVE",
"710 221 CURVE SMOOTH",
"710 280 OFFCURVE",
"678 336 OFFCURVE",
"625 361 CURVE",
"625 362 LINE",
"673 400 OFFCURVE",
"692 454 OFFCURVE",
"692 504 CURVE SMOOTH",
"692 616 OFFCURVE",
"615 700 OFFCURVE",
"468 700 CURVE SMOOTH",
"55 700 LINE",
"55 0 LINE"
);
},
{
closed = 1;
nodes = (
"278 291 LINE",
"418 291 LINE SMOOTH",
"463 291 OFFCURVE",
"482 273 OFFCURVE",
"482 232 CURVE SMOOTH",
"482 188 OFFCURVE",
"453 176 OFFCURVE",
"401 176 CURVE SMOOTH",
"278 176 LINE"
);
},
{
closed = 1;
nodes = (
"278 535 LINE",
"397 535 LINE SMOOTH",
"452 535 OFFCURVE",
"474 517 OFFCURVE",
"474 479 CURVE SMOOTH",
"474 440 OFFCURVE",
"450 423 OFFCURVE",
"411 423 CURVE SMOOTH",
"278 423 LINE"
);
}
);
};
guideLines = (
{
position = "{235, 517}";
},
{
position = "{210, 232}";
},
{
position = "{167, 379}";
}
);
layerId = "5C950900-0D0F-4959-81DE-75F048290F1B";
paths = (
{
closed = 1;
nodes = (
"278 0 LINE",
"278 193 LINE",
"422 193 LINE SMOOTH",
"577 193 OFFCURVE",
"681 291 OFFCURVE",
"681 446 CURVE SMOOTH",
"681 598 OFFCURVE",
"589 700 OFFCURVE",
"425 700 CURVE SMOOTH",
"55 700 LINE",
"55 0 LINE"
);
},
{
closed = 1;
nodes = (
"278 517 LINE",
"364 517 LINE SMOOTH",
"422 517 OFFCURVE",
"453 503 OFFCURVE",
"453 448 CURVE SMOOTH",
"453 393 OFFCURVE",
"422 380 OFFCURVE",
"364 380 CURVE SMOOTH",
"278 380 LINE"
);
}
);
width = 716;
},
{
associatedMasterId = "5C950900-0D0F-4959-81DE-75F048290F1B";
background = {
paths = (
{
closed = 1;
nodes = (
"278 0 LINE",
"278 193 LINE",
"417 193 LINE SMOOTH",
"572 193 OFFCURVE",
"676 291 OFFCURVE",
"676 446 CURVE SMOOTH",
"676 598 OFFCURVE",
"584 700 OFFCURVE",
"420 700 CURVE SMOOTH",
"55 700 LINE",
"55 0 LINE"
);
},
{
closed = 1;
nodes = (
"279 506 LINE",
"385 506 LINE SMOOTH",
"429 506 OFFCURVE",
"453 494 OFFCURVE",
"453 445 CURVE SMOOTH",
"453 396 OFFCURVE",
"429 385 OFFCURVE",
"385 385 CURVE SMOOTH",
"279 385 LINE"
);
}
);
};
guideLines = (
{
position = "{235, 506}";
},
{
position = "{210, 232}";
},
{
position = "{146, 446}";
}
);
layerId = "40CFC262-5756-4773-AAEB-DEC0CCB14600";
name = "Mar 31 18, 23:17";
paths = (
{
closed = 1;
nodes = (
"278 0 LINE",
"278 193 LINE",
"417 193 LINE SMOOTH",
"571 193 OFFCURVE",
"676 291 OFFCURVE",
"676 446 CURVE SMOOTH",
"676 601 OFFCURVE",
"580 700 OFFCURVE",
"419 700 CURVE SMOOTH",
"55 700 LINE",
"55 0 LINE"
);
},
{
closed = 1;
nodes = (
"279 506 LINE",
"396 506 LINE SMOOTH",
"433 506 OFFCURVE",
"453 494 OFFCURVE",
"453 445 CURVE SMOOTH",
"453 398 OFFCURVE",
"433 385 OFFCURVE",
"396 385 CURVE SMOOTH",
"279 385 LINE"
);
}
);
width = 711;
},
{
background = {
paths = (
{
closed = 1;
nodes = (
"212 0 LINE",
"212 228 LINE",
"392 228 LINE SMOOTH",
"547 228 OFFCURVE",
"644 320 OFFCURVE",
"644 467 CURVE SMOOTH",
"644 613 OFFCURVE",
"553 700 OFFCURVE",
"394 700 CURVE SMOOTH",
"80 700 LINE",
"80 0 LINE"
);
},
{
closed = 1;
nodes = (
"212 585 LINE",
"376 585 LINE SMOOTH",
"463 585 OFFCURVE",
"512 552 OFFCURVE",
"512 466 CURVE SMOOTH",
"512 382 OFFCURVE",
"463 342 OFFCURVE",
"376 342 CURVE SMOOTH",
"212 342 LINE"
);
}
);
};
guideLines = (
{
position = "{133, 585}";
},
{
position = "{133, 337}";
},
{
position = "{133, 223}";
}
);
layerId = "514A1583-697A-4C0A-B081-2869E94CF283";
paths = (
{
closed = 1;
nodes = (
"214 0 LINE",
"213 222 LINE",
"398 222 LINE SMOOTH",
"548 222 OFFCURVE",
"643 316 OFFCURVE",
"643 465 CURVE SMOOTH",
"643 612 OFFCURVE",
"553 700 OFFCURVE",
"399 700 CURVE SMOOTH",
"83 700 LINE",
"83 0 LINE"
);
},
{
closed = 1;
nodes = (
"214 585 LINE",
"380 585 LINE SMOOTH",
"462 585 OFFCURVE",
"509 551 OFFCURVE",
"509 463 CURVE SMOOTH",
"509 377 OFFCURVE",
"462 337 OFFCURVE",
"380 337 CURVE SMOOTH",
"214 337 LINE"
);
}
);
width = 678;
},
{
associatedMasterId = "620D8D18-E43F-4D11-9420-7EF908A5CAE8";
background = {
paths = (
{
closed = 1;
nodes = (
"150 0 LINE",
"150 262 LINE",
"372 262 LINE SMOOTH",
"526 262 OFFCURVE",
"617 348 OFFCURVE",
"617 488 CURVE SMOOTH",
"617 628 OFFCURVE",
"526 700 OFFCURVE",
"372 700 CURVE SMOOTH",
"110 700 LINE",
"110 0 LINE"
);
},
{
closed = 1;
nodes = (
"150 664 LINE",
"372 664 LINE SMOOTH",
"501 664 OFFCURVE",
"576 610 OFFCURVE",
"576 487 CURVE SMOOTH",
"576 367 OFFCURVE",
"501 298 OFFCURVE",
"372 298 CURVE SMOOTH",
"150 298 LINE"
);
}
);
};
layerId = "A3B57E14-E012-458C-B848-A49B8F2FC8CC";
name = "Jun 15 18, 09:52";
paths = (
{
closed = 1;
nodes = (
"150 0 LINE",
"150 262 LINE",
"372 262 LINE SMOOTH",
"526 262 OFFCURVE",
"617 348 OFFCURVE",
"617 488 CURVE SMOOTH",
"617 628 OFFCURVE",
"526 700 OFFCURVE",
"372 700 CURVE SMOOTH",
"110 700 LINE",
"110 0 LINE"
);
},
{
closed = 1;
nodes = (
"150 664 LINE",
"372 664 LINE SMOOTH",
"501 664 OFFCURVE",
"576 610 OFFCURVE",
"576 487 CURVE SMOOTH",
"576 367 OFFCURVE",
"501 298 OFFCURVE",
"372 298 CURVE SMOOTH",
"150 298 LINE"
);
}
);
width = 662;
}
);
leftMetricsKey = H;
unicode = 0050;
},
{
color = 3;
glyphname = Thorn;
lastChange = "2021-09-30 22:26:40 +0000";
layers = (
{
layerId = "620D8D18-E43F-4D11-9420-7EF908A5CAE8";
paths = (
{
closed = 1;
nodes = (
"144 0 LINE",
"144 154 LINE",
"367 154 LINE SMOOTH",
"521 154 OFFCURVE",
"612 240 OFFCURVE",
"612 380 CURVE SMOOTH",
"612 520 OFFCURVE",
"521 592 OFFCURVE",
"367 592 CURVE SMOOTH",
"144 592 LINE",
"144 700 LINE",
"105 700 LINE",
"105 0 LINE"
);
},
{
closed = 1;
nodes = (
"144 556 LINE",
"367 556 LINE SMOOTH",
"496 556 OFFCURVE",
"571 502 OFFCURVE",
"571 379 CURVE SMOOTH",
"571 259 OFFCURVE",
"496 190 OFFCURVE",
"367 190 CURVE SMOOTH",
"144 190 LINE"
);
}
);
width = 652;
},
{
background = {
components = (
{
name = P;
transform = "{1, 0, 0, 1, 0, -101}";
}
);
};
guideLines = (
{
position = "{214, 484}";
}
);
layerId = "514A1583-697A-4C0A-B081-2869E94CF283";
paths = (
{
closed = 1;
nodes = (
"214 0 LINE",
"214 121 LINE",
"373 121 LINE SMOOTH",
"528 121 OFFCURVE",
"625 214 OFFCURVE",
"625 363 CURVE SMOOTH",
"625 510 OFFCURVE",
"534 599 OFFCURVE",
"375 599 CURVE SMOOTH",
"214 599 LINE",
"214 700 LINE",
"83 700 LINE",
"83 0 LINE"
);
},
{
closed = 1;
nodes = (
"214 484 LINE",
"355 484 LINE SMOOTH",
"442 484 OFFCURVE",
"491 449 OFFCURVE",
"491 362 CURVE SMOOTH",
"491 276 OFFCURVE",
"442 236 OFFCURVE",
"355 236 CURVE SMOOTH",
"214 236 LINE"
);
}
);
width = 660;
},
{
background = {
components = (
{
name = P;
transform = "{1, 0, 0, 1, 0, -86}";
}
);
};
layerId = "5C950900-0D0F-4959-81DE-75F048290F1B";
paths = (
{
closed = 1;
nodes = (
"278 0 LINE",
"278 107 LINE",
"417 107 LINE SMOOTH",
"576 107 OFFCURVE",
"681 204 OFFCURVE",
"681 360 CURVE SMOOTH",
"681 513 OFFCURVE",
"588 614 OFFCURVE",
"420 614 CURVE SMOOTH",
"278 614 LINE",
"278 700 LINE",
"55 700 LINE",
"55 0 LINE"
);
},
{
closed = 1;
nodes = (
"278 431 LINE",
"366 431 LINE SMOOTH",
"423 431 OFFCURVE",
"453 418 OFFCURVE",
"453 363 CURVE SMOOTH",
"453 307 OFFCURVE",
"423 294 OFFCURVE",
"366 294 CURVE SMOOTH",
"278 294 LINE"
);
}
);
width = 716;
}
);
leftMetricsKey = H;
rightMetricsKey = P;
unicode = 00DE;
},
{
color = 0;
glyphname = Q;
lastChange = "2021-09-30 22:26:40 +0000";
layers = (
{
background = {
paths = (
{
closed = 1;
nodes = (
"797 -24 LINE",
"330 497 LINE",
"301 471 LINE",
"768 -51 LINE"
);
}
);
};
components = (
{
name = O;
}
);
guideLines = (
{
angle = 90;
position = "{755, 645}";
}
);
layerId = "620D8D18-E43F-4D11-9420-7EF908A5CAE8";
paths = (
{
closed = 1;
nodes = (
"760 14 LINE",
"487 316 LINE",
"458 293 LINE",
"733 -10 LINE"
);
}
);
width = 825;
},
{
background = {
paths = (
{
closed = 1;
nodes = (
"773 76 LINE",
"458 360 LINE",
"380 278 LINE",
"700 -9 LINE"
);
}
);
};
components = (
{
name = O;
}
);
guideLines = (
{
angle = 90;
position = "{773, 241}";
}
);
layerId = "5C950900-0D0F-4959-81DE-75F048290F1B";
paths = (
{
closed = 1;
nodes = (
"773 75 LINE",
"458 360 LINE",
"380 278 LINE",
"695 -9 LINE"
);
}
);
width = 810;
},
{
background = {
paths = (
{
closed = 1;
nodes = (
"761 72 LINE",
"467 352 LINE",
"387 274 LINE",
"683 -8 LINE"
);
}
);
};
components = (
{
alignment = -1;
name = O;
}
);
guideLines = (
{
angle = 90;
position = "{761, 238}";
}
);
layerId = "514A1583-697A-4C0A-B081-2869E94CF283";
paths = (
{
closed = 1;
nodes = (
"761 70 LINE",
"467 352 LINE",
"387 274 LINE",
"683 -8 LINE"
);
}
);
width = 813;
},
{
associatedMasterId = "514A1583-697A-4C0A-B081-2869E94CF283";
background = {
paths = (
{
closed = 0;
nodes = (
"664 -8 LINE",
"378 285 LINE"
);
}
);
};
components = (
{
alignment = -1;
name = O;
}
);
guideLines = (
{
angle = 90;
position = "{744, 238}";
}
);
layerId = "536BE7A0-F7E6-4A1E-9408-F87C4F5D70F2";
name = "Jun 17 18, 12:18";
paths = (
{
closed = 1;
nodes = (
"744 0 LINE",
"485 360 LINE",
"334 361 LINE",
"607 0 LINE"
);
}
);
width = 802;
}
);
leftKerningGroup = O;
leftMetricsKey = O;
rightKerningGroup = O;
rightMetricsKey = O;
unicode = 0051;
},
{
glyphname = R;
lastChange = "2021-09-30 22:26:40 +0000";
layers = (
{
anchors = (
{
name = bottom;
position = "{354, -35}";
},
{
name = top.case;
position = "{354, 720}";
}
);
background = {
paths = (
{
closed = 1;
nodes = (
"105 0 LINE",
"178 0 LINE",
"178 297 LINE",
"404 297 LINE",
"563 0 LINE",
"647 0 LINE",
"480 309 LINE",
"526 324 OFFCURVE",
"562 348 OFFCURVE",
"588 381 CURVE SMOOTH",
"614 414 OFFCURVE",
"628 455 OFFCURVE",
"628 502 CURVE SMOOTH",
"628 563 OFFCURVE",
"608 611 OFFCURVE",
"567 646 CURVE SMOOTH",
"526 681 OFFCURVE",
"471 700 OFFCURVE",
"403 700 CURVE SMOOTH",
"105 700 LINE"
);
},
{
closed = 1;
nodes = (
"178 366 LINE",
"178 631 LINE",
"401 631 LINE SMOOTH",
"447 631 OFFCURVE",
"483 619 OFFCURVE",
"510 595 CURVE SMOOTH",
"538 570 OFFCURVE",
"550 538 OFFCURVE",
"550 497 CURVE SMOOTH",
"550 458 OFFCURVE",
"537 426 OFFCURVE",
"511 402 CURVE SMOOTH",
"485 378 OFFCURVE",
"449 366 OFFCURVE",
"404 366 CURVE SMOOTH"
);
}
);
};
guideLines = (
{
angle = 90;
position = "{539, 501}";
},
{
position = "{251, 297}";
},
{
position = "{144, 343}";
}
);
layerId = "620D8D18-E43F-4D11-9420-7EF908A5CAE8";
paths = (
{
closed = 1;
nodes = (
"144 0 LINE",
"144 307 LINE",
"382 307 LINE SMOOTH",
"563 307 OFFCURVE",
"630 398 OFFCURVE",
"630 511 CURVE SMOOTH",
"630 636 OFFCURVE",
"535 700 OFFCURVE",
"390 700 CURVE SMOOTH",
"105 700 LINE",
"105 0 LINE"
);
},
{
closed = 1;
nodes = (
"663 0 LINE",
"448 327 LINE",
"410 313 LINE",
"616 0 LINE"
);
},
{
closed = 1;
nodes = (
"144 664 LINE",
"387 664 LINE SMOOTH",
"515 664 OFFCURVE",
"589 614 OFFCURVE",
"589 512 CURVE SMOOTH",
"589 403 OFFCURVE",
"516 343 OFFCURVE",
"392 343 CURVE SMOOTH",
"144 343 LINE"
);
}
);
width = 713;
},
{
anchors = (
{
name = bottom;
position = "{380, -35}";
},
{
name = top.case;
position = "{352, 720}";
}
);
background = {
paths = (
{
closed = 1;
nodes = (
"278 0 LINE",
"278 216 LINE",
"318 216 LINE SMOOTH",
"515 216 OFFCURVE",
"683 268 OFFCURVE",
"683 458 CURVE SMOOTH",
"683 605 OFFCURVE",
"583 700 OFFCURVE",
"425 700 CURVE SMOOTH",
"55 700 LINE",
"55 0 LINE"
);
},
{
closed = 1;
nodes = (
"722 0 LINE",
"553 286 LINE",
"343 249 LINE",
"477 0 LINE"
);
},
{
closed = 1;
nodes = (
"278 505 LINE",
"402 505 LINE SMOOTH",
"446 505 OFFCURVE",
"464 489 OFFCURVE",
"464 444 CURVE SMOOTH",
"464 401 OFFCURVE",
"444 382 OFFCURVE",
"402 382 CURVE SMOOTH",
"278 382 LINE"
);
}
);
};
guideLines = (
{
position = "{278, 225}";
},
{
position = "{278, 384}";
},
{
position = "{278, 516}";
}
);
layerId = "5C950900-0D0F-4959-81DE-75F048290F1B";
paths = (
{
closed = 1;
nodes = (
"278 0 LINE",
"278 235 LINE",
"360 235 LINE SMOOTH",
"515 235 OFFCURVE",
"683 285 OFFCURVE",
"683 468 CURVE SMOOTH",
"683 609 OFFCURVE",
"583 700 OFFCURVE",
"425 700 CURVE SMOOTH",
"55 700 LINE",
"55 0 LINE"
);
},
{
closed = 1;
nodes = (
"722 0 LINE",
"553 286 LINE",
"343 249 LINE",
"477 0 LINE"
);
},
{
closed = 1;
nodes = (
"278 516 LINE",
"375 516 LINE SMOOTH",
"438 516 OFFCURVE",
"464 498 OFFCURVE",
"464 451 CURVE SMOOTH",
"464 405 OFFCURVE",
"436 384 OFFCURVE",
"375 384 CURVE SMOOTH",
"278 384 LINE"
);
}
);
width = 732;
},
{
anchors = (
{
name = bottom;
position = "{370, -35}";
},
{
name = top.case;
position = "{356, 720}";
}
);
background = {
paths = (
{
closed = 1;
nodes = (
"214 0 LINE",
"214 271 LINE",
"359 271 LINE SMOOTH",
"527 271 OFFCURVE",
"645 342 OFFCURVE",
"645 490 CURVE SMOOTH",
"645 623 OFFCURVE",
"547 700 OFFCURVE",
"396 700 CURVE SMOOTH",
"83 700 LINE",
"83 0 LINE"
);
},
{
closed = 1;
nodes = (
"681 0 LINE",
"489 307 LINE",
"365 281 LINE",
"535 0 LINE"
);
},
{
closed = 1;
nodes = (
"214 585 LINE",
"383 585 LINE SMOOTH",
"469 585 OFFCURVE",
"515 552 OFFCURVE",
"515 480 CURVE SMOOTH",
"515 406 OFFCURVE",
"468 367 OFFCURVE",
"385 367 CURVE SMOOTH",
"214 367 LINE"
);
}
);
};
guideLines = (
{
position = "{151, 576}";
},
{
position = "{151, 375}";
},
{
position = "{144, 252}";
}
);
layerId = "514A1583-697A-4C0A-B081-2869E94CF283";
paths = (
{
closed = 1;
nodes = (
"214 0 LINE",
"214 260 LINE",
"359 260 LINE SMOOTH",
"527 260 OFFCURVE",
"645 333 OFFCURVE",
"645 485 CURVE SMOOTH",
"645 621 OFFCURVE",
"547 700 OFFCURVE",
"396 700 CURVE SMOOTH",
"83 700 LINE",
"83 0 LINE"
);
},
{
closed = 1;
nodes = (
"681 0 LINE",
"489 307 LINE",
"365 281 LINE",
"535 0 LINE"
);
},
{
closed = 1;
nodes = (
"214 585 LINE",
"383 585 LINE SMOOTH",
"467 585 OFFCURVE",
"513 553 OFFCURVE",
"513 484 CURVE SMOOTH",
"513 413 OFFCURVE",
"466 375 OFFCURVE",
"385 375 CURVE SMOOTH",
"214 375 LINE"
);
}
);
width = 701;
}
);
leftMetricsKey = H;
rightKerningGroup = R;
unicode = 0052;
},
{
glyphname = S;
lastChange = "2021-09-30 22:26:40 +0000";
layers = (
{
anchors = (
{
name = bottom;
position = "{297, -35}";
},
{
name = top.case;
position = "{317, 720}";
}
);
background = {
paths = (
{
closed = 1;
nodes = (
"439 -10 OFFCURVE",
"549 47 OFFCURVE",
"549 184 CURVE SMOOTH",
"549 290 OFFCURVE",
"482 333 OFFCURVE",
"313 382 CURVE SMOOTH",
"147 431 OFFCURVE",
"105 451 OFFCURVE",
"105 528 CURVE SMOOTH",
"105 529 LINE SMOOTH",
"105 621 OFFCURVE",
"182 674 OFFCURVE",
"309 674 CURVE SMOOTH",
"368 674 OFFCURVE",
"426 665 OFFCURVE",
"489 650 CURVE SMOOTH",
"538 638 LINE",
"516 627 LINE",
"531 685 LINE",
"546 667 LINE",
"498 681 LINE SMOOTH",
"437 699 OFFCURVE",
"371 710 OFFCURVE",
"313 710 CURVE SMOOTH",
"177 710 OFFCURVE",
"66 656 OFFCURVE",
"66 527 CURVE SMOOTH",
"66 426 OFFCURVE",
"128 395 OFFCURVE",
"299 345 CURVE SMOOTH",
"465 296 OFFCURVE",
"509 258 OFFCURVE",
"509 182 CURVE SMOOTH",
"509 180 LINE SMOOTH",
"509 80 OFFCURVE",
"433 26 OFFCURVE",
"299 26 CURVE SMOOTH",
"247 26 OFFCURVE",
"175 33 OFFCURVE",
"121 47 CURVE SMOOTH",
"42 67 LINE",
"76 98 LINE",
"50 16 LINE",
"29 37 LINE",
"113 13 LINE SMOOTH",
"152 2 OFFCURVE",
"216 -10 OFFCURVE",
"298 -10 CURVE SMOOTH"
);
}
);
};
guideLines = (
{
angle = 90;
position = "{61, 334}";
},
{
angle = 90;
position = "{540, 385}";
}
);
layerId = "620D8D18-E43F-4D11-9420-7EF908A5CAE8";
paths = (
{
closed = 1;
nodes = (
"439 -10 OFFCURVE",
"549 47 OFFCURVE",
"549 184 CURVE SMOOTH",
"549 290 OFFCURVE",
"482 333 OFFCURVE",
"313 382 CURVE SMOOTH",
"147 431 OFFCURVE",
"105 451 OFFCURVE",
"105 528 CURVE SMOOTH",
"105 621 OFFCURVE",
"182 674 OFFCURVE",
"309 674 CURVE SMOOTH",
"368 674 OFFCURVE",
"426 665 OFFCURVE",
"489 650 CURVE SMOOTH",
"520 642 LINE",
"528 672 LINE",
"498 681 LINE SMOOTH",
"437 699 OFFCURVE",
"371 710 OFFCURVE",
"313 710 CURVE SMOOTH",
"177 710 OFFCURVE",
"66 656 OFFCURVE",
"66 527 CURVE SMOOTH",
"66 426 OFFCURVE",
"128 395 OFFCURVE",
"299 345 CURVE SMOOTH",
"465 296 OFFCURVE",
"509 258 OFFCURVE",
"509 182 CURVE SMOOTH",
"509 81 OFFCURVE",
"435 26 OFFCURVE",
"299 26 CURVE SMOOTH",
"247 26 OFFCURVE",
"175 33 OFFCURVE",
"121 47 CURVE SMOOTH",
"64 61 LINE",
"54 30 LINE",
"113 13 LINE SMOOTH",
"152 2 OFFCURVE",
"216 -10 OFFCURVE",
"298 -10 CURVE SMOOTH"
);
}
);
width = 604;
},
{
anchors = (
{
name = bottom;
position = "{315, -35}";
},
{
name = top.case;
position = "{371, 720}";
}
);
background = {
paths = (
{
closed = 1;
nodes = (
"487 -9 OFFCURVE",
"621 68 OFFCURVE",
"621 234 CURVE SMOOTH",
"621 338 OFFCURVE",
"573 401 OFFCURVE",
"412 440 CURVE SMOOTH",
"296 469 OFFCURVE",
"287 475 OFFCURVE",
"287 488 CURVE SMOOTH",
"287 492 LINE SMOOTH",
"287 507 OFFCURVE",
"307 516 OFFCURVE",
"381 516 CURVE SMOOTH",
"418 516 OFFCURVE",
"458 514 OFFCURVE",
"484 511 CURVE SMOOTH",
"641 495 LINE",
"565 421 LINE",
"617 711 LINE",
"697 648 LINE",
"555 684 LINE SMOOTH",
"491 700 OFFCURVE",
"424 709 OFFCURVE",
"363 709 CURVE SMOOTH",
"188 709 OFFCURVE",
"60 644 OFFCURVE",
"60 486 CURVE SMOOTH",
"60 360 OFFCURVE",
"113 311 OFFCURVE",
"278 261 CURVE SMOOTH",
"383 229 OFFCURVE",
"386 222 OFFCURVE",
"386 209 CURVE SMOOTH",
"386 208 LINE SMOOTH",
"386 196 OFFCURVE",
"369 187 OFFCURVE",
"313 187 CURVE SMOOTH",
"262 187 OFFCURVE",
"197 193 OFFCURVE",
"153 199 CURVE SMOOTH",
"-25 222 LINE",
"83 291 LINE",
"24 0 LINE",
"-13 52 LINE",
"94 23 LINE SMOOTH",
"173 2 OFFCURVE",
"245 -9 OFFCURVE",
"315 -9 CURVE SMOOTH"
);
}
);
};
layerId = "5C950900-0D0F-4959-81DE-75F048290F1B";
paths = (
{
closed = 1;
nodes = (
"487 -9 OFFCURVE",
"621 68 OFFCURVE",
"621 234 CURVE SMOOTH",
"621 338 OFFCURVE",
"573 401 OFFCURVE",
"412 440 CURVE SMOOTH",
"296 469 OFFCURVE",
"287 475 OFFCURVE",
"287 490 CURVE SMOOTH",
"287 509 OFFCURVE",
"307 516 OFFCURVE",
"356 516 CURVE SMOOTH",
"418 516 OFFCURVE",
"458 514 OFFCURVE",
"484 511 CURVE SMOOTH",
"579 501 LINE",
"610 670 LINE",
"555 684 LINE SMOOTH",
"491 700 OFFCURVE",
"424 709 OFFCURVE",
"363 709 CURVE SMOOTH",
"188 709 OFFCURVE",
"60 644 OFFCURVE",
"60 486 CURVE SMOOTH",
"60 360 OFFCURVE",
"113 311 OFFCURVE",
"278 261 CURVE SMOOTH",
"383 229 OFFCURVE",
"386 222 OFFCURVE",
"386 208 CURVE SMOOTH",
"386 196 OFFCURVE",
"373 187 OFFCURVE",
"330 187 CURVE SMOOTH",
"262 187 OFFCURVE",
"197 193 OFFCURVE",
"153 199 CURVE SMOOTH",
"67 210 LINE",
"32 40 LINE",
"94 23 LINE SMOOTH",
"173 2 OFFCURVE",
"245 -9 OFFCURVE",
"315 -9 CURVE SMOOTH"
);
}
);
width = 660;
},
{
anchors = (
{
name = bottom;
position = "{306, -35}";
},
{
name = top.case;
position = "{341, 720}";
}
);
background = {
anchors = (
{
name = bottom;
position = "{312, -35}";
},
{
name = top.case;
position = "{329, 720}";
}
);
paths = (
{
closed = 1;
nodes = (
"470 -10 OFFCURVE",
"577 63 OFFCURVE",
"577 215 CURVE SMOOTH",
"577 313 OFFCURVE",
"528 368 OFFCURVE",
"364 414 CURVE SMOOTH",
"225 453 OFFCURVE",
"199 467 OFFCURVE",
"199 510 CURVE SMOOTH",
"199 511 LINE SMOOTH",
"199 564 OFFCURVE",
"243 591 OFFCURVE",
"344 591 CURVE SMOOTH",
"396 591 OFFCURVE",
"449 585 OFFCURVE",
"498 578 CURVE SMOOTH",
"581 565 LINE",
"534 524 LINE",
"567 698 LINE",
"606 661 LINE",
"519 684 LINE SMOOTH",
"462 699 OFFCURVE",
"396 710 OFFCURVE",
"327 710 CURVE SMOOTH",
"181 710 OFFCURVE",
"62 652 OFFCURVE",
"66 507 CURVE SMOOTH",
"69 390 OFFCURVE",
"121 349 OFFCURVE",
"284 300 CURVE SMOOTH",
"418 260 OFFCURVE",
"442 240 OFFCURVE",
"442 198 CURVE SMOOTH",
"442 196 LINE SMOOTH",
"442 140 OFFCURVE",
"399 111 OFFCURVE",
"302 111 CURVE SMOOTH",
"251 111 OFFCURVE",
"185 118 OFFCURVE",
"117 131 CURVE SMOOTH",
"12 151 LINE",
"79 195 LINE",
"41 8 LINE",
"14 46 LINE",
"94 21 LINE SMOOTH",
"173 -3 OFFCURVE",
"238 -10 OFFCURVE",
"309 -10 CURVE SMOOTH"
);
}
);
};
guideLines = (
{
position = "{248, 414}";
},
{
position = "{203, 301}";
}
);
layerId = "514A1583-697A-4C0A-B081-2869E94CF283";
paths = (
{
closed = 1;
nodes = (
"463 -10 OFFCURVE",
"585 58 OFFCURVE",
"585 209 CURVE SMOOTH",
"585 314 OFFCURVE",
"528 367 OFFCURVE",
"363 411 CURVE SMOOTH",
"222 450 OFFCURVE",
"196 463 OFFCURVE",
"196 508 CURVE SMOOTH",
"196 566 OFFCURVE",
"246 595 OFFCURVE",
"345 595 CURVE SMOOTH",
"393 595 OFFCURVE",
"446 587 OFFCURVE",
"491 581 CURVE SMOOTH",
"550 573 LINE",
"569 672 LINE",
"527 683 LINE SMOOTH",
"464 700 OFFCURVE",
"398 710 OFFCURVE",
"338 710 CURVE SMOOTH",
"183 710 OFFCURVE",
"63 650 OFFCURVE",
"63 507 CURVE SMOOTH",
"63 393 OFFCURVE",
"121 353 OFFCURVE",
"289 303 CURVE SMOOTH",
"424 263 OFFCURVE",
"448 240 OFFCURVE",
"448 196 CURVE SMOOTH",
"448 137 OFFCURVE",
"400 107 OFFCURVE",
"306 107 CURVE SMOOTH",
"255 107 OFFCURVE",
"186 113 OFFCURVE",
"137 123 CURVE SMOOTH",
"65 135 LINE",
"44 35 LINE",
"104 18 LINE SMOOTH",
"163 2 OFFCURVE",
"231 -10 OFFCURVE",
"307 -10 CURVE SMOOTH"
);
}
);
width = 632;
}
);
leftKerningGroup = S;
rightKerningGroup = S;
unicode = 0053;
},
{
glyphname = Germandbls;
lastChange = "2021-09-30 22:26:40 +0000";
layers = (
{
background = {
paths = (
{
closed = 1;
nodes = (
"527 658 LINE",
"463 690 OFFCURVE",
"391 710 OFFCURVE",
"322 710 CURVE SMOOTH",
"205 710 OFFCURVE",
"100 651 OFFCURVE",
"100 507 CURVE SMOOTH",
"100 0 LINE",
"139 0 LINE",
"139 507 LINE SMOOTH",
"139 624 OFFCURVE",
"222 674 OFFCURVE",
"323 674 CURVE SMOOTH",
"382 674 OFFCURVE",
"448 658 OFFCURVE",
"506 631 CURVE",
"501 657 LINE",
"297 373 LINE",
"297 349 LINE",
"353 349 LINE SMOOTH",
"498 349 OFFCURVE",
"563 289 OFFCURVE",
"563 192 CURVE SMOOTH",
"563 83 OFFCURVE",
"495 27 OFFCURVE",
"363 27 CURVE SMOOTH",
"331 27 OFFCURVE",
"291 30 OFFCURVE",
"258 36 CURVE SMOOTH",
"201 46 LINE",
"229 59 LINE",
"214 -5 LINE",
"204 15 LINE",
"248 2 LINE SMOOTH",
"282 -8 OFFCURVE",
"328 -10 OFFCURVE",
"363 -10 CURVE SMOOTH",
"509 -10 OFFCURVE",
"604 69 OFFCURVE",
"604 190 CURVE SMOOTH",
"604 310 OFFCURVE",
"528 385 OFFCURVE",
"356 385 CURVE SMOOTH",
"318 385 LINE",
"341 371 LINE",
"527 633 LINE"
);
}
);
};
layerId = "620D8D18-E43F-4D11-9420-7EF908A5CAE8";
paths = (
{
closed = 1;
nodes = (
"587 -10 OFFCURVE",
"682 69 OFFCURVE",
"682 190 CURVE SMOOTH",
"682 310 OFFCURVE",
"606 385 OFFCURVE",
"429 385 CURVE",
"605 633 LINE",
"605 658 LINE",
"536 692 OFFCURVE",
"455 710 OFFCURVE",
"379 710 CURVE SMOOTH",
"232 710 OFFCURVE",
"100 645 OFFCURVE",
"100 507 CURVE SMOOTH",
"100 0 LINE",
"139 0 LINE",
"139 507 LINE SMOOTH",
"139 622 OFFCURVE",
"254 674 OFFCURVE",
"382 674 CURVE SMOOTH",
"444 674 OFFCURVE",
"509 663 OFFCURVE",
"566 639 CURVE",
"375 373 LINE",
"375 349 LINE",
"431 349 LINE SMOOTH",
"576 349 OFFCURVE",
"641 289 OFFCURVE",
"641 192 CURVE SMOOTH",
"641 83 OFFCURVE",
"573 27 OFFCURVE",
"441 27 CURVE SMOOTH",
"409 27 OFFCURVE",
"369 30 OFFCURVE",
"336 36 CURVE SMOOTH",
"303 42 LINE",
"296 11 LINE",
"326 2 LINE SMOOTH",
"360 -8 OFFCURVE",
"406 -10 OFFCURVE",
"441 -10 CURVE SMOOTH"
);
}
);
width = 722;
},
{
background = {
paths = (
{
closed = 1;
nodes = (
"616 -10 OFFCURVE",
"704 83 OFFCURVE",
"704 197 CURVE SMOOTH",
"704 323 OFFCURVE",
"610 404 OFFCURVE",
"450 404 CURVE SMOOTH",
"431 404 LINE",
"491 367 LINE",
"625 591 LINE",
"625 654 LINE",
"553 691 OFFCURVE",
"462 710 OFFCURVE",
"379 710 CURVE SMOOTH",
"205 710 OFFCURVE",
"54 645 OFFCURVE",
"54 484 CURVE SMOOTH",
"54 0 LINE",
"185 0 LINE",
"185 465 LINE SMOOTH",
"185 554 OFFCURVE",
"268 593 OFFCURVE",
"367 593 CURVE SMOOTH",
"419 593 OFFCURVE",
"474 582 OFFCURVE",
"519 559 CURVE",
"504 638 LINE",
"359 394 LINE",
"359 305 LINE",
"431 305 LINE SMOOTH",
"528 305 OFFCURVE",
"568 268 OFFCURVE",
"568 208 CURVE SMOOTH",
"568 138 OFFCURVE",
"519 103 OFFCURVE",
"431 103 CURVE SMOOTH",
"403 103 OFFCURVE",
"367 109 OFFCURVE",
"342 113 CURVE SMOOTH",
"286 123 LINE",
"308 135 LINE",
"283 -2 LINE",
"273 25 LINE",
"323 10 LINE SMOOTH",
"367 -3 OFFCURVE",
"410 -10 OFFCURVE",
"459 -10 CURVE SMOOTH"
);
}
);
};
layerId = "514A1583-697A-4C0A-B081-2869E94CF283";
paths = (
{
closed = 1;
nodes = (
"615 -10 OFFCURVE",
"702 83 OFFCURVE",
"702 197 CURVE SMOOTH",
"702 306 OFFCURVE",
"632 382 OFFCURVE",
"511 400 CURVE",
"624 591 LINE",
"624 654 LINE",
"553 691 OFFCURVE",
"464 710 OFFCURVE",
"382 710 CURVE SMOOTH",
"211 710 OFFCURVE",
"63 645 OFFCURVE",
"63 484 CURVE SMOOTH",
"63 0 LINE",
"194 0 LINE",
"194 465 LINE SMOOTH",
"194 554 OFFCURVE",
"273 593 OFFCURVE",
"370 593 CURVE SMOOTH",
"403 593 OFFCURVE",
"438 588 OFFCURVE",
"470 579 CURVE",
"363 400 LINE",
"363 305 LINE",
"434 305 LINE SMOOTH",
"529 305 OFFCURVE",
"568 268 OFFCURVE",
"568 208 CURVE SMOOTH",
"568 138 OFFCURVE",
"520 103 OFFCURVE",
"434 103 CURVE SMOOTH",
"407 103 OFFCURVE",
"369 108 OFFCURVE",
"346 113 CURVE SMOOTH",
"310 119 LINE",
"292 21 LINE",
"327 10 LINE SMOOTH",
"370 -4 OFFCURVE",
"413 -10 OFFCURVE",
"461 -10 CURVE SMOOTH"
);
}
);
width = 727;
},
{
background = {
paths = (
{
closed = 1;
nodes = (
"667 -9 OFFCURVE",
"748 96 OFFCURVE",
"748 204 CURVE SMOOTH",
"748 322 OFFCURVE",
"679 400 OFFCURVE",
"510 400 CURVE",
"542 362 LINE",
"667 548 LINE",
"667 649 LINE",
"589 689 OFFCURVE",
"495 709 OFFCURVE",
"405 709 CURVE SMOOTH",
"206 709 OFFCURVE",
"45 644 OFFCURVE",
"45 461 CURVE SMOOTH",
"45 0 LINE",
"268 0 LINE",
"268 441 LINE SMOOTH",
"268 504 OFFCURVE",
"319 530 OFFCURVE",
"389 530 CURVE SMOOTH",
"425 530 OFFCURVE",
"462 517 OFFCURVE",
"491 492 CURVE",
"502 605 LINE",
"365 398 LINE",
"365 284 LINE",
"461 284 LINE SMOOTH",
"519 284 OFFCURVE",
"536 261 OFFCURVE",
"536 228 CURVE SMOOTH",
"536 185 OFFCURVE",
"501 165 OFFCURVE",
"452 165 CURVE SMOOTH",
"427 165 OFFCURVE",
"394 171 OFFCURVE",
"374 174 CURVE SMOOTH",
"315 184 LINE",
"338 210 LINE",
"302 2 LINE",
"287 34 LINE",
"342 17 LINE SMOOTH",
"396 0 OFFCURVE",
"437 -9 OFFCURVE",
"500 -9 CURVE SMOOTH"
);
}
);
};
guideLines = (
{
angle = 90;
position = "{627, 703}";
}
);
layerId = "5C950900-0D0F-4959-81DE-75F048290F1B";
paths = (
{
closed = 1;
nodes = (
"682 -9 OFFCURVE",
"763 96 OFFCURVE",
"763 204 CURVE SMOOTH",
"763 308 OFFCURVE",
"709 381 OFFCURVE",
"581 397 CURVE",
"682 548 LINE",
"682 649 LINE",
"608 689 OFFCURVE",
"506 709 OFFCURVE",
"417 709 CURVE SMOOTH",
"215 709 OFFCURVE",
"45 644 OFFCURVE",
"45 461 CURVE SMOOTH",
"45 0 LINE",
"268 0 LINE",
"268 441 LINE SMOOTH",
"268 504 OFFCURVE",
"319 530 OFFCURVE",
"389 530 CURVE SMOOTH",
"413 530 OFFCURVE",
"437 526 OFFCURVE",
"460 518 CURVE",
"380 398 LINE",
"380 284 LINE",
"476 284 LINE SMOOTH",
"534 284 OFFCURVE",
"551 261 OFFCURVE",
"551 228 CURVE SMOOTH",
"551 185 OFFCURVE",
"516 165 OFFCURVE",
"467 165 CURVE SMOOTH",
"442 165 OFFCURVE",
"409 171 OFFCURVE",
"389 174 CURVE SMOOTH",
"348 181 LINE",
"321 28 LINE",
"357 17 LINE SMOOTH",
"411 0 OFFCURVE",
"452 -9 OFFCURVE",
"515 -9 CURVE SMOOTH"
);
}
);
width = 773;
}
);
unicode = 1E9E;
},
{
glyphname = Schwa;
lastChange = "2021-09-30 22:26:40 +0000";
layers = (
{
background = {
components = (
{
name = O;
transform = "{1, 0, 0, 1, -54, 0}";
}
);
};
layerId = "620D8D18-E43F-4D11-9420-7EF908A5CAE8";
paths = (
{
closed = 1;
nodes = (
"556 -10 OFFCURVE",
"696 155 OFFCURVE",
"696 351 CURVE SMOOTH",
"696 574 OFFCURVE",
"555 710 OFFCURVE",
"338 710 CURVE SMOOTH",
"264 710 OFFCURVE",
"195 697 OFFCURVE",
"135 676 CURVE SMOOTH",
"93 662 LINE",
"102 634 LINE",
"143 647 LINE SMOOTH",
"208 667 OFFCURVE",
"269 674 OFFCURVE",
"334 674 CURVE SMOOTH",
"523 674 OFFCURVE",
"656 554 OFFCURVE",
"656 346 CURVE",
"60 346 LINE",
"60 323 LINE SMOOTH",
"60 146 OFFCURVE",
"155 -10 OFFCURVE",
"363 -10 CURVE SMOOTH"
);
},
{
closed = 1;
nodes = (
"654 310 LINE",
"637 137 OFFCURVE",
"512 26 OFFCURVE",
"363 26 CURVE SMOOTH",
"197 26 OFFCURVE",
"105 140 OFFCURVE",
"99 310 CURVE"
);
}
);
width = 761;
},
{
background = {
paths = (
{
closed = 1;
nodes = (
"564 -10 OFFCURVE",
"724 133 OFFCURVE",
"724 351 CURVE SMOOTH",
"724 570 OFFCURVE",
"579 710 OFFCURVE",
"362 710 CURVE SMOOTH",
"281 710 OFFCURVE",
"207 699 OFFCURVE",
"139 674 CURVE SMOOTH",
"64 647 LINE",
"71 694 LINE",
"116 510 LINE",
"94 552 LINE",
"172 569 LINE SMOOTH",
"235 583 OFFCURVE",
"291 589 OFFCURVE",
"345 589 CURVE SMOOTH",
"500 589 OFFCURVE",
"591 512 OFFCURVE",
"591 349 CURVE SMOOTH",
"591 185 OFFCURVE",
"505 108 OFFCURVE",
"385 108 CURVE SMOOTH",
"257 108 OFFCURVE",
"197 186 OFFCURVE",
"197 326 CURVE",
"150 285 LINE",
"619 285 LINE",
"619 390 LINE",
"50 390 LINE",
"50 342 LINE SMOOTH",
"50 139 OFFCURVE",
"162 -10 OFFCURVE",
"370 -10 CURVE SMOOTH"
);
}
);
};
layerId = "514A1583-697A-4C0A-B081-2869E94CF283";
paths = (
{
closed = 1;
nodes = (
"574 -10 OFFCURVE",
"724 133 OFFCURVE",
"724 351 CURVE SMOOTH",
"724 570 OFFCURVE",
"579 710 OFFCURVE",
"362 710 CURVE SMOOTH",
"281 710 OFFCURVE",
"207 699 OFFCURVE",
"139 674 CURVE SMOOTH",
"81 653 LINE",
"105 554 LINE",
"172 569 LINE SMOOTH",
"235 583 OFFCURVE",
"291 589 OFFCURVE",
"345 589 CURVE SMOOTH",
"486 589 OFFCURVE",
"574 525 OFFCURVE",
"589 390 CURVE",
"50 390 LINE",
"50 342 LINE SMOOTH",
"50 139 OFFCURVE",
"163 -10 OFFCURVE",
"380 -10 CURVE SMOOTH"
);
},
{
closed = 1;
nodes = (
"586 285 LINE",
"566 165 OFFCURVE",
"488 108 OFFCURVE",
"385 108 CURVE SMOOTH",
"270 108 OFFCURVE",
"210 171 OFFCURVE",
"199 285 CURVE"
);
}
);
width = 774;
},
{
background = {
paths = (
{
closed = 1;
nodes = (
"561 -9 OFFCURVE",
"742 111 OFFCURVE",
"742 351 CURVE SMOOTH",
"742 566 OFFCURVE",
"592 709 OFFCURVE",
"375 709 CURVE SMOOTH",
"277 709 OFFCURVE",
"193 696 OFFCURVE",
"108 669 CURVE SMOOTH",
"13 638 LINE",
"47 693 LINE",
"102 404 LINE",
"69 483 LINE",
"177 499 LINE SMOOTH",
"243 509 OFFCURVE",
"300 514 OFFCURVE",
"346 514 CURVE SMOOTH",
"466 514 OFFCURVE",
"522 469 OFFCURVE",
"522 348 CURVE SMOOTH",
"522 216 OFFCURVE",
"476 180 OFFCURVE",
"397 180 CURVE SMOOTH",
"312 180 OFFCURVE",
"286 223 OFFCURVE",
"286 322 CURVE",
"213 273 LINE",
"550 273 LINE",
"550 420 LINE",
"30 420 LINE",
"30 360 LINE SMOOTH",
"30 132 OFFCURVE",
"159 -9 OFFCURVE",
"367 -9 CURVE SMOOTH"
);
}
);
};
layerId = "5C950900-0D0F-4959-81DE-75F048290F1B";
paths = (
{
closed = 1;
nodes = (
"578 -9 OFFCURVE",
"742 111 OFFCURVE",
"742 351 CURVE SMOOTH",
"742 566 OFFCURVE",
"592 709 OFFCURVE",
"375 709 CURVE SMOOTH",
"277 709 OFFCURVE",
"193 696 OFFCURVE",
"108 669 CURVE SMOOTH",
"55 652 LINE",
"86 486 LINE",
"177 499 LINE SMOOTH",
"243 509 OFFCURVE",
"300 514 OFFCURVE",
"346 514 CURVE SMOOTH",
"438 514 OFFCURVE",
"493 488 OFFCURVE",
"513 420 CURVE",
"30 420 LINE",
"30 360 LINE SMOOTH",
"30 132 OFFCURVE",
"161 -9 OFFCURVE",
"384 -9 CURVE SMOOTH"
);
},
{
closed = 1;
nodes = (
"515 273 LINE",
"500 202 OFFCURVE",
"458 180 OFFCURVE",
"397 180 CURVE SMOOTH",
"328 180 OFFCURVE",
"298 209 OFFCURVE",
"289 273 CURVE"
);
}
);
width = 777;
}
);
rightMetricsKey = O;
unicode = 018F;
},
{
color = 4;
glyphname = T;
lastChange = "2021-09-30 22:26:40 +0000";
layers = (
{
anchors = (
{
name = bottom;
position = "{322, -35}";
},
{
name = top.case;
position = "{321, 720}";
}
);
layerId = "620D8D18-E43F-4D11-9420-7EF908A5CAE8";
paths = (
{
closed = 1;
nodes = (
"341 0 LINE",
"341 664 LINE",
"612 664 LINE",
"612 700 LINE",
"30 700 LINE",
"30 664 LINE",
"302 664 LINE",
"302 0 LINE"
);
}
);
width = 642;
},
{
anchors = (
{
name = bottom;
position = "{345, -35}";
},
{
name = top.case;
position = "{345, 720}";
}
);
layerId = "5C950900-0D0F-4959-81DE-75F048290F1B";
paths = (
{
closed = 1;
nodes = (
"457 0 LINE",
"457 505 LINE",
"665 505 LINE",
"665 700 LINE",
"25 700 LINE",
"25 505 LINE",
"234 505 LINE",
"234 0 LINE"
);
}
);
width = 690;
},
{
anchors = (
{
name = bottom;
position = "{346, -35}";
},
{
name = top.case;
position = "{336, 720}";
}
);
background = {
paths = (
{
closed = 1;
nodes = (
"402 0 LINE",
"402 580 LINE",
"642 580 LINE",
"642 700 LINE",
"31 700 LINE",
"31 580 LINE",
"271 580 LINE",
"271 0 LINE"
);
}
);
};
layerId = "514A1583-697A-4C0A-B081-2869E94CF283";
paths = (
{
closed = 1;
nodes = (
"402 0 LINE",
"402 585 LINE",
"641 585 LINE",
"641 700 LINE",
"30 700 LINE",
"30 585 LINE",
"271 585 LINE",
"271 0 LINE"
);
}
);
width = 671;
}
);
leftKerningGroup = T;
rightKerningGroup = T;
unicode = 0054;
},
{
color = 3;
glyphname = Tbar;
lastChange = "2021-09-30 22:26:40 +0000";
layers = (
{
components = (
{
name = T;
}
);
layerId = "620D8D18-E43F-4D11-9420-7EF908A5CAE8";
paths = (
{
closed = 1;
nodes = (
"505 350 LINE",
"505 386 LINE",
"137 386 LINE",
"137 350 LINE"
);
}
);
width = 642;
},
{
components = (
{
alignment = -1;
name = T;
}
);
layerId = "514A1583-697A-4C0A-B081-2869E94CF283";
paths = (
{
closed = 1;
nodes = (
"553 294 LINE",
"553 382 LINE",
"119 382 LINE",
"119 294 LINE"
);
}
);
width = 671;
},
{
components = (
{
name = T;
}
);
layerId = "5C950900-0D0F-4959-81DE-75F048290F1B";
paths = (
{
closed = 1;
nodes = (
"597 250 LINE",
"597 368 LINE",
"94 368 LINE",
"94 250 LINE"
);
}
);
width = 690;
}
);
leftKerningGroup = T;
leftMetricsKey = T;
rightKerningGroup = T;
rightMetricsKey = T;
unicode = 0166;
},
{
glyphname = U;
lastChange = "2021-09-30 22:26:40 +0000";
layers = (
{
anchors = (
{
name = bottom;
position = "{366, -35}";
},
{
name = ogonek;
position = "{405, 10}";
},
{
name = top.case;
position = "{365, 720}";
}
);
background = {
paths = (
{
closed = 1;
nodes = (
"144 0 LINE",
"144 346 LINE",
"616 346 LINE",
"616 0 LINE",
"655 0 LINE",
"655 700 LINE",
"616 700 LINE",
"616 382 LINE",
"144 382 LINE",
"144 700 LINE",
"105 700 LINE",
"105 0 LINE"
);
}
);
};
layerId = "620D8D18-E43F-4D11-9420-7EF908A5CAE8";
paths = (
{
closed = 1;
nodes = (
"532 -10 OFFCURVE",
"640 76 OFFCURVE",
"640 274 CURVE SMOOTH",
"640 700 LINE",
"603 700 LINE",
"603 285 LINE SMOOTH",
"603 100 OFFCURVE",
"517 26 OFFCURVE",
"366 26 CURVE SMOOTH",
"218 26 OFFCURVE",
"129 100 OFFCURVE",
"129 285 CURVE SMOOTH",
"129 700 LINE",
"90 700 LINE",
"90 274 LINE SMOOTH",
"90 75 OFFCURVE",
"200 -10 OFFCURVE",
"366 -10 CURVE SMOOTH"
);
}
);
width = 730;
},
{
anchors = (
{
name = bottom;
position = "{379, -35}";
},
{
name = ogonek;
position = "{429, 10}";
},
{
name = top.case;
position = "{380, 720}";
}
);
background = {
paths = (
{
closed = 1;
nodes = (
"633 -9 OFFCURVE",
"780 131 OFFCURVE",
"780 349 CURVE SMOOTH",
"780 568 OFFCURVE",
"642 709 OFFCURVE",
"410 709 CURVE SMOOTH",
"187 709 OFFCURVE",
"40 569 OFFCURVE",
"40 351 CURVE SMOOTH",
"40 132 OFFCURVE",
"178 -9 OFFCURVE",
"410 -9 CURVE SMOOTH"
);
},
{
closed = 1;
nodes = (
"317 196 OFFCURVE",
"267 228 OFFCURVE",
"267 349 CURVE SMOOTH",
"267 472 OFFCURVE",
"321 504 OFFCURVE",
"410 504 CURVE SMOOTH",
"503 504 OFFCURVE",
"553 472 OFFCURVE",
"553 351 CURVE SMOOTH",
"553 228 OFFCURVE",
"499 196 OFFCURVE",
"410 196 CURVE SMOOTH"
);
}
);
};
guideLines = (
{
position = "{582, 286}";
}
);
layerId = "5C950900-0D0F-4959-81DE-75F048290F1B";
paths = (
{
closed = 1;
nodes = (
"583 -9 OFFCURVE",
"721 106 OFFCURVE",
"721 286 CURVE SMOOTH",
"721 700 LINE",
"505 700 LINE",
"505 315 LINE SMOOTH",
"505 223 OFFCURVE",
"463 198 OFFCURVE",
"386 198 CURVE SMOOTH",
"307 198 OFFCURVE",
"263 223 OFFCURVE",
"263 315 CURVE SMOOTH",
"263 700 LINE",
"40 700 LINE",
"40 286 LINE SMOOTH",
"40 106 OFFCURVE",
"166 -9 OFFCURVE",
"379 -9 CURVE SMOOTH"
);
}
);
width = 761;
},
{
anchors = (
{
name = bottom;
position = "{370, -35}";
},
{
name = ogonek;
position = "{415, 10}";
},
{
name = top.case;
position = "{370, 720}";
}
);
background = {
paths = (
{
closed = 1;
nodes = (
"539 -10 OFFCURVE",
"657 91 OFFCURVE",
"657 280 CURVE SMOOTH",
"657 700 LINE",
"530 700 LINE",
"530 301 LINE SMOOTH",
"530 164 OFFCURVE",
"470 116 OFFCURVE",
"364 116 CURVE SMOOTH",
"259 116 OFFCURVE",
"196 164 OFFCURVE",
"196 301 CURVE SMOOTH",
"196 700 LINE",
"65 700 LINE",
"65 280 LINE SMOOTH",
"65 91 OFFCURVE",
"179 -10 OFFCURVE",
"361 -10 CURVE SMOOTH"
);
}
);
};
guideLines = (
{
position = "{261, 116}";
}
);
layerId = "514A1583-697A-4C0A-B081-2869E94CF283";
paths = (
{
closed = 1;
nodes = (
"555 -10 OFFCURVE",
"678 91 OFFCURVE",
"678 280 CURVE SMOOTH",
"678 700 LINE",
"552 700 LINE",
"552 302 LINE SMOOTH",
"552 163 OFFCURVE",
"488 114 OFFCURVE",
"374 114 CURVE SMOOTH",
"260 114 OFFCURVE",
"194 163 OFFCURVE",
"194 302 CURVE SMOOTH",
"194 700 LINE",
"63 700 LINE",
"63 280 LINE SMOOTH",
"63 91 OFFCURVE",
"181 -10 OFFCURVE",
"370 -10 CURVE SMOOTH"
);
}
);
width = 741;
}
);
leftKerningGroup = U;
rightKerningGroup = U;
unicode = 0055;
},
{
glyphname = Uhorn;
lastChange = "2021-09-30 22:26:40 +0000";
layers = (
{
anchors = (
{
name = bottom;
position = "{366, -35}";
},
{
name = ogonek;
position = "{405, 10}";
},
{
name = top.case;
position = "{365, 720}";
}
);
background = {
paths = (
{
closed = 1;
nodes = (
"801 635 OFFCURVE",
"864 660 OFFCURVE",
"864 771 CURVE SMOOTH",
"864 806 OFFCURVE",
"851 844 OFFCURVE",
"828 883 CURVE",
"894 865 LINE",
"769 839 LINE",
"815 878 LINE",
"822 836 OFFCURVE",
"828 798 OFFCURVE",
"828 770 CURVE SMOOTH",
"828 674 OFFCURVE",
"769 674 OFFCURVE",
"698 684 CURVE",
"698 654 LINE"
);
}
);
};
components = (
{
name = U;
}
);
layerId = "620D8D18-E43F-4D11-9420-7EF908A5CAE8";
paths = (
{
closed = 1;
nodes = (
"823 648 OFFCURVE",
"864 682 OFFCURVE",
"864 771 CURVE SMOOTH",
"864 798 OFFCURVE",
"857 826 OFFCURVE",
"843 854 CURVE",
"820 850 LINE",
"824 819 OFFCURVE",
"828 791 OFFCURVE",
"828 770 CURVE SMOOTH",
"828 697 OFFCURVE",
"794 680 OFFCURVE",
"747 680 CURVE SMOOTH",
"714 680 OFFCURVE",
"677 690 OFFCURVE",
"640 700 CURVE",
"633 668 LINE",
"676 655 OFFCURVE",
"717 648 OFFCURVE",
"754 648 CURVE SMOOTH"
);
}
);
width = 730;
},
{
anchors = (
{
name = bottom;
position = "{370, -35}";
},
{
name = ogonek;
position = "{415, 10}";
},
{
name = top.case;
position = "{370, 720}";
}
);
background = {
paths = (
{
closed = 1;
nodes = (
"870 582 OFFCURVE",
"925 624 OFFCURVE",
"925 736 CURVE SMOOTH",
"925 799 OFFCURVE",
"894 875 OFFCURVE",
"857 936 CURVE",
"956 903 LINE",
"753 861 LINE",
"783 916 LINE",
"795 852 OFFCURVE",
"801 820 OFFCURVE",
"801 790 CURVE SMOOTH",
"801 714 OFFCURVE",
"774 692 OFFCURVE",
"732 692 CURVE SMOOTH",
"724 692 OFFCURVE",
"714 694 OFFCURVE",
"705 695 CURVE",
"700 588 LINE",
"723 585 OFFCURVE",
"744 582 OFFCURVE",
"779 582 CURVE SMOOTH"
);
}
);
};
components = (
{
alignment = -1;
name = U;
}
);
layerId = "514A1583-697A-4C0A-B081-2869E94CF283";
paths = (
{
closed = 1;
nodes = (
"859 582 OFFCURVE",
"925 612 OFFCURVE",
"925 731 CURVE SMOOTH",
"925 779 OFFCURVE",
"909 836 OFFCURVE",
"884 887 CURVE",
"792 867 LINE",
"798 832 OFFCURVE",
"800 802 OFFCURVE",
"800 776 CURVE SMOOTH",
"800 716 OFFCURVE",
"769 692 OFFCURVE",
"736 692 CURVE SMOOTH",
"717 692 OFFCURVE",
"701 695 OFFCURVE",
"678 700 CURVE",
"658 600 LINE",
"689 588 OFFCURVE",
"728 582 OFFCURVE",
"764 582 CURVE SMOOTH"
);
}
);
width = 813;
},
{
anchors = (
{
name = bottom;
position = "{374, -35}";
},
{
name = ogonek;
position = "{424, 10}";
},
{
name = top.case;
position = "{375, 720}";
}
);
background = {
paths = (
{
closed = 1;
nodes = (
"916 556 OFFCURVE",
"984 628 OFFCURVE",
"984 750 CURVE SMOOTH",
"984 823 OFFCURVE",
"950 895 OFFCURVE",
"897 968 CURVE",
"1016 917 LINE",
"735 858 LINE",
"810 892 LINE",
"819 847 OFFCURVE",
"830 805 OFFCURVE",
"830 773 CURVE SMOOTH",
"830 692 OFFCURVE",
"788 684 OFFCURVE",
"755 684 CURVE SMOOTH",
"752 684 OFFCURVE",
"749 685 OFFCURVE",
"747 685 CURVE",
"715 560 LINE",
"736 558 OFFCURVE",
"755 556 OFFCURVE",
"773 556 CURVE SMOOTH"
);
}
);
};
components = (
{
name = U;
}
);
layerId = "5C950900-0D0F-4959-81DE-75F048290F1B";
paths = (
{
closed = 1;
nodes = (
"894 557 OFFCURVE",
"985 609 OFFCURVE",
"985 745 CURVE SMOOTH",
"985 800 OFFCURVE",
"968 851 OFFCURVE",
"940 902 CURVE",
"815 875 LINE",
"823 837 OFFCURVE",
"831 802 OFFCURVE",
"831 774 CURVE SMOOTH",
"831 714 OFFCURVE",
"808 693 OFFCURVE",
"764 694 CURVE SMOOTH",
"750 694 OFFCURVE",
"734 696 OFFCURVE",
"716 700 CURVE",
"683 572 LINE",
"701 563 OFFCURVE",
"738 557 OFFCURVE",
"774 557 CURVE SMOOTH"
);
}
);
width = 895;
}
);
leftMetricsKey = U;
unicode = 01AF;
},
{
glyphname = V;
lastChange = "2021-09-30 23:32:25 +0000";
layers = (
{
background = {
paths = (
{
closed = 1;
nodes = (
"350 -5 LINE",
"640 700 LINE",
"598 700 LINE",
"327 34 LINE",
"325 34 LINE",
"54 700 LINE",
"10 700 LINE",
"299 -5 LINE"
);
}
);
};
guideLines = (
{
position = "{425, 23}";
}
);
layerId = "620D8D18-E43F-4D11-9420-7EF908A5CAE8";
paths = (
{
closed = 1;
nodes = (
"354 -5 LINE",
"640 700 LINE",
"598 700 LINE",
"327 23 LINE",
"325 23 LINE",
"54 700 LINE",
"10 700 LINE",
"295 -5 LINE"
);
}
);
width = 650;
},
{
background = {
paths = (
{
closed = 1;
nodes = (
"564 700 LINE",
"419 227 LINE",
"416 227 LINE",
"272 700 LINE",
"38 700 LINE",
"290 0 LINE",
"539 0 LINE",
"793 700 LINE"
);
},
{
closed = 1;
nodes = (
"269 602 LINE",
"269 439 LINE",
"565 439 LINE",
"565 602 LINE"
);
}
);
};
layerId = "5C950900-0D0F-4959-81DE-75F048290F1B";
paths = (
{
closed = 1;
nodes = (
"534 0 LINE",
"808 700 LINE",
"564 700 LINE",
"419 247 LINE",
"415 247 LINE",
"262 700 LINE",
"20 700 LINE",
"287 0 LINE"
);
}
);
width = 828;
},
{
background = {
paths = (
{
closed = 1;
nodes = (
"444 -3 LINE",
"726 700 LINE",
"583 700 LINE",
"375 141 LINE",
"372 141 LINE",
"160 700 LINE",
"17 700 LINE",
"295 -3 LINE"
);
}
);
};
layerId = "514A1583-697A-4C0A-B081-2869E94CF283";
paths = (
{
closed = 1;
nodes = (
"438 -6 LINE",
"724 700 LINE",
"582 700 LINE",
"375 163 LINE",
"372 163 LINE",
"160 700 LINE",
"15 700 LINE",
"300 -6 LINE"
);
}
);
width = 739;
}
);
leftMetricsKey = "=A+5";
rightMetricsKey = "=A+5";
unicode = 0056;
},
{
glyphname = W;
lastChange = "2021-09-30 22:26:40 +0000";
layers = (
{
anchors = (
{
name = top.case;
position = "{527, 720}";
}
);
background = {
paths = (
{
closed = 1;
nodes = (
"316 -5 LINE",
"526 647 LINE",
"535 647 LINE",
"515 686 LINE",
"733 -5 LINE",
"768 -5 LINE",
"1015 700 LINE",
"977 700 LINE",
"753 48 LINE",
"730 48 LINE",
"762 13 LINE",
"548 700 LINE",
"508 700 LINE",
"298 48 LINE",
"285 48 LINE",
"311 9 LINE",
"76 700 LINE",
"35 700 LINE",
"280 -5 LINE"
);
}
);
};
guideLines = (
{
position = "{427, 23}";
}
);
layerId = "620D8D18-E43F-4D11-9420-7EF908A5CAE8";
paths = (
{
closed = 1;
nodes = (
"325 -5 LINE",
"525 671 LINE",
"527 671 LINE",
"725 -5 LINE",
"776 -5 LINE",
"1015 700 LINE",
"977 700 LINE",
"753 23 LINE",
"751 23 LINE",
"556 700 LINE",
"500 700 LINE",
"299 23 LINE",
"297 23 LINE",
"76 700 LINE",
"35 700 LINE",
"271 -5 LINE"
);
}
);
width = 1050;
},
{
anchors = (
{
name = top.case;
position = "{562, 720}";
}
);
background = {
paths = (
{
closed = 1;
nodes = (
"454 0 LINE",
"561 389 LINE",
"580 389 LINE",
"555 448 LINE",
"691 0 LINE",
"910 0 LINE",
"1135 700 LINE",
"911 700 LINE",
"793 275 LINE",
"754 275 LINE",
"790 267 LINE",
"669 700 LINE",
"478 700 LINE",
"364 273 LINE",
"348 273 LINE",
"362 258 LINE",
"242 700 LINE",
"10 700 LINE",
"245 0 LINE"
);
}
);
};
guideLines = (
{
angle = 90;
position = "{562, 258}";
},
{
position = "{489, 306}";
}
);
layerId = "5C950900-0D0F-4959-81DE-75F048290F1B";
paths = (
{
closed = 1;
nodes = (
"454 0 LINE",
"565 405 LINE",
"568 405 LINE",
"691 0 LINE",
"910 0 LINE",
"1135 700 LINE",
"911 700 LINE",
"793 275 LINE",
"788 275 LINE",
"669 700 LINE",
"478 700 LINE",
"364 273 LINE",
"358 273 LINE",
"242 700 LINE",
"10 700 LINE",
"245 0 LINE"
);
}
);
width = 1135;
},
{
anchors = (
{
name = top.case;
position = "{545, 720}";
}
);
background = {
paths = (
{
closed = 1;
nodes = (
"400 -6 LINE",
"549 488 LINE",
"569 488 LINE",
"529 560 LINE",
"703 -6 LINE",
"844 -6 LINE",
"1071 700 LINE",
"940 700 LINE",
"778 182 LINE",
"756 182 LINE",
"787 141 LINE",
"616 704 LINE",
"484 704 LINE",
"332 194 LINE",
"314 194 LINE",
"344 140 LINE",
"170 700 LINE",
"30 700 LINE",
"262 -6 LINE"
);
}
);
};
guideLines = (
{
position = "{527, 194}";
}
);
layerId = "514A1583-697A-4C0A-B081-2869E94CF283";
paths = (
{
closed = 1;
nodes = (
"400 -6 LINE",
"550 506 LINE",
"552 506 LINE",
"703 -6 LINE",
"844 -6 LINE",
"1071 700 LINE",
"940 700 LINE",
"778 180 LINE",
"775 180 LINE",
"616 704 LINE",
"484 704 LINE",
"330 172 LINE",
"328 172 LINE",
"170 700 LINE",
"30 700 LINE",
"262 -6 LINE"
);
}
);
width = 1101;
},
{
anchors = (
{
name = top.case;
position = "{522, 720}";
}
);
associatedMasterId = "5C950900-0D0F-4959-81DE-75F048290F1B";
background = {
paths = (
{
closed = 1;
nodes = (
"414 0 LINE",
"521 389 LINE",
"540 389 LINE",
"505 448 LINE",
"641 0 LINE",
"860 0 LINE",
"1065 700 LINE",
"841 700 LINE",
"731 306 LINE",
"712 306 LINE",
"740 267 LINE",
"619 700 LINE",
"438 700 LINE",
"331 306 LINE",
"315 306 LINE",
"342 258 LINE",
"222 700 LINE",
"-10 700 LINE",
"205 0 LINE"
);
}
);
};
guideLines = (
{
angle = 90;
position = "{522, 258}";
},
{
position = "{449, 306}";
}
);
layerId = "66F14BB0-BDB1-42B2-A6DB-4EBF702D902D";
name = "Jul 8 18, 19:44";
paths = (
{
closed = 1;
nodes = (
"471 680 LINE",
"371 306 LINE",
"355 306 LINE",
"382 258 LINE",
"262 700 LINE",
"30 700 LINE",
"245 0 LINE",
"444 0 LINE",
"561 435 LINE"
);
},
{
closed = 1;
nodes = (
"641 0 LINE",
"860 0 LINE",
"1065 700 LINE",
"841 700 LINE",
"731 306 LINE",
"712 306 LINE",
"740 267 LINE",
"619 700 LINE",
"428 700 LINE"
);
}
);
width = 1095;
},
{
anchors = (
{
name = top.case;
position = "{492, 720}";
}
);
associatedMasterId = "514A1583-697A-4C0A-B081-2869E94CF283";
background = {
paths = (
{
closed = 1;
nodes = (
"340 -6 LINE",
"479 488 LINE",
"499 488 LINE",
"459 560 LINE",
"623 -6 LINE",
"764 -6 LINE",
"981 700 LINE",
"850 700 LINE",
"698 182 LINE",
"676 182 LINE",
"707 141 LINE",
"546 704 LINE",
"414 704 LINE",
"272 194 LINE",
"254 194 LINE",
"284 140 LINE",
"120 700 LINE",
"-20 700 LINE",
"202 -6 LINE"
);
}
);
};
guideLines = (
{
position = "{477, 194}";
}
);
layerId = "4EB94962-85DB-403C-801D-EF79D9496F57";
name = "Jul 8 18, 19:46";
paths = (
{
closed = 1;
nodes = (
"459 686 LINE",
"322 194 LINE",
"304 194 LINE",
"334 140 LINE",
"170 700 LINE",
"30 700 LINE",
"252 -6 LINE",
"385 -6 LINE",
"528 503 LINE"
);
},
{
closed = 1;
nodes = (
"623 -6 LINE",
"764 -6 LINE",
"981 700 LINE",
"850 700 LINE",
"698 182 LINE",
"676 182 LINE",
"707 141 LINE",
"546 704 LINE",
"414 704 LINE"
);
}
);
width = 1011;
}
);
leftKerningGroup = W;
rightKerningGroup = W;
unicode = 0057;
},
{
glyphname = X;
lastChange = "2021-09-30 22:26:40 +0000";
layers = (
{
background = {
paths = (
{
closed = 1;
nodes = (
"628 0 LINE",
"352 361 LINE",
"340 371 LINE",
"90 700 LINE",
"40 700 LINE",
"310 347 LINE",
"321 338 LINE",
"580 0 LINE"
);
},
{
closed = 1;
nodes = (
"78 0 LINE",
"333 330 LINE",
"309 360 LINE",
"30 0 LINE"
);
},
{
closed = 1;
nodes = (
"618 700 LINE",
"572 700 LINE",
"320 360 LINE",
"344 330 LINE"
);
}
);
};
guideLines = (
{
angle = 90;
position = "{618, 252}";
}
);
layerId = "620D8D18-E43F-4D11-9420-7EF908A5CAE8";
paths = (
{
closed = 1;
nodes = (
"623 0 LINE",
"353 352 LINE",
"613 700 LINE",
"567 700 LINE",
"329 378 LINE",
"81 700 LINE",
"35 700 LINE",
"301 354 LINE",
"25 0 LINE",
"73 0 LINE",
"325 328 LINE",
"579 0 LINE"
);
}
);
width = 648;
},
{
background = {
paths = (
{
closed = 1;
nodes = (
"748 0 LINE",
"478 420 LINE",
"437 444 LINE",
"288 700 LINE",
"25 700 LINE",
"307 259 LINE",
"343 242 LINE",
"504 0 LINE"
);
},
{
closed = 1;
nodes = (
"259 0 LINE",
"396 213 LINE",
"264 394 LINE",
"20 0 LINE"
);
},
{
closed = 1;
nodes = (
"743 700 LINE",
"500 700 LINE",
"377 516 LINE",
"502 334 LINE"
);
}
);
};
guideLines = (
{
angle = 90;
position = "{20, 329}";
},
{
angle = 90;
position = "{753, 263}";
}
);
layerId = "5C950900-0D0F-4959-81DE-75F048290F1B";
paths = (
{
closed = 1;
nodes = (
"758 0 LINE",
"512 362 LINE",
"753 700 LINE",
"510 700 LINE",
"388 517 LINE",
"278 700 LINE",
"15 700 LINE",
"248 355 LINE",
"10 0 LINE",
"249 0 LINE",
"378 199 LINE",
"514 0 LINE"
);
}
);
width = 768;
},
{
background = {
paths = (
{
closed = 1;
nodes = (
"691 0 LINE",
"410 391 LINE",
"383 408 LINE",
"180 700 LINE",
"25 700 LINE",
"309 303 LINE",
"333 290 LINE",
"547 0 LINE"
);
},
{
closed = 1;
nodes = (
"161 0 LINE",
"357 272 LINE",
"290 377 LINE",
"18 0 LINE"
);
},
{
closed = 1;
nodes = (
"683 700 LINE",
"539 700 LINE",
"351 438 LINE",
"415 332 LINE"
);
}
);
};
layerId = "514A1583-697A-4C0A-B081-2869E94CF283";
paths = (
{
closed = 1;
nodes = (
"689 0 LINE",
"430 356 LINE",
"675 700 LINE",
"535 700 LINE",
"350 450 LINE",
"172 700 LINE",
"25 700 LINE",
"265 353 LINE",
"20 0 LINE",
"164 0 LINE",
"349 258 LINE",
"537 0 LINE"
);
}
);
width = 709;
}
);
unicode = 0058;
},
{
glyphname = Y;
lastChange = "2021-09-30 22:26:40 +0000";
layers = (
{
anchors = (
{
name = bottom;
position = "{325, -35}";
},
{
name = top.case;
position = "{330, 720}";
}
);
background = {
paths = (
{
closed = 1;
nodes = (
"531 0 LINE",
"531 210 LINE",
"808 700 LINE",
"564 700 LINE",
"423 410 LINE",
"419 410 LINE",
"279 700 LINE",
"25 700 LINE",
"308 202 LINE",
"308 0 LINE"
);
},
{
closed = 1;
nodes = (
"348 0 LINE",
"348 281 LINE",
"632 700 LINE",
"586 700 LINE",
"330 314 LINE",
"74 700 LINE",
"25 700 LINE",
"309 279 LINE",
"309 0 LINE"
);
}
);
};
guideLines = (
{
angle = 90;
position = "{325, 545}";
}
);
layerId = "620D8D18-E43F-4D11-9420-7EF908A5CAE8";
paths = (
{
closed = 1;
nodes = (
"348 0 LINE",
"348 280 LINE",
"632 700 LINE",
"584 700 LINE",
"332 314 LINE",
"328 314 LINE",
"74 700 LINE",
"25 700 LINE",
"309 278 LINE",
"309 0 LINE"
);
}
);
width = 657;
},
{
anchors = (
{
name = bottom;
position = "{419, -35}";
},
{
name = top.case;
position = "{421, 720}";
}
);
background = {
paths = (
{
closed = 1;
nodes = (
"576 105 LINE",
"271 735 LINE",
"69 638 LINE",
"375 8 LINE"
);
}
);
};
guideLines = (
{
angle = 90;
position = "{421, 640}";
}
);
layerId = "5C950900-0D0F-4959-81DE-75F048290F1B";
paths = (
{
closed = 1;
nodes = (
"531 0 LINE",
"531 210 LINE",
"808 700 LINE",
"564 700 LINE",
"423 410 LINE",
"419 410 LINE",
"279 700 LINE",
"25 700 LINE",
"308 202 LINE",
"308 0 LINE"
);
}
);
width = 833;
},
{
anchors = (
{
name = bottom;
position = "{370, -35}";
},
{
name = top.case;
position = "{372, 720}";
}
);
background = {
paths = (
{
closed = 1;
nodes = (
"440 0 LINE",
"440 245 LINE",
"720 700 LINE",
"574 700 LINE",
"377 362 LINE",
"373 362 LINE",
"177 700 LINE",
"25 700 LINE",
"309 240 LINE",
"309 0 LINE"
);
}
);
};
guideLines = (
{
angle = 90;
position = "{370, 614}";
}
);
layerId = "514A1583-697A-4C0A-B081-2869E94CF283";
paths = (
{
closed = 1;
nodes = (
"436 0 LINE",
"436 244 LINE",
"716 700 LINE",
"558 700 LINE",
"374 373 LINE",
"370 373 LINE",
"186 700 LINE",
"24 700 LINE",
"305 244 LINE",
"305 0 LINE"
);
}
);
width = 740;
}
);
leftKerningGroup = Y;
rightKerningGroup = Y;
unicode = 0059;
},
{
glyphname = Z;
lastChange = "2021-09-30 22:26:40 +0000";
layers = (
{
anchors = (
{
name = top.case;
position = "{297, 720}";
}
);
background = {
guideLines = (
{
angle = 90;
position = "{45, 232}";
}
);
paths = (
{
closed = 1;
nodes = (
"545 0 LINE",
"545 205 LINE",
"265 205 LINE",
"538 558 LINE",
"538 700 LINE",
"-64 700 LINE",
"-64 495 LINE",
"219 495 LINE",
"-69 120 LINE",
"-69 0 LINE"
);
}
);
};
guideLines = (
{
angle = 90;
position = "{35, 67}";
},
{
position = "{13, 664}";
}
);
layerId = "620D8D18-E43F-4D11-9420-7EF908A5CAE8";
paths = (
{
closed = 1;
nodes = (
"570 0 LINE",
"570 36 LINE",
"90 36 LINE",
"562 672 LINE",
"562 700 LINE",
"50 700 LINE",
"50 664 LINE",
"511 664 LINE",
"40 29 LINE",
"40 0 LINE"
);
}
);
width = 610;
},
{
anchors = (
{
name = top.case;
position = "{344, 720}";
}
);
background = {
guideLines = (
{
angle = 90;
position = "{634, 306}";
}
);
paths = (
{
closed = 1;
nodes = (
"649 0 LINE",
"649 205 LINE",
"362 205 LINE",
"642 532 LINE",
"642 700 LINE",
"40 700 LINE",
"40 495 LINE",
"333 495 LINE",
"35 160 LINE",
"35 0 LINE"
);
}
);
};
layerId = "5C950900-0D0F-4959-81DE-75F048290F1B";
paths = (
{
closed = 1;
nodes = (
"649 0 LINE",
"649 195 LINE",
"353 195 LINE",
"642 532 LINE",
"642 700 LINE",
"40 700 LINE",
"40 505 LINE",
"342 505 LINE",
"35 160 LINE",
"35 0 LINE"
);
}
);
width = 684;
},
{
anchors = (
{
name = top.case;
position = "{321, 720}";
}
);
background = {
paths = (
{
closed = 1;
nodes = (
"610 0 LINE",
"610 116 LINE",
"195 116 LINE",
"203 92 LINE",
"602 602 LINE",
"602 700 LINE",
"45 700 LINE",
"45 585 LINE",
"457 585 LINE",
"445 607 LINE",
"38 95 LINE",
"38 0 LINE"
);
}
);
};
layerId = "514A1583-697A-4C0A-B081-2869E94CF283";
paths = (
{
closed = 1;
nodes = (
"610 0 LINE",
"610 115 LINE",
"216 115 LINE",
"603 607 LINE",
"603 700 LINE",
"48 700 LINE",
"48 585 LINE",
"429 585 LINE",
"40 89 LINE",
"40 0 LINE"
);
}
);
width = 650;
}
);
leftKerningGroup = Z;
rightKerningGroup = Z;
unicode = 005A;
},
{
color = 4;
glyphname = a;
lastChange = "2021-09-30 22:26:40 +0000";
layers = (
{
anchors = (
{
name = bottom;
position = "{251, -35}";
},
{
name = ogonek;
position = "{437, 10}";
},
{
name = top;
position = "{255, 550}";
}
);
background = {
paths = (
{
closed = 1;
nodes = (
"518 39 LINE",
"536 20 LINE",
"442 21 OFFCURVE",
"424 33 OFFCURVE",
"424 85 CURVE SMOOTH",
"424 325 LINE SMOOTH",
"424 445 OFFCURVE",
"353 496 OFFCURVE",
"250 496 CURVE SMOOTH",
"196 496 OFFCURVE",
"143 484 OFFCURVE",
"95 464 CURVE SMOOTH",
"47 445 LINE",
"62 471 LINE",
"85 415 LINE",
"69 425 LINE",
"108 438 LINE SMOOTH",
"142 449 OFFCURVE",
"191 464 OFFCURVE",
"240 464 CURVE SMOOTH",
"329 464 OFFCURVE",
"389 423 OFFCURVE",
"389 321 CURVE SMOOTH",
"389 88 LINE",
"389 87 OFFCURVE",
"389 85 OFFCURVE",
"389 84 CURVE",
"389 80 LINE SMOOTH",
"389 29 OFFCURVE",
"416 -6 OFFCURVE",
"483 -6 CURVE SMOOTH",
"499 -6 OFFCURVE",
"513 -5 OFFCURVE",
"527 -1 CURVE",
"516 -25 LINE"
);
},
{
closed = 1;
nodes = (
"261 -6 OFFCURVE",
"321 12 OFFCURVE",
"366 52 CURVE SMOOTH",
"411 90 LINE",
"409 118 LINE",
"352 77 LINE SMOOTH",
"309 46 OFFCURVE",
"267 27 OFFCURVE",
"225 27 CURVE SMOOTH",
"142 27 OFFCURVE",
"86 64 OFFCURVE",
"86 128 CURVE SMOOTH",
"86 178 OFFCURVE",
"109 210 OFFCURVE",
"186 230 CURVE SMOOTH",
"412 290 LINE",
"412 321 LINE",
"178 261 LINE SMOOTH",
"97 240 OFFCURVE",
"50 205 OFFCURVE",
"50 126 CURVE SMOOTH",
"50 36 OFFCURVE",
"132 -6 OFFCURVE",
"212 -6 CURVE SMOOTH"
);
}
);
};
guideLines = (
{
angle = 90;
position = "{77, 184}";
},
{
angle = 90;
position = "{512, -54}";
}
);
layerId = "620D8D18-E43F-4D11-9420-7EF908A5CAE8";
paths = (
{
closed = 1;
nodes = (
"261 -6 OFFCURVE",
"320 13 OFFCURVE",
"366 52 CURVE SMOOTH",
"389 71 LINE",
"392 25 OFFCURVE",
"420 -6 OFFCURVE",
"483 -6 CURVE SMOOTH",
"499 -6 OFFCURVE",
"513 -5 OFFCURVE",
"516 -3 CURVE",
"517 20 LINE",
"439 23 OFFCURVE",
"424 37 OFFCURVE",
"424 85 CURVE SMOOTH",
"424 325 LINE SMOOTH",
"424 445 OFFCURVE",
"353 496 OFFCURVE",
"250 496 CURVE SMOOTH",
"196 496 OFFCURVE",
"143 484 OFFCURVE",
"95 462 CURVE SMOOTH",
"71 451 LINE",
"80 429 LINE",
"108 438 LINE SMOOTH",
"142 450 OFFCURVE",
"191 464 OFFCURVE",
"240 464 CURVE SMOOTH",
"329 464 OFFCURVE",
"389 423 OFFCURVE",
"389 321 CURVE SMOOTH",
"389 315 LINE",
"178 261 LINE SMOOTH",
"97 241 OFFCURVE",
"50 205 OFFCURVE",
"50 126 CURVE SMOOTH",
"50 36 OFFCURVE",
"132 -6 OFFCURVE",
"212 -6 CURVE SMOOTH"
);
},
{
closed = 1;
nodes = (
"142 27 OFFCURVE",
"86 64 OFFCURVE",
"86 128 CURVE SMOOTH",
"86 178 OFFCURVE",
"109 209 OFFCURVE",
"186 230 CURVE SMOOTH",
"389 284 LINE",
"389 104 LINE",
"352 77 LINE SMOOTH",
"309 46 OFFCURVE",
"267 27 OFFCURVE",
"225 27 CURVE SMOOTH"
);
}
);
width = 522;
},
{
anchors = (
{
name = bottom;
position = "{303, -35}";
},
{
name = ogonek;
position = "{464, 10}";
},
{
name = top;
position = "{288, 550}";
}
);
background = {
paths = (
{
closed = 1;
nodes = (
"598 190 LINE",
"622 130 LINE",
"558 139 OFFCURVE",
"537 147 OFFCURVE",
"537 180 CURVE SMOOTH",
"537 320 LINE SMOOTH",
"537 458 OFFCURVE",
"439 535 OFFCURVE",
"287 535 CURVE SMOOTH",
"220 535 OFFCURVE",
"152 519 OFFCURVE",
"88 496 CURVE SMOOTH",
"-84 435 LINE",
"37 535 LINE",
"88 309 LINE",
"27 344 LINE",
"108 359 LINE SMOOTH",
"153 367 OFFCURVE",
"197 371 OFFCURVE",
"238 371 CURVE SMOOTH",
"291 371 OFFCURVE",
"322 361 OFFCURVE",
"322 321 CURVE SMOOTH",
"322 164 LINE SMOOTH",
"322 152 OFFCURVE",
"324 141 OFFCURVE",
"326 130 CURVE",
"336 120 LINE",
"351 46 OFFCURVE",
"404 -9 OFFCURVE",
"516 -9 CURVE SMOOTH",
"541 -9 OFFCURVE",
"594 6 OFFCURVE",
"617 17 CURVE",
"572 -45 LINE"
);
},
{
closed = 1;
nodes = (
"250 -9 OFFCURVE",
"313 27 OFFCURVE",
"363 73 CURVE",
"330 157 LINE",
"295 141 OFFCURVE",
"269 133 OFFCURVE",
"247 133 CURVE SMOOTH",
"225 133 OFFCURVE",
"209 145 OFFCURVE",
"209 169 CURVE SMOOTH",
"209 187 OFFCURVE",
"216 202 OFFCURVE",
"250 210 CURVE SMOOTH",
"327 229 LINE",
"328 328 LINE",
"181 294 LINE SMOOTH",
"58 266 OFFCURVE",
"8 227 OFFCURVE",
"8 138 CURVE SMOOTH",
"8 34 OFFCURVE",
"93 -9 OFFCURVE",
"179 -9 CURVE SMOOTH"
);
}
);
};
guideLines = (
{
angle = 90;
position = "{592, -61}";
}
);
layerId = "5C950900-0D0F-4959-81DE-75F048290F1B";
paths = (
{
closed = 1;
nodes = (
"228 -9 OFFCURVE",
"287 11 OFFCURVE",
"333 51 CURVE SMOOTH",
"354 69 LINE",
"381 22 OFFCURVE",
"432 -8 OFFCURVE",
"516 -8 CURVE SMOOTH",
"531 -8 OFFCURVE",
"555 -3 OFFCURVE",
"577 3 CURVE",
"592 135 LINE",
"551 143 OFFCURVE",
"537 153 OFFCURVE",
"537 180 CURVE SMOOTH",
"537 320 LINE SMOOTH",
"537 458 OFFCURVE",
"439 535 OFFCURVE",
"287 535 CURVE SMOOTH",
"220 535 OFFCURVE",
"152 519 OFFCURVE",
"88 496 CURVE SMOOTH",
"49 482 LINE",
"78 353 LINE",
"108 359 LINE SMOOTH",
"153 367 OFFCURVE",
"197 371 OFFCURVE",
"238 371 CURVE SMOOTH",
"302 371 OFFCURVE",
"325 355 OFFCURVE",
"322 329 CURVE SMOOTH",
"322 327 LINE",
"181 294 LINE SMOOTH",
"58 265 OFFCURVE",
"8 227 OFFCURVE",
"8 138 CURVE SMOOTH",
"8 34 OFFCURVE",
"93 -9 OFFCURVE",
"179 -9 CURVE SMOOTH"
);
},
{
closed = 1;
nodes = (
"225 133 OFFCURVE",
"209 145 OFFCURVE",
"209 169 CURVE SMOOTH",
"209 187 OFFCURVE",
"216 202 OFFCURVE",
"250 210 CURVE SMOOTH",
"322 228 LINE",
"322 155 LINE",
"305 147 LINE SMOOTH",
"284 137 OFFCURVE",
"263 133 OFFCURVE",
"247 133 CURVE SMOOTH"
);
}
);
width = 602;
},
{
associatedMasterId = "5C950900-0D0F-4959-81DE-75F048290F1B";
background = {
paths = (
{
closed = 1;
nodes = (
"317 69 OFFCURVE",
"371 -10 OFFCURVE",
"508 -10 CURVE SMOOTH",
"543 -10 OFFCURVE",
"587 -4 OFFCURVE",
"609 10 CURVE",
"572 -45 LINE",
"594 190 LINE",
"669 143 LINE",
"568 142 OFFCURVE",
"534 153 OFFCURVE",
"534 175 CURVE SMOOTH",
"534 340 LINE SMOOTH",
"534 464 OFFCURVE",
"454 535 OFFCURVE",
"310 535 CURVE SMOOTH",
"187 535 OFFCURVE",
"59 485 OFFCURVE",
"-32 433 CURVE",
"52 502 LINE",
"98 284 LINE",
"16 323 LINE",
"98 346 OFFCURVE",
"171 361 OFFCURVE",
"231 361 CURVE SMOOTH",
"289 361 OFFCURVE",
"317 351 OFFCURVE",
"317 311 CURVE SMOOTH",
"317 164 LINE SMOOTH"
);
},
{
closed = 1;
nodes = (
"322 159 LINE",
"298 143 OFFCURVE",
"272 134 OFFCURVE",
"251 134 CURVE SMOOTH",
"230 134 OFFCURVE",
"215 144 OFFCURVE",
"215 165 CURVE SMOOTH",
"215 181 OFFCURVE",
"222 192 OFFCURVE",
"254 201 CURVE SMOOTH",
"328 221 LINE",
"329 317 LINE",
"185 288 LINE SMOOTH",
"63 264 OFFCURVE",
"15 220 OFFCURVE",
"15 132 CURVE SMOOTH",
"15 31 OFFCURVE",
"98 -9 OFFCURVE",
"183 -9 CURVE SMOOTH",
"248 -9 OFFCURVE",
"305 17 OFFCURVE",
"354 73 CURVE"
);
}
);
};
layerId = "8E5AF51A-A27B-443A-9AC1-ED177E22C5AB";
name = "Mar 2 18, 13:36";
paths = (
{
closed = 1;
nodes = (
"317 69 OFFCURVE",
"371 -10 OFFCURVE",
"508 -10 CURVE SMOOTH",
"543 -10 OFFCURVE",
"587 -4 OFFCURVE",
"609 10 CURVE",
"572 -45 LINE",
"594 190 LINE",
"669 143 LINE",
"568 142 OFFCURVE",
"534 153 OFFCURVE",
"534 175 CURVE SMOOTH",
"534 340 LINE SMOOTH",
"534 464 OFFCURVE",
"454 535 OFFCURVE",
"310 535 CURVE SMOOTH",
"244 535 OFFCURVE",
"171 519 OFFCURVE",
"132 505 CURVE SMOOTH",
"91 491 OFFCURVE",
"53 446 OFFCURVE",
"70 367 CURVE SMOOTH",
"88 284 LINE",
"16 323 LINE",
"98 346 OFFCURVE",
"171 361 OFFCURVE",
"231 361 CURVE SMOOTH",
"289 361 OFFCURVE",
"317 351 OFFCURVE",
"317 311 CURVE SMOOTH",
"317 164 LINE SMOOTH"
);
},
{
closed = 1;
nodes = (
"322 159 LINE",
"298 143 OFFCURVE",
"272 134 OFFCURVE",
"251 134 CURVE SMOOTH",
"230 134 OFFCURVE",
"215 144 OFFCURVE",
"215 165 CURVE SMOOTH",
"215 181 OFFCURVE",
"222 192 OFFCURVE",
"254 201 CURVE SMOOTH",
"328 221 LINE",
"329 317 LINE",
"185 288 LINE SMOOTH",
"63 264 OFFCURVE",
"15 220 OFFCURVE",
"15 132 CURVE SMOOTH",
"15 31 OFFCURVE",
"98 -9 OFFCURVE",
"183 -9 CURVE SMOOTH",
"248 -9 OFFCURVE",
"305 17 OFFCURVE",
"354 73 CURVE"
);
}
);
width = 597;
},
{
associatedMasterId = "5C950900-0D0F-4959-81DE-75F048290F1B";
background = {
paths = (
{
closed = 1;
nodes = (
"542 157 OFFCURVE",
"532 168 OFFCURVE",
"532 197 CURVE SMOOTH",
"532 307 LINE SMOOTH",
"532 452 OFFCURVE",
"441 535 OFFCURVE",
"291 535 CURVE SMOOTH",
"196 535 OFFCURVE",
"112 502 OFFCURVE",
"38 461 CURVE",
"98 325 LINE",
"153 347 OFFCURVE",
"202 361 OFFCURVE",
"244 361 CURVE SMOOTH",
"283 361 OFFCURVE",
"304 350 OFFCURVE",
"312 325 CURVE",
"183 296 LINE SMOOTH",
"63 269 OFFCURVE",
"13 226 OFFCURVE",
"13 136 CURVE SMOOTH",
"13 32 OFFCURVE",
"96 -9 OFFCURVE",
"181 -9 CURVE SMOOTH",
"245 -9 OFFCURVE",
"298 13 OFFCURVE",
"344 61 CURVE",
"377 13 OFFCURVE",
"432 -10 OFFCURVE",
"506 -10 CURVE SMOOTH",
"531 -10 OFFCURVE",
"561 -7 OFFCURVE",
"584 0 CURVE",
"599 162 LINE",
"587 158 OFFCURVE",
"575 157 OFFCURVE",
"565 157 CURVE SMOOTH"
);
},
{
closed = 1;
nodes = (
"213 189 OFFCURVE",
"222 200 OFFCURVE",
"252 209 CURVE SMOOTH",
"315 228 LINE",
"315 164 LINE",
"293 150 OFFCURVE",
"269 142 OFFCURVE",
"249 142 CURVE SMOOTH",
"228 142 OFFCURVE",
"213 152 OFFCURVE",
"213 173 CURVE SMOOTH"
);
}
);
};
layerId = "367CDCB9-A811-4795-AA2F-659DEFEB3A5F";
name = "Mar 9 18, 21:40";
paths = (
{
closed = 1;
nodes = (
"317 152 OFFCURVE",
"318 141 OFFCURVE",
"320 130 CURVE",
"330 120 LINE",
"345 46 OFFCURVE",
"399 -9 OFFCURVE",
"511 -9 CURVE SMOOTH",
"536 -9 OFFCURVE",
"589 6 OFFCURVE",
"613 17 CURVE",
"572 -45 LINE",
"594 190 LINE",
"656 151 LINE",
"618 147 OFFCURVE",
"596 144 OFFCURVE",
"575 144 CURVE SMOOTH",
"540 144 OFFCURVE",
"534 161 OFFCURVE",
"534 175 CURVE SMOOTH",
"534 340 LINE SMOOTH",
"534 464 OFFCURVE",
"448 535 OFFCURVE",
"293 535 CURVE SMOOTH",
"160 535 OFFCURVE",
"22 472 OFFCURVE",
"-76 407 CURVE",
"43 535 LINE",
"98 284 LINE",
"-8 330 LINE",
"81 349 OFFCURVE",
"160 361 OFFCURVE",
"224 361 CURVE SMOOTH",
"287 361 OFFCURVE",
"317 351 OFFCURVE",
"317 311 CURVE SMOOTH",
"317 164 LINE SMOOTH"
);
},
{
closed = 1;
nodes = (
"322 155 LINE",
"298 142 OFFCURVE",
"272 134 OFFCURVE",
"251 134 CURVE SMOOTH",
"230 134 OFFCURVE",
"215 144 OFFCURVE",
"215 165 CURVE SMOOTH",
"215 181 OFFCURVE",
"223 190 OFFCURVE",
"254 201 CURVE SMOOTH",
"328 226 LINE",
"329 309 LINE",
"185 284 LINE SMOOTH",
"63 263 OFFCURVE",
"15 220 OFFCURVE",
"15 132 CURVE SMOOTH",
"15 31 OFFCURVE",
"98 -9 OFFCURVE",
"183 -9 CURVE SMOOTH",
"255 -9 OFFCURVE",
"318 27 OFFCURVE",
"372 73 CURVE"
);
}
);
width = 597;
},
{
associatedMasterId = "5C950900-0D0F-4959-81DE-75F048290F1B";
background = {
paths = (
{
closed = 1;
nodes = (
"317 152 OFFCURVE",
"318 141 OFFCURVE",
"320 130 CURVE",
"330 120 LINE",
"345 46 OFFCURVE",
"399 -9 OFFCURVE",
"511 -9 CURVE SMOOTH",
"536 -9 OFFCURVE",
"589 6 OFFCURVE",
"613 17 CURVE",
"572 -45 LINE",
"594 190 LINE",
"656 151 LINE",
"618 147 OFFCURVE",
"596 144 OFFCURVE",
"575 144 CURVE SMOOTH",
"540 144 OFFCURVE",
"534 161 OFFCURVE",
"534 175 CURVE SMOOTH",
"534 320 LINE SMOOTH",
"534 461 OFFCURVE",
"449 535 OFFCURVE",
"301 535 CURVE SMOOTH",
"119 535 OFFCURVE",
"-35 437 OFFCURVE",
"-143 335 CURVE",
"43 535 LINE",
"98 284 LINE",
"-8 320 LINE",
"81 345 OFFCURVE",
"160 361 OFFCURVE",
"236 361 CURVE SMOOTH",
"287 361 OFFCURVE",
"317 351 OFFCURVE",
"317 311 CURVE SMOOTH",
"317 164 LINE SMOOTH"
);
},
{
closed = 1;
nodes = (
"322 155 LINE",
"298 142 OFFCURVE",
"272 134 OFFCURVE",
"251 134 CURVE SMOOTH",
"230 134 OFFCURVE",
"215 146 OFFCURVE",
"215 170 CURVE SMOOTH",
"215 188 OFFCURVE",
"221 202 OFFCURVE",
"254 211 CURVE SMOOTH",
"328 230 LINE",
"329 313 LINE",
"185 279 LINE SMOOTH",
"64 250 OFFCURVE",
"15 216 OFFCURVE",
"15 130 CURVE SMOOTH",
"15 30 OFFCURVE",
"98 -9 OFFCURVE",
"183 -9 CURVE SMOOTH",
"255 -9 OFFCURVE",
"318 27 OFFCURVE",
"372 73 CURVE"
);
}
);
};
layerId = "2566D14B-478B-4FE6-843D-A24B43E42469";
name = "Mar 11 18, 17:41";
paths = (
{
closed = 1;
nodes = (
"317 152 OFFCURVE",
"318 141 OFFCURVE",
"320 130 CURVE",
"330 120 LINE",
"345 46 OFFCURVE",
"399 -9 OFFCURVE",
"511 -9 CURVE SMOOTH",
"536 -9 OFFCURVE",
"589 6 OFFCURVE",
"613 17 CURVE",
"572 -45 LINE",
"594 190 LINE",
"656 151 LINE",
"618 147 OFFCURVE",
"596 144 OFFCURVE",
"575 144 CURVE SMOOTH",
"540 144 OFFCURVE",
"534 161 OFFCURVE",
"534 175 CURVE SMOOTH",
"534 320 LINE SMOOTH",
"534 461 OFFCURVE",
"449 535 OFFCURVE",
"301 535 CURVE SMOOTH",
"119 535 OFFCURVE",
"-35 437 OFFCURVE",
"-143 335 CURVE",
"43 535 LINE",
"98 284 LINE",
"-8 320 LINE",
"81 345 OFFCURVE",
"160 361 OFFCURVE",
"236 361 CURVE SMOOTH",
"287 361 OFFCURVE",
"317 351 OFFCURVE",
"317 311 CURVE SMOOTH",
"317 164 LINE SMOOTH"
);
},
{
closed = 1;
nodes = (
"318 168 LINE",
"296 153 OFFCURVE",
"271 142 OFFCURVE",
"250 140 CURVE SMOOTH",
"229 138 OFFCURVE",
"213 148 OFFCURVE",
"210 172 CURVE SMOOTH",
"208 190 OFFCURVE",
"213 205 OFFCURVE",
"245 217 CURVE SMOOTH",
"345 255 LINE",
"337 337 LINE",
"169 277 LINE SMOOTH",
"52 235 OFFCURVE",
"7 197 OFFCURVE",
"16 111 CURVE SMOOTH",
"26 12 OFFCURVE",
"113 -18 OFFCURVE",
"197 -9 CURVE SMOOTH",
"269 -1 OFFCURVE",
"328 41 OFFCURVE",
"377 92 CURVE"
);
}
);
width = 597;
},
{
associatedMasterId = "5C950900-0D0F-4959-81DE-75F048290F1B";
background = {
paths = (
{
closed = 1;
nodes = (
"317 152 OFFCURVE",
"318 141 OFFCURVE",
"320 130 CURVE",
"330 120 LINE",
"345 46 OFFCURVE",
"399 -9 OFFCURVE",
"511 -9 CURVE SMOOTH",
"536 -9 OFFCURVE",
"589 6 OFFCURVE",
"613 17 CURVE",
"572 -45 LINE",
"594 190 LINE",
"656 151 LINE",
"618 147 OFFCURVE",
"596 144 OFFCURVE",
"575 144 CURVE SMOOTH",
"540 144 OFFCURVE",
"534 161 OFFCURVE",
"534 175 CURVE SMOOTH",
"534 320 LINE SMOOTH",
"534 461 OFFCURVE",
"449 535 OFFCURVE",
"301 535 CURVE SMOOTH",
"119 535 OFFCURVE",
"-35 437 OFFCURVE",
"-143 335 CURVE",
"43 535 LINE",
"98 284 LINE",
"-8 320 LINE",
"81 345 OFFCURVE",
"160 361 OFFCURVE",
"236 361 CURVE SMOOTH",
"287 361 OFFCURVE",
"317 351 OFFCURVE",
"317 311 CURVE SMOOTH",
"317 164 LINE SMOOTH"
);
},
{
closed = 1;
nodes = (
"322 155 LINE",
"298 142 OFFCURVE",
"272 134 OFFCURVE",
"251 134 CURVE SMOOTH",
"230 134 OFFCURVE",
"215 146 OFFCURVE",
"215 170 CURVE SMOOTH",
"215 188 OFFCURVE",
"221 202 OFFCURVE",
"254 211 CURVE SMOOTH",
"328 230 LINE",
"329 313 LINE",
"185 279 LINE SMOOTH",
"64 250 OFFCURVE",
"15 216 OFFCURVE",
"15 130 CURVE SMOOTH",
"15 30 OFFCURVE",
"98 -9 OFFCURVE",
"183 -9 CURVE SMOOTH",
"255 -9 OFFCURVE",
"318 27 OFFCURVE",
"372 73 CURVE"
);
}
);
};
layerId = "37D52441-0D78-459B-806A-C19F8EE0A659";
name = "Mar 12 18, 14:55";
paths = (
{
closed = 1;
nodes = (
"317 152 OFFCURVE",
"318 141 OFFCURVE",
"320 130 CURVE",
"330 120 LINE",
"345 46 OFFCURVE",
"399 -9 OFFCURVE",
"511 -9 CURVE SMOOTH",
"536 -9 OFFCURVE",
"589 6 OFFCURVE",
"613 17 CURVE",
"572 -45 LINE",
"594 190 LINE",
"656 151 LINE",
"618 147 OFFCURVE",
"596 144 OFFCURVE",
"575 144 CURVE SMOOTH",
"540 144 OFFCURVE",
"534 161 OFFCURVE",
"534 175 CURVE SMOOTH",
"534 320 LINE SMOOTH",
"534 461 OFFCURVE",
"449 535 OFFCURVE",
"301 535 CURVE SMOOTH",
"119 535 OFFCURVE",
"-35 449 OFFCURVE",
"-143 359 CURVE",
"43 535 LINE",
"72 305 LINE",
"-8 341 LINE",
"81 353 OFFCURVE",
"160 361 OFFCURVE",
"236 361 CURVE SMOOTH",
"287 361 OFFCURVE",
"317 351 OFFCURVE",
"317 311 CURVE SMOOTH",
"317 164 LINE SMOOTH"
);
},
{
closed = 1;
nodes = (
"322 155 LINE",
"298 142 OFFCURVE",
"272 134 OFFCURVE",
"251 134 CURVE SMOOTH",
"230 134 OFFCURVE",
"215 146 OFFCURVE",
"215 170 CURVE SMOOTH",
"215 188 OFFCURVE",
"221 202 OFFCURVE",
"254 211 CURVE SMOOTH",
"328 230 LINE",
"329 313 LINE",
"185 279 LINE SMOOTH",
"64 250 OFFCURVE",
"15 216 OFFCURVE",
"15 130 CURVE SMOOTH",
"15 30 OFFCURVE",
"98 -9 OFFCURVE",
"183 -9 CURVE SMOOTH",
"255 -9 OFFCURVE",
"318 27 OFFCURVE",
"372 73 CURVE"
);
}
);
width = 597;
},
{
associatedMasterId = "5C950900-0D0F-4959-81DE-75F048290F1B";
background = {
paths = (
{
closed = 1;
nodes = (
"317 152 OFFCURVE",
"318 141 OFFCURVE",
"320 130 CURVE",
"330 120 LINE",
"345 46 OFFCURVE",
"399 -9 OFFCURVE",
"511 -9 CURVE SMOOTH",
"536 -9 OFFCURVE",
"589 6 OFFCURVE",
"613 17 CURVE",
"572 -45 LINE",
"594 190 LINE",
"656 151 LINE",
"618 147 OFFCURVE",
"596 144 OFFCURVE",
"575 144 CURVE SMOOTH",
"540 144 OFFCURVE",
"534 161 OFFCURVE",
"534 175 CURVE SMOOTH",
"534 320 LINE SMOOTH",
"534 461 OFFCURVE",
"449 535 OFFCURVE",
"301 535 CURVE SMOOTH",
"119 535 OFFCURVE",
"-35 437 OFFCURVE",
"-143 335 CURVE",
"43 535 LINE",
"98 284 LINE",
"-8 320 LINE",
"81 345 OFFCURVE",
"160 361 OFFCURVE",
"236 361 CURVE SMOOTH",
"287 361 OFFCURVE",
"317 351 OFFCURVE",
"317 311 CURVE SMOOTH",
"317 164 LINE SMOOTH"
);
},
{
closed = 1;
nodes = (
"322 155 LINE",
"298 142 OFFCURVE",
"272 134 OFFCURVE",
"251 134 CURVE SMOOTH",
"230 134 OFFCURVE",
"215 146 OFFCURVE",
"215 170 CURVE SMOOTH",
"215 188 OFFCURVE",
"221 202 OFFCURVE",
"254 211 CURVE SMOOTH",
"328 230 LINE",
"329 313 LINE",
"185 279 LINE SMOOTH",
"64 250 OFFCURVE",
"15 216 OFFCURVE",
"15 130 CURVE SMOOTH",
"15 30 OFFCURVE",
"98 -9 OFFCURVE",
"183 -9 CURVE SMOOTH",
"255 -9 OFFCURVE",
"318 27 OFFCURVE",
"372 73 CURVE"
);
}
);
};
layerId = "0BA56532-7AF4-4B5E-BD0D-3B6415B19D8E";
name = "Mar 13 18, 18:20";
paths = (
{
closed = 1;
nodes = (
"594 190 LINE",
"656 151 LINE",
"618 147 OFFCURVE",
"596 144 OFFCURVE",
"575 144 CURVE SMOOTH",
"540 144 OFFCURVE",
"534 161 OFFCURVE",
"534 175 CURVE SMOOTH",
"534 320 LINE SMOOTH",
"534 461 OFFCURVE",
"449 535 OFFCURVE",
"301 535 CURVE SMOOTH",
"119 535 OFFCURVE",
"-35 437 OFFCURVE",
"-143 335 CURVE",
"43 535 LINE",
"98 284 LINE",
"-8 320 LINE",
"81 345 OFFCURVE",
"160 361 OFFCURVE",
"236 361 CURVE SMOOTH",
"287 361 OFFCURVE",
"317 351 OFFCURVE",
"317 311 CURVE SMOOTH",
"317 164 LINE SMOOTH",
"317 152 OFFCURVE",
"318 141 OFFCURVE",
"320 130 CURVE",
"330 120 LINE",
"345 46 OFFCURVE",
"399 -9 OFFCURVE",
"511 -9 CURVE SMOOTH",
"536 -9 OFFCURVE",
"589 6 OFFCURVE",
"613 17 CURVE",
"572 -45 LINE"
);
},
{
closed = 1;
nodes = (
"255 -9 OFFCURVE",
"318 27 OFFCURVE",
"372 73 CURVE",
"322 155 LINE",
"298 142 OFFCURVE",
"272 134 OFFCURVE",
"251 134 CURVE SMOOTH",
"230 134 OFFCURVE",
"215 146 OFFCURVE",
"215 170 CURVE SMOOTH",
"215 188 OFFCURVE",
"221 202 OFFCURVE",
"254 211 CURVE SMOOTH",
"328 230 LINE",
"329 313 LINE",
"185 279 LINE SMOOTH",
"64 250 OFFCURVE",
"15 216 OFFCURVE",
"15 130 CURVE SMOOTH",
"15 30 OFFCURVE",
"98 -9 OFFCURVE",
"183 -9 CURVE SMOOTH"
);
}
);
width = 597;
},
{
associatedMasterId = "5C950900-0D0F-4959-81DE-75F048290F1B";
background = {
paths = (
{
closed = 1;
nodes = (
"605 190 LINE",
"668 151 LINE",
"629 147 OFFCURVE",
"607 144 OFFCURVE",
"586 144 CURVE SMOOTH",
"550 144 OFFCURVE",
"544 161 OFFCURVE",
"544 175 CURVE SMOOTH",
"544 320 LINE SMOOTH",
"544 461 OFFCURVE",
"457 535 OFFCURVE",
"306 535 CURVE SMOOTH",
"228 535 OFFCURVE",
"152 516 OFFCURVE",
"87 489 CURVE SMOOTH",
"-77 422 LINE",
"44 535 LINE",
"95 309 LINE",
"34 334 LINE",
"115 349 LINE SMOOTH",
"160 357 OFFCURVE",
"204 361 OFFCURVE",
"245 361 CURVE SMOOTH",
"298 361 OFFCURVE",
"329 351 OFFCURVE",
"329 311 CURVE SMOOTH",
"329 164 LINE SMOOTH",
"329 152 OFFCURVE",
"331 141 OFFCURVE",
"333 130 CURVE",
"343 120 LINE",
"358 46 OFFCURVE",
"411 -9 OFFCURVE",
"523 -9 CURVE SMOOTH",
"548 -9 OFFCURVE",
"601 6 OFFCURVE",
"624 17 CURVE",
"579 -45 LINE"
);
},
{
closed = 1;
nodes = (
"257 -9 OFFCURVE",
"320 27 OFFCURVE",
"370 73 CURVE",
"337 158 LINE",
"302 142 OFFCURVE",
"276 134 OFFCURVE",
"254 134 CURVE SMOOTH",
"232 134 OFFCURVE",
"216 146 OFFCURVE",
"216 170 CURVE SMOOTH",
"216 188 OFFCURVE",
"223 202 OFFCURVE",
"257 211 CURVE SMOOTH",
"334 230 LINE",
"335 323 LINE",
"188 289 LINE SMOOTH",
"65 260 OFFCURVE",
"15 224 OFFCURVE",
"15 135 CURVE SMOOTH",
"15 31 OFFCURVE",
"100 -9 OFFCURVE",
"186 -9 CURVE SMOOTH"
);
}
);
};
layerId = "DF06E098-D1D6-4C45-86B7-7FEEE28D71A1";
name = "Mar 18 18, 13:31";
paths = (
{
closed = 1;
nodes = (
"605 190 LINE",
"668 151 LINE",
"629 147 OFFCURVE",
"607 144 OFFCURVE",
"586 144 CURVE SMOOTH",
"550 144 OFFCURVE",
"544 161 OFFCURVE",
"544 175 CURVE SMOOTH",
"544 320 LINE SMOOTH",
"544 461 OFFCURVE",
"448 535 OFFCURVE",
"281 535 CURVE SMOOTH",
"203 535 OFFCURVE",
"126 505 OFFCURVE",
"61 465 CURVE SMOOTH",
"-11 419 LINE",
"51 489 LINE",
"95 309 LINE",
"34 334 LINE",
"115 349 LINE SMOOTH",
"160 357 OFFCURVE",
"204 361 OFFCURVE",
"245 361 CURVE SMOOTH",
"298 361 OFFCURVE",
"329 351 OFFCURVE",
"329 311 CURVE SMOOTH",
"329 164 LINE SMOOTH",
"329 152 OFFCURVE",
"331 141 OFFCURVE",
"333 130 CURVE",
"343 120 LINE",
"358 46 OFFCURVE",
"411 -9 OFFCURVE",
"523 -9 CURVE SMOOTH",
"548 -9 OFFCURVE",
"601 6 OFFCURVE",
"624 17 CURVE",
"579 -45 LINE"
);
},
{
closed = 1;
nodes = (
"257 -9 OFFCURVE",
"320 27 OFFCURVE",
"370 73 CURVE",
"337 158 LINE",
"302 142 OFFCURVE",
"276 134 OFFCURVE",
"254 134 CURVE SMOOTH",
"232 134 OFFCURVE",
"216 146 OFFCURVE",
"216 170 CURVE SMOOTH",
"216 188 OFFCURVE",
"223 202 OFFCURVE",
"257 211 CURVE SMOOTH",
"334 230 LINE",
"335 323 LINE",
"188 289 LINE SMOOTH",
"65 260 OFFCURVE",
"15 224 OFFCURVE",
"15 135 CURVE SMOOTH",
"15 31 OFFCURVE",
"100 -9 OFFCURVE",
"186 -9 CURVE SMOOTH"
);
}
);
width = 609;
},
{
anchors = (
{
name = bottom;
position = "{270, -35}";
},
{
name = ogonek;
position = "{457, 10}";
},
{
name = top;
position = "{268, 550}";
}
);
background = {
paths = (
{
closed = 1;
nodes = (
"558 115 LINE",
"579 75 LINE",
"500 80 OFFCURVE",
"481 90 OFFCURVE",
"481 133 CURVE SMOOTH",
"481 323 LINE SMOOTH",
"481 452 OFFCURVE",
"396 516 OFFCURVE",
"269 516 CURVE SMOOTH",
"208 516 OFFCURVE",
"148 502 OFFCURVE",
"92 480 CURVE SMOOTH",
"-19 440 LINE",
"50 503 LINE",
"87 362 LINE",
"48 385 LINE",
"108 399 LINE SMOOTH",
"148 408 OFFCURVE",
"194 418 OFFCURVE",
"239 418 CURVE SMOOTH",
"310 418 OFFCURVE",
"356 392 OFFCURVE",
"356 321 CURVE SMOOTH",
"356 126 LINE",
"356 120 OFFCURVE",
"357 113 OFFCURVE",
"358 107 CURVE",
"363 100 LINE SMOOTH",
"370 38 OFFCURVE",
"410 -8 OFFCURVE",
"500 -8 CURVE SMOOTH",
"520 -8 OFFCURVE",
"554 1 OFFCURVE",
"572 8 CURVE",
"544 -35 LINE"
);
},
{
closed = 1;
nodes = (
"245 -8 OFFCURVE",
"304 12 OFFCURVE",
"350 52 CURVE SMOOTH",
"395 90 LINE",
"370 138 LINE",
"329 112 LINE SMOOTH",
"297 91 OFFCURVE",
"265 80 OFFCURVE",
"236 80 CURVE SMOOTH",
"184 80 OFFCURVE",
"148 105 OFFCURVE",
"148 149 CURVE SMOOTH",
"148 183 OFFCURVE",
"163 206 OFFCURVE",
"218 220 CURVE SMOOTH",
"370 260 LINE",
"370 325 LINE",
"180 278 LINE SMOOTH",
"78 253 OFFCURVE",
"29 216 OFFCURVE",
"29 132 CURVE SMOOTH",
"29 35 OFFCURVE",
"113 -8 OFFCURVE",
"196 -8 CURVE SMOOTH"
);
}
);
};
guideLines = (
{
position = "{235, 407}";
}
);
layerId = "514A1583-697A-4C0A-B081-2869E94CF283";
paths = (
{
closed = 1;
nodes = (
"242 -8 OFFCURVE",
"297 12 OFFCURVE",
"341 52 CURVE SMOOTH",
"364 73 LINE",
"384 27 OFFCURVE",
"422 -8 OFFCURVE",
"492 -8 CURVE SMOOTH",
"504 -8 OFFCURVE",
"521 -6 OFFCURVE",
"538 -2 CURVE",
"545 81 LINE",
"484 86 OFFCURVE",
"470 96 OFFCURVE",
"470 137 CURVE SMOOTH",
"470 323 LINE SMOOTH",
"470 452 OFFCURVE",
"388 516 OFFCURVE",
"268 516 CURVE SMOOTH",
"211 516 OFFCURVE",
"155 504 OFFCURVE",
"88 480 CURVE SMOOTH",
"63 471 LINE",
"84 388 LINE",
"107 393 LINE SMOOTH",
"146 401 OFFCURVE",
"192 407 OFFCURVE",
"235 407 CURVE SMOOTH",
"309 407 OFFCURVE",
"345 381 OFFCURVE",
"345 323 CURVE SMOOTH",
"345 321 LINE",
"192 289 LINE SMOOTH",
"92 269 OFFCURVE",
"35 220 OFFCURVE",
"35 135 CURVE SMOOTH",
"35 38 OFFCURVE",
"114 -8 OFFCURVE",
"196 -8 CURVE SMOOTH"
);
},
{
closed = 1;
nodes = (
"185 97 OFFCURVE",
"157 116 OFFCURVE",
"157 151 CURVE SMOOTH",
"157 178 OFFCURVE",
"171 198 OFFCURVE",
"210 209 CURVE SMOOTH",
"345 247 LINE",
"345 144 LINE",
"323 129 LINE SMOOTH",
"292 108 OFFCURVE",
"260 97 OFFCURVE",
"234 97 CURVE SMOOTH"
);
}
);
width = 555;
}
);
leftKerningGroup = a;
rightKerningGroup = a;
unicode = 0061;
},
{
glyphname = agrave;
lastChange = "2021-09-30 22:26:40 +0000";
layers = (
{
components = (
{
name = a;
},
{
name = gravecomb;
transform = "{1, 0, 0, 1, 231, 0}";
}
);
layerId = "620D8D18-E43F-4D11-9420-7EF908A5CAE8";
width = 522;
},
{
components = (
{
name = a;
},
{
name = gravecomb;
transform = "{1, 0, 0, 1, 226, 0}";
}
);
layerId = "514A1583-697A-4C0A-B081-2869E94CF283";
width = 555;
},
{
components = (
{
name = a;
},
{
name = gravecomb;
transform = "{1, 0, 0, 1, 252, 0}";
}
);
layerId = "5C950900-0D0F-4959-81DE-75F048290F1B";
width = 602;
},
{
anchors = (
{
name = _top;
position = "{295, 550}";
},
{
name = top;
position = "{295, 550}";
}
);
associatedMasterId = "5C950900-0D0F-4959-81DE-75F048290F1B";
background = {
components = (
{
name = a;
},
{
name = gravecomb;
transform = "{1, 0, 0, 1, 259, 0}";
}
);
};
layerId = "F80DF4EC-DED8-4411-8E3A-94AB8D6BB5F3";
name = "Apr 22 18, 10:48";
paths = (
{
closed = 1;
nodes = (
"605 190 LINE",
"668 151 LINE",
"629 147 OFFCURVE",
"607 144 OFFCURVE",
"586 144 CURVE SMOOTH",
"550 144 OFFCURVE",
"544 161 OFFCURVE",
"544 175 CURVE SMOOTH",
"544 320 LINE SMOOTH",
"544 458 OFFCURVE",
"446 535 OFFCURVE",
"294 535 CURVE SMOOTH",
"227 535 OFFCURVE",
"159 519 OFFCURVE",
"95 496 CURVE SMOOTH",
"-77 435 LINE",
"44 535 LINE",
"95 309 LINE",
"34 344 LINE",
"115 359 LINE SMOOTH",
"160 367 OFFCURVE",
"204 371 OFFCURVE",
"245 371 CURVE SMOOTH",
"298 371 OFFCURVE",
"329 361 OFFCURVE",
"329 321 CURVE SMOOTH",
"329 164 LINE SMOOTH",
"329 152 OFFCURVE",
"331 141 OFFCURVE",
"333 130 CURVE",
"343 120 LINE",
"358 46 OFFCURVE",
"411 -9 OFFCURVE",
"523 -9 CURVE SMOOTH",
"548 -9 OFFCURVE",
"601 6 OFFCURVE",
"624 17 CURVE",
"579 -45 LINE"
);
},
{
closed = 1;
nodes = (
"257 -9 OFFCURVE",
"320 27 OFFCURVE",
"370 73 CURVE",
"337 157 LINE",
"302 141 OFFCURVE",
"276 133 OFFCURVE",
"254 133 CURVE SMOOTH",
"232 133 OFFCURVE",
"216 145 OFFCURVE",
"216 169 CURVE SMOOTH",
"216 187 OFFCURVE",
"223 202 OFFCURVE",
"257 210 CURVE SMOOTH",
"334 229 LINE",
"335 328 LINE",
"188 294 LINE SMOOTH",
"65 266 OFFCURVE",
"15 227 OFFCURVE",
"15 138 CURVE SMOOTH",
"15 34 OFFCURVE",
"100 -9 OFFCURVE",
"186 -9 CURVE SMOOTH"
);
},
{
closed = 1;
nodes = (
"328 748 LINE",
"113 748 LINE",
"112 709 LINE",
"249 569 LINE",
"419 569 LINE"
);
}
);
width = 609;
}
);
leftKerningGroup = a;
rightKerningGroup = a;
unicode = 00E0;
},
{
color = 3;
glyphname = ae;
lastChange = "2021-09-30 22:26:40 +0000";
layers = (
{
anchors = (
{
name = top;
position = "{452, 550}";
}
);
layerId = "620D8D18-E43F-4D11-9420-7EF908A5CAE8";
paths = (
{
closed = 1;
nodes = (
"261 -6 OFFCURVE",
"321 12 OFFCURVE",
"366 52 CURVE SMOOTH",
"421 97 LINE",
"467 29 OFFCURVE",
"547 -6 OFFCURVE",
"633 -6 CURVE SMOOTH",
"680 -6 OFFCURVE",
"729 6 OFFCURVE",
"771 24 CURVE SMOOTH",
"802 38 LINE",
"791 61 LINE",
"761 50 LINE SMOOTH",
"717 34 OFFCURVE",
"676 27 OFFCURVE",
"631 27 CURVE SMOOTH",
"519 27 OFFCURVE",
"416 107 OFFCURVE",
"416 248 CURVE",
"822 248 LINE",
"822 264 LINE SMOOTH",
"822 387 OFFCURVE",
"756 496 OFFCURVE",
"611 496 CURVE SMOOTH",
"527 496 OFFCURVE",
"457 451 OFFCURVE",
"417 384 CURVE",
"397 462 OFFCURVE",
"334 496 OFFCURVE",
"250 496 CURVE SMOOTH",
"196 496 OFFCURVE",
"143 484 OFFCURVE",
"95 464 CURVE SMOOTH",
"69 454 LINE",
"80 428 LINE",
"108 438 LINE SMOOTH",
"142 449 OFFCURVE",
"191 464 OFFCURVE",
"240 464 CURVE SMOOTH",
"329 464 OFFCURVE",
"389 423 OFFCURVE",
"388 315 CURVE",
"178 261 LINE SMOOTH",
"97 240 OFFCURVE",
"50 205 OFFCURVE",
"50 126 CURVE SMOOTH",
"50 36 OFFCURVE",
"132 -6 OFFCURVE",
"212 -6 CURVE SMOOTH"
);
},
{
closed = 1;
nodes = (
"142 27 OFFCURVE",
"86 64 OFFCURVE",
"86 128 CURVE SMOOTH",
"86 178 OFFCURVE",
"109 210 OFFCURVE",
"186 230 CURVE SMOOTH",
"381 282 LINE",
"380 270 OFFCURVE",
"379 257 OFFCURVE",
"379 244 CURVE SMOOTH",
"379 195 OFFCURVE",
"390 152 OFFCURVE",
"409 117 CURVE",
"352 76 LINE SMOOTH",
"309 45 OFFCURVE",
"267 27 OFFCURVE",
"225 27 CURVE SMOOTH"
);
},
{
closed = 1;
nodes = (
"432 392 OFFCURVE",
"515 463 OFFCURVE",
"612 463 CURVE SMOOTH",
"720 463 OFFCURVE",
"781 390 OFFCURVE",
"788 280 CURVE",
"418 280 LINE"
);
}
);
width = 872;
},
{
anchors = (
{
name = top;
position = "{477, 550}";
}
);
background = {
paths = (
{
closed = 1;
nodes = (
"242 -8 OFFCURVE",
"297 12 OFFCURVE",
"341 52 CURVE SMOOTH",
"403 108 LINE",
"363 156 LINE",
"323 129 LINE SMOOTH",
"292 108 OFFCURVE",
"260 97 OFFCURVE",
"234 97 CURVE SMOOTH",
"185 97 OFFCURVE",
"157 116 OFFCURVE",
"157 151 CURVE SMOOTH",
"157 178 OFFCURVE",
"171 198 OFFCURVE",
"210 209 CURVE SMOOTH",
"363 252 LINE",
"363 329 LINE",
"192 294 LINE SMOOTH",
"92 274 OFFCURVE",
"35 223 OFFCURVE",
"35 137 CURVE SMOOTH",
"35 39 OFFCURVE",
"114 -8 OFFCURVE",
"196 -8 CURVE SMOOTH"
);
},
{
closed = 1;
nodes = (
"470 283 LINE",
"470 323 LINE SMOOTH",
"470 452 OFFCURVE",
"388 516 OFFCURVE",
"268 516 CURVE SMOOTH",
"211 516 OFFCURVE",
"155 504 OFFCURVE",
"88 480 CURVE SMOOTH",
"-5 446 LINE",
"55 503 LINE",
"91 362 LINE",
"53 383 LINE",
"107 394 LINE SMOOTH",
"146 402 OFFCURVE",
"192 408 OFFCURVE",
"235 408 CURVE SMOOTH",
"307 408 OFFCURVE",
"345 380 OFFCURVE",
"345 316 CURVE SMOOTH",
"345 218 LINE"
);
},
{
closed = 1;
nodes = (
"663 -8 OFFCURVE",
"720 4 OFFCURVE",
"774 30 CURVE SMOOTH",
"832 58 LINE",
"821 23 LINE",
"767 152 LINE",
"795 136 LINE",
"734 119 LINE SMOOTH",
"696 108 OFFCURVE",
"658 102 OFFCURVE",
"624 102 CURVE SMOOTH",
"531 102 OFFCURVE",
"465 149 OFFCURVE",
"465 256 CURVE SMOOTH",
"465 347 OFFCURVE",
"513 409 OFFCURVE",
"595 409 CURVE SMOOTH",
"673 409 OFFCURVE",
"711 358 OFFCURVE",
"711 273 CURVE",
"746 312 LINE",
"424 312 LINE",
"424 220 LINE",
"828 220 LINE",
"828 260 LINE SMOOTH",
"828 408 OFFCURVE",
"747 516 OFFCURVE",
"595 516 CURVE SMOOTH",
"454 516 OFFCURVE",
"337 413 OFFCURVE",
"337 253 CURVE SMOOTH",
"337 84 OFFCURVE",
"462 -8 OFFCURVE",
"610 -8 CURVE SMOOTH"
);
}
);
};
layerId = "514A1583-697A-4C0A-B081-2869E94CF283";
paths = (
{
closed = 1;
nodes = (
"242 -8 OFFCURVE",
"297 12 OFFCURVE",
"341 52 CURVE SMOOTH",
"387 93 LINE",
"436 27 OFFCURVE",
"519 -8 OFFCURVE",
"610 -8 CURVE SMOOTH",
"663 -8 OFFCURVE",
"720 4 OFFCURVE",
"774 30 CURVE SMOOTH",
"811 48 LINE",
"776 131 LINE",
"734 119 LINE SMOOTH",
"696 108 OFFCURVE",
"658 102 OFFCURVE",
"624 102 CURVE SMOOTH",
"542 102 OFFCURVE",
"481 138 OFFCURVE",
"468 220 CURVE",
"828 220 LINE",
"828 260 LINE SMOOTH",
"828 408 OFFCURVE",
"747 516 OFFCURVE",
"595 516 CURVE SMOOTH",
"531 516 OFFCURVE",
"471 495 OFFCURVE",
"426 456 CURVE",
"390 496 OFFCURVE",
"335 516 OFFCURVE",
"268 516 CURVE SMOOTH",
"211 516 OFFCURVE",
"155 504 OFFCURVE",
"88 480 CURVE SMOOTH",
"63 471 LINE",
"84 389 LINE",
"107 394 LINE SMOOTH",
"146 402 OFFCURVE",
"192 408 OFFCURVE",
"235 408 CURVE SMOOTH",
"303 408 OFFCURVE",
"341 383 OFFCURVE",
"345 325 CURVE",
"192 294 LINE SMOOTH",
"92 274 OFFCURVE",
"35 223 OFFCURVE",
"35 137 CURVE SMOOTH",
"35 39 OFFCURVE",
"114 -8 OFFCURVE",
"196 -8 CURVE SMOOTH"
);
},
{
closed = 1;
nodes = (
"185 97 OFFCURVE",
"157 116 OFFCURVE",
"157 151 CURVE SMOOTH",
"157 178 OFFCURVE",
"171 198 OFFCURVE",
"210 209 CURVE SMOOTH",
"337 245 LINE",
"337 239 OFFCURVE",
"337 233 OFFCURVE",
"338 228 CURVE SMOOTH",
"340 200 OFFCURVE",
"346 174 OFFCURVE",
"355 150 CURVE",
"323 129 LINE SMOOTH",
"292 108 OFFCURVE",
"260 97 OFFCURVE",
"234 97 CURVE SMOOTH"
);
},
{
closed = 1;
nodes = (
"488 372 OFFCURVE",
"531 409 OFFCURVE",
"595 409 CURVE SMOOTH",
"660 409 OFFCURVE",
"697 373 OFFCURVE",
"708 312 CURVE",
"472 312 LINE"
);
}
);
width = 863;
},
{
anchors = (
{
name = top;
position = "{489, 550}";
}
);
background = {
paths = (
{
closed = 1;
nodes = (
"598 190 LINE",
"622 130 LINE",
"558 139 OFFCURVE",
"537 147 OFFCURVE",
"537 180 CURVE SMOOTH",
"537 320 LINE SMOOTH",
"537 458 OFFCURVE",
"439 535 OFFCURVE",
"287 535 CURVE SMOOTH",
"220 535 OFFCURVE",
"152 519 OFFCURVE",
"88 496 CURVE SMOOTH",
"-84 435 LINE",
"37 535 LINE",
"88 309 LINE",
"27 344 LINE",
"108 359 LINE SMOOTH",
"153 367 OFFCURVE",
"197 371 OFFCURVE",
"238 371 CURVE SMOOTH",
"291 371 OFFCURVE",
"322 361 OFFCURVE",
"322 321 CURVE SMOOTH",
"322 164 LINE SMOOTH",
"322 152 OFFCURVE",
"324 141 OFFCURVE",
"326 130 CURVE",
"336 120 LINE",
"351 46 OFFCURVE",
"404 -9 OFFCURVE",
"516 -9 CURVE SMOOTH",
"541 -9 OFFCURVE",
"594 6 OFFCURVE",
"617 17 CURVE",
"572 -45 LINE"
);
},
{
closed = 1;
nodes = (
"228 -9 OFFCURVE",
"287 11 OFFCURVE",
"333 51 CURVE SMOOTH",
"378 90 LINE",
"331 159 LINE",
"305 147 LINE SMOOTH",
"284 137 OFFCURVE",
"263 133 OFFCURVE",
"247 133 CURVE SMOOTH",
"225 133 OFFCURVE",
"209 145 OFFCURVE",
"209 169 CURVE SMOOTH",
"209 187 OFFCURVE",
"216 202 OFFCURVE",
"250 210 CURVE SMOOTH",
"327 229 LINE",
"328 328 LINE",
"181 294 LINE SMOOTH",
"58 266 OFFCURVE",
"8 227 OFFCURVE",
"8 138 CURVE SMOOTH",
"8 34 OFFCURVE",
"93 -9 OFFCURVE",
"179 -9 CURVE SMOOTH"
);
}
);
};
layerId = "5C950900-0D0F-4959-81DE-75F048290F1B";
paths = (
{
closed = 1;
nodes = (
"228 -9 OFFCURVE",
"287 11 OFFCURVE",
"333 51 CURVE SMOOTH",
"376 88 LINE",
"432 25 OFFCURVE",
"520 -9 OFFCURVE",
"620 -9 CURVE SMOOTH",
"683 -9 OFFCURVE",
"750 4 OFFCURVE",
"817 32 CURVE SMOOTH",
"860 50 LINE",
"810 173 LINE",
"769 165 LINE SMOOTH",
"726 156 OFFCURVE",
"687 151 OFFCURVE",
"654 151 CURVE SMOOTH",
"592 151 OFFCURVE",
"551 165 OFFCURVE",
"535 210 CURVE",
"889 210 LINE",
"889 255 LINE SMOOTH",
"889 428 OFFCURVE",
"785 535 OFFCURVE",
"617 535 CURVE SMOOTH",
"557 535 OFFCURVE",
"498 522 OFFCURVE",
"448 494 CURVE",
"407 521 OFFCURVE",
"352 535 OFFCURVE",
"287 535 CURVE SMOOTH",
"220 535 OFFCURVE",
"152 519 OFFCURVE",
"88 496 CURVE SMOOTH",
"49 482 LINE",
"78 353 LINE",
"108 359 LINE SMOOTH",
"153 367 OFFCURVE",
"197 371 OFFCURVE",
"238 371 CURVE SMOOTH",
"288 371 OFFCURVE",
"319 362 OFFCURVE",
"322 327 CURVE",
"181 294 LINE SMOOTH",
"58 266 OFFCURVE",
"8 227 OFFCURVE",
"8 138 CURVE SMOOTH",
"8 34 OFFCURVE",
"93 -9 OFFCURVE",
"179 -9 CURVE SMOOTH"
);
},
{
closed = 1;
nodes = (
"225 133 OFFCURVE",
"209 145 OFFCURVE",
"209 169 CURVE SMOOTH",
"209 187 OFFCURVE",
"216 202 OFFCURVE",
"250 210 CURVE SMOOTH",
"317 226 LINE",
"318 216 OFFCURVE",
"320 207 OFFCURVE",
"322 197 CURVE",
"325 182 OFFCURVE",
"329 171 OFFCURVE",
"333 160 CURVE",
"305 147 LINE SMOOTH",
"284 137 OFFCURVE",
"263 133 OFFCURVE",
"247 133 CURVE SMOOTH"
);
},
{
closed = 1;
nodes = (
"541 376 OFFCURVE",
"572 392 OFFCURVE",
"617 392 CURVE SMOOTH",
"666 392 OFFCURVE",
"688 370 OFFCURVE",
"693 321 CURVE",
"530 321 LINE"
);
}
);
width = 904;
}
);
leftKerningGroup = a;
leftMetricsKey = a;
rightKerningGroup = e;
rightMetricsKey = e;
unicode = 00E6;
},
{
color = 4;
glyphname = b;
lastChange = "2021-09-30 22:26:40 +0000";
layers = (
{
background = {
paths = (
{
closed = 1;
nodes = (
"435 -6 OFFCURVE",
"543 87 OFFCURVE",
"543 245 CURVE SMOOTH",
"543 404 OFFCURVE",
"430 496 OFFCURVE",
"294 496 CURVE SMOOTH",
"252 496 OFFCURVE",
"206 487 OFFCURVE",
"167 472 CURVE SMOOTH",
"120 454 LINE",
"136 477 LINE",
"156 418 LINE",
"114 424 LINE",
"179 444 LINE SMOOTH",
"218 456 OFFCURVE",
"255 462 OFFCURVE",
"289 462 CURVE SMOOTH",
"416 462 OFFCURVE",
"506 383 OFFCURVE",
"506 245 CURVE SMOOTH",
"506 108 OFFCURVE",
"413 27 OFFCURVE",
"287 27 CURVE SMOOTH",
"251 27 OFFCURVE",
"212 34 OFFCURVE",
"177 46 CURVE SMOOTH",
"126 63 LINE",
"149 67 LINE",
"127 13 LINE",
"114 41 LINE",
"165 19 LINE SMOOTH",
"206 1 OFFCURVE",
"252 -6 OFFCURVE",
"295 -6 CURVE SMOOTH"
);
}
);
};
layerId = "620D8D18-E43F-4D11-9420-7EF908A5CAE8";
paths = (
{
closed = 1;
nodes = (
"443 -6 OFFCURVE",
"538 102 OFFCURVE",
"538 245 CURVE SMOOTH",
"538 388 OFFCURVE",
"442 496 OFFCURVE",
"304 496 CURVE SMOOTH",
"255 496 OFFCURVE",
"207 481 OFFCURVE",
"160 454 CURVE SMOOTH",
"117 429 LINE",
"125 424 LINE",
"125 770 LINE",
"90 738 LINE",
"90 0 LINE",
"116 0 LINE",
"125 74 LINE",
"125 81 LINE",
"125 406 LINE",
"175 429 LINE SMOOTH",
"225 453 OFFCURVE",
"261 462 OFFCURVE",
"298 462 CURVE SMOOTH",
"427 462 OFFCURVE",
"501 360 OFFCURVE",
"501 243 CURVE SMOOTH",
"501 111 OFFCURVE",
"414 27 OFFCURVE",
"298 27 CURVE SMOOTH",
"261 27 OFFCURVE",
"225 38 OFFCURVE",
"175 61 CURVE SMOOTH",
"125 84 LINE",
"117 61 LINE",
"160 36 LINE SMOOTH",
"207 9 OFFCURVE",
"255 -6 OFFCURVE",
"304 -6 CURVE SMOOTH"
);
}
);
width = 593;
},
{
background = {
paths = (
{
closed = 1;
nodes = (
"566 -9 OFFCURVE",
"631 136 OFFCURVE",
"631 263 CURVE SMOOTH",
"631 390 OFFCURVE",
"566 535 OFFCURVE",
"401 535 CURVE SMOOTH",
"365 535 OFFCURVE",
"314 526 OFFCURVE",
"277 508 CURVE SMOOTH",
"203 472 LINE",
"262 425 LINE",
"262 770 LINE",
"45 738 LINE",
"45 0 LINE",
"203 0 LINE",
"231 100 LINE",
"262 136 LINE",
"262 345 LINE",
"284 351 LINE SMOOTH",
"298 355 OFFCURVE",
"314 357 OFFCURVE",
"333 357 CURVE SMOOTH",
"384 357 OFFCURVE",
"413 336 OFFCURVE",
"413 263 CURVE SMOOTH",
"413 189 OFFCURVE",
"386 168 OFFCURVE",
"333 168 CURVE SMOOTH",
"311 168 OFFCURVE",
"282 176 OFFCURVE",
"257 190 CURVE",
"216 70 LINE",
"258 16 OFFCURVE",
"345 -9 OFFCURVE",
"401 -9 CURVE SMOOTH"
);
}
);
};
layerId = "5C950900-0D0F-4959-81DE-75F048290F1B";
paths = (
{
closed = 1;
nodes = (
"536 -9 OFFCURVE",
"631 101 OFFCURVE",
"631 263 CURVE SMOOTH",
"631 424 OFFCURVE",
"537 535 OFFCURVE",
"401 535 CURVE SMOOTH",
"360 535 OFFCURVE",
"310 524 OFFCURVE",
"277 508 CURVE SMOOTH",
"203 472 LINE",
"262 425 LINE",
"262 770 LINE",
"45 738 LINE",
"45 0 LINE",
"203 0 LINE",
"231 100 LINE",
"262 136 LINE",
"262 345 LINE",
"284 351 LINE SMOOTH",
"298 355 OFFCURVE",
"314 357 OFFCURVE",
"333 357 CURVE SMOOTH",
"390 357 OFFCURVE",
"413 329 OFFCURVE",
"413 263 CURVE SMOOTH",
"413 195 OFFCURVE",
"391 168 OFFCURVE",
"333 168 CURVE SMOOTH",
"315 168 OFFCURVE",
"294 173 OFFCURVE",
"277 181 CURVE SMOOTH",
"257 190 LINE",
"199 70 LINE",
"245 41 LINE SMOOTH",
"298 8 OFFCURVE",
"348 -9 OFFCURVE",
"396 -9 CURVE SMOOTH"
);
}
);
width = 656;
},
{
background = {
paths = (
{
closed = 1;
nodes = (
"536 -9 OFFCURVE",
"631 101 OFFCURVE",
"631 263 CURVE SMOOTH",
"631 424 OFFCURVE",
"537 535 OFFCURVE",
"401 535 CURVE SMOOTH",
"360 535 OFFCURVE",
"310 524 OFFCURVE",
"277 508 CURVE SMOOTH",
"203 472 LINE",
"262 425 LINE",
"262 770 LINE",
"45 738 LINE",
"45 0 LINE",
"203 0 LINE",
"231 100 LINE",
"262 136 LINE",
"262 345 LINE",
"284 351 LINE SMOOTH",
"298 355 OFFCURVE",
"314 357 OFFCURVE",
"333 357 CURVE SMOOTH",
"390 357 OFFCURVE",
"413 329 OFFCURVE",
"413 263 CURVE SMOOTH",
"413 195 OFFCURVE",
"391 168 OFFCURVE",
"333 168 CURVE SMOOTH",
"315 168 OFFCURVE",
"294 173 OFFCURVE",
"277 181 CURVE SMOOTH",
"257 190 LINE",
"199 70 LINE",
"245 41 LINE SMOOTH",
"298 8 OFFCURVE",
"348 -9 OFFCURVE",
"396 -9 CURVE SMOOTH"
);
}
);
};
layerId = "514A1583-697A-4C0A-B081-2869E94CF283";
paths = (
{
closed = 1;
nodes = (
"474 -8 OFFCURVE",
"567 101 OFFCURVE",
"567 254 CURVE SMOOTH",
"567 408 OFFCURVE",
"475 516 OFFCURVE",
"343 516 CURVE SMOOTH",
"305 516 OFFCURVE",
"261 506 OFFCURVE",
"226 490 CURVE SMOOTH",
"159 460 LINE",
"196 427 LINE",
"196 770 LINE",
"70 738 LINE",
"70 0 LINE",
"165 0 LINE",
"181 93 LINE",
"196 114 LINE",
"196 375 LINE",
"230 387 LINE SMOOTH",
"259 397 OFFCURVE",
"284 402 OFFCURVE",
"307 402 CURVE SMOOTH",
"390 402 OFFCURVE",
"439 351 OFFCURVE",
"439 255 CURVE SMOOTH",
"439 159 OFFCURVE",
"394 107 OFFCURVE",
"314 107 CURVE SMOOTH",
"288 107 OFFCURVE",
"261 113 OFFCURVE",
"235 129 CURVE SMOOTH",
"190 156 LINE",
"165 69 LINE",
"206 41 LINE SMOOTH",
"253 9 OFFCURVE",
"301 -8 OFFCURVE",
"344 -8 CURVE SMOOTH"
);
}
);
width = 612;
}
);
leftKerningGroup = h;
leftMetricsKey = n;
rightKerningGroup = o;
rightMetricsKey = o;
unicode = 0062;
},
{
color = 4;
glyphname = c;
lastChange = "2021-09-30 22:26:40 +0000";
layers = (
{
anchors = (
{
name = bottom;
position = "{265, -35}";
},
{
name = top;
position = "{309, 550}";
}
);
background = {
paths = (
{
closed = 1;
nodes = (
"351 -6 OFFCURVE",
"397 2 OFFCURVE",
"438 19 CURVE SMOOTH",
"489 41 LINE",
"476 13 LINE",
"454 67 LINE",
"477 63 LINE",
"426 46 LINE SMOOTH",
"391 35 OFFCURVE",
"352 27 OFFCURVE",
"316 27 CURVE SMOOTH",
"190 27 OFFCURVE",
"97 108 OFFCURVE",
"97 245 CURVE SMOOTH",
"97 383 OFFCURVE",
"187 462 OFFCURVE",
"314 462 CURVE SMOOTH",
"348 462 OFFCURVE",
"385 456 OFFCURVE",
"424 444 CURVE SMOOTH",
"489 424 LINE",
"447 418 LINE",
"467 477 LINE",
"483 454 LINE",
"436 472 LINE SMOOTH",
"397 487 OFFCURVE",
"351 496 OFFCURVE",
"309 496 CURVE SMOOTH",
"173 496 OFFCURVE",
"60 404 OFFCURVE",
"60 245 CURVE SMOOTH",
"60 87 OFFCURVE",
"168 -6 OFFCURVE",
"308 -6 CURVE SMOOTH"
);
}
);
};
guideLines = (
{
angle = 90;
position = "{459, 160}";
},
{
angle = 90;
position = "{449, 174}";
}
);
layerId = "620D8D18-E43F-4D11-9420-7EF908A5CAE8";
paths = (
{
closed = 1;
nodes = (
"346 -6 OFFCURVE",
"392 2 OFFCURVE",
"433 19 CURVE SMOOTH",
"463 32 LINE",
"454 56 LINE",
"421 45 LINE SMOOTH",
"386 33 OFFCURVE",
"347 27 OFFCURVE",
"311 27 CURVE SMOOTH",
"185 27 OFFCURVE",
"92 108 OFFCURVE",
"92 245 CURVE SMOOTH",
"92 383 OFFCURVE",
"182 463 OFFCURVE",
"309 463 CURVE SMOOTH",
"346 463 OFFCURVE",
"385 456 OFFCURVE",
"421 444 CURVE SMOOTH",
"448 435 LINE",
"458 461 LINE",
"434 471 LINE SMOOTH",
"393 489 OFFCURVE",
"347 496 OFFCURVE",
"304 496 CURVE SMOOTH",
"168 496 OFFCURVE",
"55 404 OFFCURVE",
"55 245 CURVE SMOOTH",
"55 87 OFFCURVE",
"163 -6 OFFCURVE",
"303 -6 CURVE SMOOTH"
);
}
);
width = 502;
},
{
anchors = (
{
name = bottom;
position = "{275, -35}";
},
{
name = top;
position = "{325, 550}";
}
);
background = {
paths = (
{
closed = 1;
nodes = (
"364 -9 OFFCURVE",
"414 1 OFFCURVE",
"464 19 CURVE SMOOTH",
"544 48 LINE",
"499 10 LINE",
"447 222 LINE",
"487 190 LINE",
"428 183 LINE SMOOTH",
"386 178 OFFCURVE",
"363 177 OFFCURVE",
"342 177 CURVE SMOOTH",
"283 177 OFFCURVE",
"243 200 OFFCURVE",
"243 267 CURVE SMOOTH",
"243 331 OFFCURVE",
"280 357 OFFCURVE",
"341 357 CURVE SMOOTH",
"372 357 OFFCURVE",
"395 354 OFFCURVE",
"420 349 CURVE SMOOTH",
"490 338 LINE",
"440 304 LINE",
"492 516 LINE",
"544 482 LINE",
"463 510 LINE SMOOTH",
"415 526 OFFCURVE",
"366 535 OFFCURVE",
"320 535 CURVE SMOOTH",
"153 535 OFFCURVE",
"25 440 OFFCURVE",
"25 263 CURVE SMOOTH",
"25 91 OFFCURVE",
"157 -9 OFFCURVE",
"317 -9 CURVE SMOOTH"
);
}
);
};
guideLines = (
{
angle = 90;
position = "{494, 266}";
}
);
layerId = "5C950900-0D0F-4959-81DE-75F048290F1B";
paths = (
{
closed = 1;
nodes = (
"364 -9 OFFCURVE",
"414 1 OFFCURVE",
"464 19 CURVE SMOOTH",
"495 30 LINE",
"464 187 LINE",
"428 183 LINE SMOOTH",
"386 178 OFFCURVE",
"363 177 OFFCURVE",
"342 177 CURVE SMOOTH",
"283 177 OFFCURVE",
"243 200 OFFCURVE",
"243 267 CURVE SMOOTH",
"243 331 OFFCURVE",
"280 357 OFFCURVE",
"341 357 CURVE SMOOTH",
"372 357 OFFCURVE",
"395 354 OFFCURVE",
"420 349 CURVE SMOOTH",
"450 344 LINE",
"488 501 LINE",
"463 510 LINE SMOOTH",
"415 526 OFFCURVE",
"366 535 OFFCURVE",
"320 535 CURVE SMOOTH",
"153 535 OFFCURVE",
"25 440 OFFCURVE",
"25 263 CURVE SMOOTH",
"25 91 OFFCURVE",
"157 -9 OFFCURVE",
"317 -9 CURVE SMOOTH"
);
}
);
width = 496;
},
{
associatedMasterId = "5C950900-0D0F-4959-81DE-75F048290F1B";
background = {
paths = (
{
closed = 1;
nodes = (
"388 -9 OFFCURVE",
"468 21 OFFCURVE",
"534 70 CURVE",
"499 10 LINE",
"447 222 LINE",
"495 204 LINE",
"429 186 OFFCURVE",
"380 177 OFFCURVE",
"338 177 CURVE SMOOTH",
"283 177 OFFCURVE",
"243 204 OFFCURVE",
"243 267 CURVE SMOOTH",
"243 331 OFFCURVE",
"281 357 OFFCURVE",
"341 357 CURVE SMOOTH",
"383 357 OFFCURVE",
"432 348 OFFCURVE",
"498 333 CURVE",
"440 304 LINE",
"492 516 LINE",
"546 456 LINE",
"478 505 OFFCURVE",
"394 535 OFFCURVE",
"318 535 CURVE SMOOTH",
"161 535 OFFCURVE",
"25 440 OFFCURVE",
"25 263 CURVE SMOOTH",
"25 81 OFFCURVE",
"161 -9 OFFCURVE",
"315 -9 CURVE SMOOTH"
);
}
);
};
guideLines = (
{
angle = 90;
position = "{492, 266}";
}
);
layerId = "9B9CC5C4-3753-47A6-8344-A7C9F81706A8";
name = "Mar 12 18, 17:50";
paths = (
{
closed = 1;
nodes = (
"262 -106 OFFCURVE",
"550 37 CURVE",
"518 -22 LINE",
"518 195 LINE",
"570 186 LINE",
"488 176 OFFCURVE",
"427 172 OFFCURVE",
"371 172 CURVE SMOOTH",
"274 172 OFFCURVE",
"242 190 OFFCURVE",
"242 255 CURVE SMOOTH",
"242 311 OFFCURVE",
"280 336 OFFCURVE",
"317 336 CURVE SMOOTH",
"371 336 OFFCURVE",
"495 278 OFFCURVE",
"557 261 CURVE",
"422 240 LINE",
"570 507 LINE",
"637 358 LINE",
"536 426 OFFCURVE",
"427 535 OFFCURVE",
"278 535 CURVE SMOOTH",
"164 535 OFFCURVE",
"25 440 OFFCURVE",
"25 254 CURVE SMOOTH",
"25 -13 OFFCURVE"
);
}
);
width = 535;
},
{
associatedMasterId = "5C950900-0D0F-4959-81DE-75F048290F1B";
background = {
paths = (
{
closed = 1;
nodes = (
"497 -10 OFFCURVE",
"617 96 OFFCURVE",
"617 262 CURVE SMOOTH",
"617 428 OFFCURVE",
"507 535 OFFCURVE",
"323 535 CURVE SMOOTH",
"144 535 OFFCURVE",
"25 429 OFFCURVE",
"25 263 CURVE SMOOTH",
"25 97 OFFCURVE",
"134 -10 OFFCURVE",
"319 -10 CURVE SMOOTH"
);
},
{
closed = 1;
nodes = (
"270 165 OFFCURVE",
"243 186 OFFCURVE",
"243 262 CURVE SMOOTH",
"243 339 OFFCURVE",
"272 360 OFFCURVE",
"321 360 CURVE SMOOTH",
"372 360 OFFCURVE",
"398 339 OFFCURVE",
"398 262 CURVE SMOOTH",
"398 186 OFFCURVE",
"370 165 OFFCURVE",
"321 165 CURVE SMOOTH"
);
}
);
};
guideLines = (
{
position = "{347, 286}";
}
);
layerId = "0B8C878D-AE3C-4A83-A205-D58ECCFACC51";
name = "Mar 13 18, 08:47";
paths = (
{
closed = 1;
nodes = (
"416 173 OFFCURVE",
"363 172 CURVE SMOOTH",
"284 171 OFFCURVE",
"243 192 OFFCURVE",
"243 271 CURVE SMOOTH",
"243 317 OFFCURVE",
"259 364 OFFCURVE",
"323 364 CURVE SMOOTH",
"372 364 OFFCURVE",
"388 330 OFFCURVE",
"388 278 CURVE SMOOTH",
"388 265 LINE",
"583 265 LINE",
"583 286 LINE SMOOTH",
"583 440 OFFCURVE",
"482 535 OFFCURVE",
"319 535 CURVE SMOOTH",
"167 535 OFFCURVE",
"25 444 OFFCURVE",
"25 262 CURVE SMOOTH",
"25 75 OFFCURVE",
"152 -9 OFFCURVE",
"315 -9 CURVE SMOOTH",
"416 -9 OFFCURVE",
"561 37 OFFCURVE",
"635 83 CURVE",
"594 15 LINE",
"546 231 LINE",
"569 200 LINE",
"490 184 OFFCURVE"
);
}
);
width = 600;
},
{
associatedMasterId = "5C950900-0D0F-4959-81DE-75F048290F1B";
background = {
paths = (
{
closed = 1;
nodes = (
"262 -106 OFFCURVE",
"550 37 CURVE",
"518 -22 LINE",
"518 195 LINE",
"570 186 LINE",
"488 176 OFFCURVE",
"427 172 OFFCURVE",
"371 172 CURVE SMOOTH",
"274 172 OFFCURVE",
"242 190 OFFCURVE",
"242 255 CURVE SMOOTH",
"242 311 OFFCURVE",
"280 336 OFFCURVE",
"317 336 CURVE SMOOTH",
"371 336 OFFCURVE",
"495 278 OFFCURVE",
"557 261 CURVE",
"422 240 LINE",
"570 507 LINE",
"637 358 LINE",
"536 426 OFFCURVE",
"427 535 OFFCURVE",
"278 535 CURVE SMOOTH",
"164 535 OFFCURVE",
"25 440 OFFCURVE",
"25 254 CURVE SMOOTH",
"25 -13 OFFCURVE"
);
}
);
};
guideLines = (
{
angle = 90;
position = "{492, 266}";
}
);
layerId = "0999EA5F-06F4-4A53-9BE6-D47CF30C07DF";
name = "Mar 31 18, 23:19";
paths = (
{
closed = 1;
nodes = (
"133 -9 OFFCURVE",
"298 -9 CURVE SMOOTH",
"372 -9 OFFCURVE",
"458 11 OFFCURVE",
"550 50 CURVE",
"518 -22 LINE",
"518 217 LINE",
"570 196 LINE",
"491 177 OFFCURVE",
"421 165 OFFCURVE",
"369 165 CURVE SMOOTH",
"287 165 OFFCURVE",
"242 184 OFFCURVE",
"242 255 CURVE SMOOTH",
"242 317 OFFCURVE",
"275 341 OFFCURVE",
"319 341 CURVE SMOOTH",
"373 341 OFFCURVE",
"446 271 OFFCURVE",
"481 246 CURVE",
"435 246 LINE",
"615 473 LINE",
"581 359 LINE",
"530 400 OFFCURVE",
"439 535 OFFCURVE",
"289 535 CURVE SMOOTH",
"159 535 OFFCURVE",
"25 443 OFFCURVE",
"25 254 CURVE SMOOTH",
"25 70 OFFCURVE"
);
}
);
width = 565;
},
{
associatedMasterId = "5C950900-0D0F-4959-81DE-75F048290F1B";
background = {
paths = (
{
closed = 1;
nodes = (
"146 -9 OFFCURVE",
"318 -9 CURVE SMOOTH",
"392 -9 OFFCURVE",
"478 11 OFFCURVE",
"570 50 CURVE",
"528 -22 LINE",
"528 217 LINE",
"570 196 LINE",
"491 177 OFFCURVE",
"421 165 OFFCURVE",
"369 165 CURVE SMOOTH",
"287 165 OFFCURVE",
"242 184 OFFCURVE",
"242 255 CURVE SMOOTH",
"242 317 OFFCURVE",
"275 341 OFFCURVE",
"319 341 CURVE SMOOTH",
"385 341 OFFCURVE",
"474 286 OFFCURVE",
"516 260 CURVE",
"420 246 LINE",
"584 473 LINE",
"600 381 LINE",
"526 444 OFFCURVE",
"443 535 OFFCURVE",
"307 535 CURVE SMOOTH",
"169 535 OFFCURVE",
"25 447 OFFCURVE",
"25 254 CURVE SMOOTH",
"25 68 OFFCURVE"
);
}
);
};
guideLines = (
{
angle = 90;
position = "{492, 266}";
}
);
layerId = "D4532447-C6A2-4C17-8606-B05FFAA80657";
name = "Mar 31 18, 23:24";
paths = (
{
closed = 1;
nodes = (
"154 -9 OFFCURVE",
"337 -9 CURVE SMOOTH",
"416 -9 OFFCURVE",
"507 11 OFFCURVE",
"605 50 CURVE",
"551 -22 LINE",
"551 217 LINE",
"605 196 LINE",
"518 177 OFFCURVE",
"441 165 OFFCURVE",
"382 165 CURVE SMOOTH",
"292 165 OFFCURVE",
"242 184 OFFCURVE",
"242 255 CURVE SMOOTH",
"242 317 OFFCURVE",
"278 341 OFFCURVE",
"327 341 CURVE SMOOTH",
"400 341 OFFCURVE",
"499 286 OFFCURVE",
"546 260 CURVE",
"436 246 LINE",
"610 473 LINE",
"637 381 LINE",
"558 444 OFFCURVE",
"470 535 OFFCURVE",
"325 535 CURVE SMOOTH",
"178 535 OFFCURVE",
"25 447 OFFCURVE",
"25 254 CURVE SMOOTH",
"25 68 OFFCURVE"
);
}
);
width = 565;
},
{
associatedMasterId = "5C950900-0D0F-4959-81DE-75F048290F1B";
background = {
paths = (
{
closed = 1;
nodes = (
"146 -9 OFFCURVE",
"318 -9 CURVE SMOOTH",
"392 -9 OFFCURVE",
"478 11 OFFCURVE",
"570 50 CURVE",
"528 -22 LINE",
"528 217 LINE",
"570 196 LINE",
"491 177 OFFCURVE",
"421 165 OFFCURVE",
"369 165 CURVE SMOOTH",
"287 165 OFFCURVE",
"242 184 OFFCURVE",
"242 255 CURVE SMOOTH",
"242 317 OFFCURVE",
"275 341 OFFCURVE",
"319 341 CURVE SMOOTH",
"385 341 OFFCURVE",
"474 286 OFFCURVE",
"516 260 CURVE",
"420 246 LINE",
"584 473 LINE",
"600 381 LINE",
"526 444 OFFCURVE",
"443 535 OFFCURVE",
"307 535 CURVE SMOOTH",
"169 535 OFFCURVE",
"25 447 OFFCURVE",
"25 254 CURVE SMOOTH",
"25 68 OFFCURVE"
);
}
);
};
guideLines = (
{
angle = 90;
position = "{492, 266}";
}
);
layerId = "3D494151-E7D6-4ECB-BC4F-954AAC384553";
name = "Apr 1 18, 00:24";
paths = (
{
closed = 1;
nodes = (
"154 -9 OFFCURVE",
"337 -9 CURVE SMOOTH",
"416 -9 OFFCURVE",
"507 11 OFFCURVE",
"605 50 CURVE",
"541 -22 LINE",
"541 217 LINE",
"605 196 LINE",
"518 177 OFFCURVE",
"441 165 OFFCURVE",
"382 165 CURVE SMOOTH",
"292 165 OFFCURVE",
"242 184 OFFCURVE",
"242 255 CURVE SMOOTH",
"242 317 OFFCURVE",
"278 341 OFFCURVE",
"327 341 CURVE SMOOTH",
"400 341 OFFCURVE",
"499 286 OFFCURVE",
"546 260 CURVE",
"426 246 LINE",
"590 473 LINE",
"637 381 LINE",
"558 444 OFFCURVE",
"470 535 OFFCURVE",
"325 535 CURVE SMOOTH",
"178 535 OFFCURVE",
"25 447 OFFCURVE",
"25 254 CURVE SMOOTH",
"25 68 OFFCURVE"
);
}
);
width = 571;
},
{
anchors = (
{
name = bottom;
position = "{275, -35}";
},
{
name = top;
position = "{309, 550}";
}
);
background = {
paths = (
{
closed = 1;
nodes = (
"348 482 OFFCURVE",
"388 474 OFFCURVE",
"426 462 CURVE SMOOTH",
"480 444 LINE",
"449 440 LINE",
"471 496 LINE",
"478 473 LINE",
"439 490 LINE SMOOTH",
"396 509 OFFCURVE",
"349 516 OFFCURVE",
"304 516 CURVE SMOOTH",
"163 516 OFFCURVE",
"45 420 OFFCURVE",
"45 255 CURVE SMOOTH",
"45 91 OFFCURVE",
"157 -6 OFFCURVE",
"303 -6 CURVE SMOOTH",
"348 -6 OFFCURVE",
"395 1 OFFCURVE",
"438 20 CURVE SMOOTH",
"491 43 LINE",
"478 14 LINE",
"455 70 LINE",
"479 65 LINE",
"426 47 LINE SMOOTH",
"389 35 OFFCURVE",
"349 28 OFFCURVE",
"311 28 CURVE SMOOTH",
"180 28 OFFCURVE",
"83 113 OFFCURVE",
"83 255 CURVE SMOOTH",
"83 398 OFFCURVE",
"177 482 OFFCURVE",
"309 482 CURVE SMOOTH"
);
}
);
};
guideLines = (
{
position = "{236, 406}";
},
{
position = "{211, 108}";
}
);
layerId = "514A1583-697A-4C0A-B081-2869E94CF283";
paths = (
{
closed = 1;
nodes = (
"348 -8 OFFCURVE",
"396 0 OFFCURVE",
"442 19 CURVE SMOOTH",
"468 30 LINE",
"444 120 LINE",
"413 113 LINE SMOOTH",
"379 106 OFFCURVE",
"347 103 OFFCURVE",
"321 103 CURVE SMOOTH",
"235 103 OFFCURVE",
"173 155 OFFCURVE",
"173 254 CURVE SMOOTH",
"173 353 OFFCURVE",
"232 406 OFFCURVE",
"319 406 CURVE SMOOTH",
"344 406 OFFCURVE",
"374 404 OFFCURVE",
"404 397 CURVE SMOOTH",
"438 389 LINE",
"461 481 LINE",
"433 492 LINE SMOOTH",
"397 506 OFFCURVE",
"352 516 OFFCURVE",
"306 516 CURVE SMOOTH",
"163 516 OFFCURVE",
"45 421 OFFCURVE",
"45 254 CURVE SMOOTH",
"45 86 OFFCURVE",
"157 -8 OFFCURVE",
"305 -8 CURVE SMOOTH"
);
}
);
width = 490;
},
{
anchors = (
{
name = bottom;
position = "{275, -35}";
},
{
name = top;
position = "{325, 550}";
}
);
associatedMasterId = "5C950900-0D0F-4959-81DE-75F048290F1B";
background = {
paths = (
{
closed = 1;
nodes = (
"364 -9 OFFCURVE",
"414 1 OFFCURVE",
"464 19 CURVE SMOOTH",
"544 48 LINE",
"499 10 LINE",
"447 222 LINE",
"487 190 LINE",
"428 183 LINE SMOOTH",
"386 178 OFFCURVE",
"363 177 OFFCURVE",
"342 177 CURVE SMOOTH",
"283 177 OFFCURVE",
"243 200 OFFCURVE",
"243 267 CURVE SMOOTH",
"243 331 OFFCURVE",
"280 357 OFFCURVE",
"341 357 CURVE SMOOTH",
"372 357 OFFCURVE",
"395 354 OFFCURVE",
"420 349 CURVE SMOOTH",
"490 338 LINE",
"440 304 LINE",
"492 516 LINE",
"544 482 LINE",
"463 510 LINE SMOOTH",
"415 526 OFFCURVE",
"366 535 OFFCURVE",
"320 535 CURVE SMOOTH",
"153 535 OFFCURVE",
"25 440 OFFCURVE",
"25 263 CURVE SMOOTH",
"25 91 OFFCURVE",
"157 -9 OFFCURVE",
"317 -9 CURVE SMOOTH"
);
}
);
};
guideLines = (
{
angle = 90;
position = "{514, 255}";
}
);
layerId = "A9901ABC-1A57-4816-B6FB-DA4B73540C03";
name = "Dec 10 18, 10:00";
paths = (
{
closed = 1;
nodes = (
"381 -9 OFFCURVE",
"434 1 OFFCURVE",
"486 19 CURVE SMOOTH",
"571 48 LINE",
"553 10 LINE",
"499 222 LINE",
"543 193 LINE",
"446 183 LINE SMOOTH",
"399 178 OFFCURVE",
"374 177 OFFCURVE",
"351 177 CURVE SMOOTH",
"287 177 OFFCURVE",
"243 201 OFFCURVE",
"243 270 CURVE SMOOTH",
"243 337 OFFCURVE",
"284 363 OFFCURVE",
"350 363 CURVE SMOOTH",
"385 363 OFFCURVE",
"410 360 OFFCURVE",
"437 355 CURVE SMOOTH",
"514 344 LINE",
"461 304 LINE",
"516 516 LINE",
"571 482 LINE",
"485 510 LINE SMOOTH",
"435 526 OFFCURVE",
"383 535 OFFCURVE",
"335 535 CURVE SMOOTH",
"160 535 OFFCURVE",
"25 440 OFFCURVE",
"25 263 CURVE SMOOTH",
"25 86 OFFCURVE",
"158 -9 OFFCURVE",
"332 -9 CURVE SMOOTH"
);
},
{
closed = 1;
nodes = (
"383 301 LINE",
"514 301 LINE",
"514 499 LINE",
"287 499 LINE"
);
}
);
width = 556;
}
);
leftKerningGroup = o;
leftMetricsKey = o;
rightKerningGroup = c;
unicode = 0063;
},
